<svg width="152" height="48" viewBox="0 0 152 48" fill="none" xmlns="http://www.w3.org/2000/svg">
<path d="M9.76078 48C9.36787 48 8.98528 48 8.59547 47.987C7.78848 47.978 6.98328 47.9109 6.18647 47.7862C5.44283 47.6604 4.72265 47.4272 4.04972 47.0945C3.38314 46.7659 2.77519 46.335 2.24916 45.8185C1.71524 45.308 1.27074 44.7159 0.933281 44.0656C0.592793 43.4123 0.357001 42.7122 0.234094 41.9895C0.101511 41.2115 0.0298051 40.4248 0.0195937 39.6362C0.0103125 39.3692 0 38.4877 0 38.4877V9.49921C0 9.49921 0.0113437 8.63181 0.0185624 8.37681C0.0290567 7.58922 0.101109 6.80355 0.234094 6.0266C0.356645 5.3006 0.592428 4.59709 0.933281 3.94043C1.26949 3.29093 1.71142 2.69866 2.24194 2.18656C2.77191 1.66949 3.38191 1.23656 4.04972 0.903539C4.72107 0.575125 5.43926 0.346694 6.18028 0.225885C6.97949 0.0969589 7.7875 0.0264865 8.59753 0.015059L9.76078 0H142.237L143.414 0.0160629C144.216 0.0242728 145.017 0.091392 145.809 0.216849C146.559 0.340715 147.285 0.572488 147.964 0.904543C149.301 1.57561 150.389 2.63714 151.076 3.94043C151.412 4.5923 151.644 5.2899 151.766 6.00954C151.9 6.79261 151.974 7.58414 151.99 8.37781C151.99 8.73321 151.99 9.1147 151.99 9.49519C152 9.96603 152 10.4138 152 10.8656V37.1324C152 37.5882 152 38.036 151.99 38.4817C151.99 38.8893 151.99 39.2638 151.99 39.6483C151.975 40.4279 151.901 41.2053 151.769 41.9744C151.649 42.7034 151.414 43.4101 151.073 44.0696C150.733 44.7111 150.292 45.2965 149.765 45.8044C149.239 46.3236 148.63 46.7568 147.962 47.0874C147.285 47.4211 146.56 47.6537 145.811 47.7771C145.014 47.9025 144.209 47.9697 143.401 47.9779C143.024 47.9859 142.628 47.991 142.244 47.991H140.847L9.76078 48Z" fill="#151A30"/>
<path d="M52.8301 35L51.6387 31.3965H46.4531L45.2422 35H42.6934L47.6934 20.9082H50.5254L55.5352 35H52.8301ZM48.9727 23.5938L47.0391 29.4043H51.0527L49.1387 23.5938H48.9727ZM63.5234 24.1406C64.8776 24.1406 65.9486 24.6322 66.7363 25.6152C67.5306 26.5983 67.9277 27.946 67.9277 29.6582C67.9277 31.3639 67.5339 32.7116 66.7461 33.7012C65.9648 34.6842 64.9004 35.1758 63.5527 35.1758C62.791 35.1758 62.1237 35.0195 61.5508 34.707C60.9844 34.388 60.5645 33.9453 60.291 33.3789H60.125V38.5547H57.7031V24.3164H60.0371V26.084H60.2031C60.5091 25.4785 60.9551 25.0033 61.541 24.6582C62.1335 24.3132 62.7943 24.1406 63.5234 24.1406ZM62.7617 33.1152C63.6016 33.1152 64.2559 32.8092 64.7246 32.1973C65.1999 31.5853 65.4375 30.7389 65.4375 29.6582C65.4375 28.5775 65.1999 27.7311 64.7246 27.1191C64.2559 26.5072 63.6048 26.2012 62.7715 26.2012C61.9447 26.2012 61.2904 26.5104 60.8086 27.1289C60.3268 27.7474 60.0827 28.5905 60.0762 29.6582C60.0827 30.7259 60.3236 31.569 60.7988 32.1875C61.2806 32.806 61.9349 33.1152 62.7617 33.1152ZM76.1797 24.1406C77.5339 24.1406 78.6048 24.6322 79.3926 25.6152C80.1868 26.5983 80.584 27.946 80.584 29.6582C80.584 31.3639 80.1901 32.7116 79.4023 33.7012C78.6211 34.6842 77.5566 35.1758 76.209 35.1758C75.4473 35.1758 74.7799 35.0195 74.207 34.707C73.6406 34.388 73.2207 33.9453 72.9473 33.3789H72.7812V38.5547H70.3594V24.3164H72.6934V26.084H72.8594C73.1654 25.4785 73.6113 25.0033 74.1973 24.6582C74.7897 24.3132 75.4505 24.1406 76.1797 24.1406ZM75.418 33.1152C76.2578 33.1152 76.9121 32.8092 77.3809 32.1973C77.8561 31.5853 78.0938 30.7389 78.0938 29.6582C78.0938 28.5775 77.8561 27.7311 77.3809 27.1191C76.9121 26.5072 76.2611 26.2012 75.4277 26.2012C74.6009 26.2012 73.9466 26.5104 73.4648 27.1289C72.9831 27.7474 72.7389 28.5905 72.7324 29.6582C72.7389 30.7259 72.9798 31.569 73.4551 32.1875C73.9368 32.806 74.5911 33.1152 75.418 33.1152ZM87.957 31.1719H90.418C90.4961 31.8034 90.8249 32.3079 91.4043 32.6855C91.9837 33.0566 92.7194 33.2422 93.6113 33.2422C94.4447 33.2422 95.1283 33.0534 95.6621 32.6758C96.2025 32.2917 96.4727 31.8034 96.4727 31.2109C96.4727 30.7031 96.2676 30.2897 95.8574 29.9707C95.4538 29.6517 94.7995 29.388 93.8945 29.1797L92.0684 28.7598C90.7923 28.4733 89.8451 28.0078 89.2266 27.3633C88.6146 26.7122 88.3086 25.8626 88.3086 24.8145C88.3086 23.5319 88.7871 22.5033 89.7441 21.7285C90.7077 20.9473 91.9772 20.5566 93.5527 20.5566C95.0306 20.5566 96.2546 20.9408 97.2246 21.709C98.1947 22.4772 98.709 23.4668 98.7676 24.6777H96.3555C96.2708 24.0592 95.9746 23.5677 95.4668 23.2031C94.959 22.8385 94.3177 22.6562 93.543 22.6562C92.7292 22.6562 92.0749 22.8385 91.5801 23.2031C91.0918 23.5612 90.8477 24.0397 90.8477 24.6387C90.8477 25.1139 91.0397 25.5013 91.4238 25.8008C91.8079 26.0938 92.4362 26.3411 93.3086 26.543L94.9297 26.9141C96.3555 27.2331 97.3874 27.7083 98.0254 28.3398C98.6699 28.9714 98.9922 29.8242 98.9922 30.8984C98.9922 32.2721 98.4941 33.3594 97.498 34.1602C96.5085 34.9544 95.1608 35.3516 93.4551 35.3516C91.8405 35.3516 90.5352 34.974 89.5391 34.2188C88.5495 33.4635 88.0221 32.4479 87.957 31.1719ZM102.342 21.6992H104.754V24.3848H107.039V26.3184H104.754V31.5625C104.754 32.0898 104.871 32.4772 105.105 32.7246C105.34 32.9655 105.711 33.0859 106.219 33.0859C106.44 33.0859 106.714 33.0697 107.039 33.0371V34.9316C106.635 35.0098 106.212 35.0488 105.77 35.0488C104.546 35.0488 103.667 34.8242 103.133 34.375C102.605 33.9258 102.342 33.1836 102.342 32.1484V26.3184H100.652V24.3848H102.342V21.6992ZM113.973 35.2148C112.371 35.2148 111.115 34.7233 110.203 33.7402C109.292 32.7507 108.836 31.39 108.836 29.6582C108.836 27.9395 109.295 26.5853 110.213 25.5957C111.131 24.5996 112.384 24.1016 113.973 24.1016C115.568 24.1016 116.821 24.5964 117.732 25.5859C118.65 26.5755 119.109 27.9329 119.109 29.6582C119.109 31.39 118.65 32.7507 117.732 33.7402C116.821 34.7233 115.568 35.2148 113.973 35.2148ZM112.01 32.2656C112.472 32.8776 113.126 33.1836 113.973 33.1836C114.819 33.1836 115.47 32.8776 115.926 32.2656C116.388 31.6471 116.619 30.778 116.619 29.6582C116.619 28.5449 116.388 27.679 115.926 27.0605C115.464 26.4421 114.812 26.1328 113.973 26.1328C113.126 26.1328 112.472 26.4421 112.01 27.0605C111.548 27.679 111.316 28.5449 111.316 29.6582C111.316 30.778 111.548 31.6471 112.01 32.2656ZM121.551 35V24.3164H123.885V25.9766H124.051C124.201 25.4427 124.536 25.0033 125.057 24.6582C125.584 24.3132 126.189 24.1406 126.873 24.1406C127.309 24.1406 127.645 24.1764 127.879 24.248V26.4941C127.632 26.403 127.218 26.3574 126.639 26.3574C125.851 26.3574 125.21 26.5853 124.715 27.041C124.22 27.4902 123.973 28.0859 123.973 28.8281V35H121.551ZM134.08 26.0254C133.357 26.0254 132.762 26.263 132.293 26.7383C131.824 27.2135 131.564 27.8418 131.512 28.623H136.541C136.515 27.8288 136.281 27.1973 135.838 26.7285C135.395 26.2598 134.809 26.0254 134.08 26.0254ZM136.561 32.0605H138.855C138.628 33.0371 138.09 33.8086 137.244 34.375C136.404 34.9349 135.359 35.2148 134.109 35.2148C132.54 35.2148 131.307 34.7266 130.408 33.75C129.516 32.7669 129.07 31.416 129.07 29.6973C129.07 27.9785 129.52 26.6178 130.418 25.6152C131.316 24.6061 132.54 24.1016 134.09 24.1016C135.613 24.1016 136.805 24.5801 137.664 25.5371C138.53 26.4876 138.963 27.806 138.963 29.4922V30.2734H131.502V30.4004C131.535 31.2923 131.788 31.9987 132.264 32.5195C132.745 33.0339 133.383 33.291 134.178 33.291C135.402 33.291 136.196 32.8809 136.561 32.0605Z" fill="white"/>
<path d="M44.9561 8.24951H47.8618C49.0148 8.24951 49.91 8.5861 50.5474 9.25928C51.1883 9.92887 51.5088 10.8724 51.5088 12.0898C51.5088 13.3324 51.1901 14.2956 50.5527 14.9795C49.9189 15.6598 49.022 16 47.8618 16H44.9561V8.24951ZM46.3418 9.44727V14.8022H47.6792C48.4526 14.8022 49.0488 14.5695 49.4678 14.104C49.8867 13.6385 50.0962 12.9743 50.0962 12.1113C50.0962 11.2663 49.8831 10.611 49.457 10.1455C49.0345 9.68001 48.4419 9.44727 47.6792 9.44727H46.3418ZM55.4834 16.1182C54.6025 16.1182 53.9115 15.8478 53.4102 15.3071C52.9089 14.7629 52.6582 14.0145 52.6582 13.062C52.6582 12.1167 52.9106 11.3719 53.4155 10.8276C53.9204 10.2798 54.6097 10.0059 55.4834 10.0059C56.3607 10.0059 57.05 10.278 57.5513 10.8223C58.0562 11.3665 58.3086 12.1131 58.3086 13.062C58.3086 14.0145 58.0562 14.7629 57.5513 15.3071C57.05 15.8478 56.3607 16.1182 55.4834 16.1182ZM54.4038 14.4961C54.658 14.8327 55.0179 15.001 55.4834 15.001C55.9489 15.001 56.307 14.8327 56.5576 14.4961C56.8118 14.1559 56.939 13.6779 56.939 13.062C56.939 12.4497 56.8118 11.9735 56.5576 11.6333C56.3034 11.2931 55.9453 11.123 55.4834 11.123C55.0179 11.123 54.658 11.2931 54.4038 11.6333C54.1496 11.9735 54.0225 12.4497 54.0225 13.062C54.0225 13.6779 54.1496 14.1559 54.4038 14.4961ZM67.2837 10.124L65.6938 16H64.292L63.1479 11.7676H63.0566L61.918 16H60.5322L58.9424 10.124H60.2852L61.2627 14.5122H61.354L62.4819 10.124H63.7549L64.8936 14.5122H64.9849L65.957 10.124H67.2837ZM68.4492 16V10.124H69.7329V11.064H69.8242C69.9674 10.7274 70.1859 10.4678 70.4795 10.2852C70.7767 10.099 71.1401 10.0059 71.5698 10.0059C72.2215 10.0059 72.721 10.1956 73.0684 10.5752C73.4193 10.9548 73.5947 11.4954 73.5947 12.1973V16H72.2627V12.5142C72.2627 11.6154 71.867 11.166 71.0757 11.166C70.6782 11.166 70.3631 11.2931 70.1304 11.5474C69.8976 11.8016 69.7812 12.1453 69.7812 12.5786V16H68.4492ZM75.2275 16V7.85205H76.5596V16H75.2275ZM80.7812 16.1182C79.9004 16.1182 79.2093 15.8478 78.708 15.3071C78.2067 14.7629 77.9561 14.0145 77.9561 13.062C77.9561 12.1167 78.2085 11.3719 78.7134 10.8276C79.2183 10.2798 79.9076 10.0059 80.7812 10.0059C81.6585 10.0059 82.3478 10.278 82.8491 10.8223C83.354 11.3665 83.6064 12.1131 83.6064 13.062C83.6064 14.0145 83.354 14.7629 82.8491 15.3071C82.3478 15.8478 81.6585 16.1182 80.7812 16.1182ZM79.7017 14.4961C79.9559 14.8327 80.3158 15.001 80.7812 15.001C81.2467 15.001 81.6048 14.8327 81.8555 14.4961C82.1097 14.1559 82.2368 13.6779 82.2368 13.062C82.2368 12.4497 82.1097 11.9735 81.8555 11.6333C81.6012 11.2931 81.2432 11.123 80.7812 11.123C80.3158 11.123 79.9559 11.2931 79.7017 11.6333C79.4474 11.9735 79.3203 12.4497 79.3203 13.062C79.3203 13.6779 79.4474 14.1559 79.7017 14.4961ZM86.958 15.0493C87.359 15.0493 87.6938 14.9347 87.9624 14.7056C88.231 14.4728 88.3652 14.1864 88.3652 13.8462V13.3789L87.0386 13.4648C86.3081 13.5114 85.9429 13.7764 85.9429 14.2598C85.9429 14.5033 86.036 14.6966 86.2222 14.8398C86.4119 14.9795 86.6572 15.0493 86.958 15.0493ZM86.5659 16.0967C85.993 16.0967 85.5257 15.9355 85.1641 15.6133C84.8024 15.291 84.6216 14.8649 84.6216 14.335C84.6216 13.805 84.8132 13.3896 85.1963 13.0889C85.583 12.7881 86.1344 12.6162 86.8506 12.5732L88.3652 12.4819V11.9878C88.3652 11.6978 88.2703 11.4757 88.0806 11.3218C87.8908 11.1678 87.6169 11.0908 87.2588 11.0908C86.9508 11.0908 86.6966 11.1445 86.4961 11.252C86.2956 11.3558 86.1649 11.5062 86.104 11.7031H84.8472C84.9009 11.1839 85.1515 10.7721 85.5991 10.4678C86.0503 10.1598 86.625 10.0059 87.3232 10.0059C88.0752 10.0059 88.6553 10.1795 89.0635 10.5269C89.4753 10.8742 89.6812 11.3612 89.6812 11.9878V16H88.3975V15.1943H88.3062C88.1414 15.4772 87.9051 15.6992 87.5972 15.8604C87.2928 16.0179 86.9491 16.0967 86.5659 16.0967ZM93.4141 16.0967C92.6693 16.0967 92.0802 15.8245 91.647 15.2803C91.2137 14.7324 90.9971 13.9912 90.9971 13.0566C90.9971 12.1292 91.2137 11.3934 91.647 10.8491C92.0838 10.3013 92.6729 10.0273 93.4141 10.0273C93.8151 10.0273 94.1732 10.1187 94.4883 10.3013C94.8034 10.4839 95.0397 10.7363 95.1973 11.0586H95.2886V7.85205H96.6206V16H95.3315V15.0708H95.2402C95.0719 15.3931 94.8267 15.6455 94.5044 15.8281C94.1857 16.0072 93.8223 16.0967 93.4141 16.0967ZM94.9072 11.6709C94.6423 11.3307 94.2824 11.1606 93.8276 11.1606C93.3729 11.1606 93.0148 11.3307 92.7534 11.6709C92.492 12.0075 92.3613 12.4712 92.3613 13.062C92.3613 13.6564 92.4902 14.1219 92.748 14.4585C93.0094 14.7951 93.3693 14.9634 93.8276 14.9634C94.286 14.9634 94.6458 14.7951 94.9072 14.4585C95.1722 14.1183 95.3047 13.6528 95.3047 13.062C95.3047 12.4748 95.1722 12.0111 94.9072 11.6709ZM103.77 16.1182C102.889 16.1182 102.198 15.8478 101.696 15.3071C101.195 14.7629 100.944 14.0145 100.944 13.062C100.944 12.1167 101.197 11.3719 101.702 10.8276C102.207 10.2798 102.896 10.0059 103.77 10.0059C104.647 10.0059 105.336 10.278 105.837 10.8223C106.342 11.3665 106.595 12.1131 106.595 13.062C106.595 14.0145 106.342 14.7629 105.837 15.3071C105.336 15.8478 104.647 16.1182 103.77 16.1182ZM102.69 14.4961C102.944 14.8327 103.304 15.001 103.77 15.001C104.235 15.001 104.593 14.8327 104.844 14.4961C105.098 14.1559 105.225 13.6779 105.225 13.062C105.225 12.4497 105.098 11.9735 104.844 11.6333C104.59 11.2931 104.231 11.123 103.77 11.123C103.304 11.123 102.944 11.2931 102.69 11.6333C102.436 11.9735 102.309 12.4497 102.309 13.062C102.309 13.6779 102.436 14.1559 102.69 14.4961ZM107.938 16V10.124H109.221V11.064H109.312C109.456 10.7274 109.674 10.4678 109.968 10.2852C110.265 10.099 110.628 10.0059 111.058 10.0059C111.71 10.0059 112.209 10.1956 112.557 10.5752C112.908 10.9548 113.083 11.4954 113.083 12.1973V16H111.751V12.5142C111.751 11.6154 111.355 11.166 110.564 11.166C110.167 11.166 109.851 11.2931 109.619 11.5474C109.386 11.8016 109.27 12.1453 109.27 12.5786V16H107.938ZM118.019 8.68457H119.346V10.1616H120.603V11.2251H119.346V14.1094C119.346 14.3994 119.41 14.6125 119.539 14.7485C119.668 14.881 119.872 14.9473 120.151 14.9473C120.273 14.9473 120.424 14.9383 120.603 14.9204V15.9624C120.381 16.0054 120.148 16.0269 119.904 16.0269C119.231 16.0269 118.748 15.9033 118.454 15.6562C118.164 15.4092 118.019 15.001 118.019 14.4316V11.2251H117.09V10.1616H118.019V8.68457ZM121.988 16V7.85205H123.299V11.0747H123.396C123.535 10.7417 123.759 10.4821 124.067 10.2959C124.375 10.1097 124.745 10.0166 125.179 10.0166C125.812 10.0166 126.307 10.2082 126.661 10.5913C127.019 10.9744 127.198 11.5133 127.198 12.208V16H125.866V12.5249C125.866 12.0809 125.766 11.7461 125.565 11.5205C125.365 11.2913 125.071 11.1768 124.685 11.1768C124.255 11.1768 123.92 11.3057 123.68 11.5635C123.44 11.8177 123.32 12.1597 123.32 12.5894V16H121.988ZM131.243 11.064C130.845 11.064 130.518 11.1947 130.26 11.4561C130.002 11.7174 129.859 12.063 129.83 12.4927H132.596C132.582 12.0558 132.453 11.7085 132.209 11.4507C131.966 11.1929 131.644 11.064 131.243 11.064ZM132.607 14.3833H133.869C133.744 14.9204 133.448 15.3447 132.983 15.6562C132.521 15.9642 131.946 16.1182 131.259 16.1182C130.396 16.1182 129.717 15.8496 129.223 15.3125C128.733 14.7718 128.487 14.0288 128.487 13.0835C128.487 12.1382 128.734 11.3898 129.229 10.8384C129.723 10.2834 130.396 10.0059 131.248 10.0059C132.086 10.0059 132.741 10.269 133.214 10.7954C133.69 11.3182 133.928 12.0433 133.928 12.9707V13.4004H129.825V13.4702C129.843 13.9608 129.982 14.3493 130.244 14.6357C130.509 14.9186 130.86 15.0601 131.296 15.0601C131.97 15.0601 132.406 14.8345 132.607 14.3833Z" fill="white"/>
<path d="M28.2686 14.9023C30.5814 14.9023 32.353 15.7967 33.5835 17.5854L33.4468 17.6709C33.3556 17.7393 33.2588 17.8133 33.1562 17.8931C33.0537 17.9614 32.9227 18.064 32.7632 18.2007C32.6151 18.326 32.467 18.4741 32.3188 18.645C32.1707 18.8045 32.0112 18.9868 31.8403 19.1919C31.6808 19.3856 31.5327 19.6134 31.396 19.8755C31.2707 20.1261 31.151 20.3939 31.0371 20.6787C30.9346 20.9521 30.8491 21.2655 30.7808 21.6187C30.7238 21.9718 30.6953 22.3307 30.6953 22.6953C30.6953 23.4473 30.8206 24.1479 31.0713 24.7974C31.3219 25.4354 31.6068 25.9481 31.9258 26.3354C32.2448 26.7228 32.598 27.0646 32.9854 27.3608C33.3727 27.6571 33.6632 27.8564 33.8569 27.959C34.062 28.0615 34.2044 28.1242 34.2842 28.147C34.2614 28.2381 34.193 28.4375 34.0791 28.7451C33.9766 29.0527 33.7715 29.5256 33.4639 30.1636C33.1676 30.8016 32.8315 31.4054 32.4556 31.9751C32.091 32.4992 31.7891 32.915 31.5498 33.2227C31.3105 33.5189 31.0086 33.8493 30.644 34.2139C30.2795 34.5785 29.8978 34.8462 29.499 35.0171C29.1117 35.188 28.7015 35.2734 28.2686 35.2734C27.6761 35.2734 26.9754 35.0968 26.1665 34.7437C25.3576 34.3905 24.5942 34.2139 23.8765 34.2139C23.1473 34.2139 22.3498 34.3962 21.4839 34.7607C20.618 35.1253 19.9287 35.3076 19.416 35.3076C18.6641 35.3076 17.9805 35.0285 17.3652 34.4702C16.7614 33.9119 16.055 33.0575 15.2461 31.9067C14.4258 30.7332 13.7479 29.3433 13.2124 27.7368C12.6883 26.119 12.4263 24.5296 12.4263 22.9688C12.4263 21.7155 12.62 20.5705 13.0073 19.5337C13.3947 18.4969 13.9074 17.6538 14.5454 17.0044C15.1834 16.355 15.9012 15.8537 16.6987 15.5005C17.4963 15.1473 18.3223 14.9707 19.1768 14.9707C19.8148 14.9707 20.618 15.1644 21.5864 15.5518C22.5662 15.9391 23.2157 16.1328 23.5347 16.1328C23.8081 16.1328 24.4746 15.9277 25.5342 15.5176C26.5938 15.1074 27.5052 14.9023 28.2686 14.9023ZM27.3286 12.6978C26.8729 13.2446 26.2975 13.7004 25.6025 14.0649C24.9189 14.4295 24.2752 14.6118 23.6714 14.6118C23.5461 14.6118 23.4264 14.6004 23.3125 14.5776C23.2783 14.4409 23.2612 14.2757 23.2612 14.082C23.2612 13.4326 23.4036 12.7832 23.6885 12.1338C23.9733 11.4844 24.3208 10.9204 24.731 10.4419C25.2209 9.87223 25.8304 9.39941 26.5596 9.02344C27.3001 8.63607 28.0065 8.43099 28.6787 8.4082C28.7129 8.55632 28.73 8.73291 28.73 8.93799C28.73 10.2938 28.2629 11.547 27.3286 12.6978Z" fill="white"/>
</svg>
