<svg width="34" height="42" viewBox="0 0 34 42" fill="none" xmlns="http://www.w3.org/2000/svg">
<path d="M7.55556 27.6818C7.55556 28.209 7.94004 28.6364 8.41414 28.6364H25.5859C26.06 28.6364 26.4444 28.209 26.4444 27.6818C26.4444 27.1547 26.06 26.7273 25.5859 26.7273H8.41414C7.93996 26.7273 7.55556 27.1547 7.55556 27.6818Z" fill="url(#paint0_linear)"/>
<path d="M18.8889 15.2727C18.8889 14.2183 18.0432 13.3636 17 13.3636C15.9568 13.3636 15.1111 14.2183 15.1111 15.2727V17.1818H13.2222C12.179 17.1818 11.3333 18.0365 11.3333 19.0909C11.3333 20.1453 12.179 21 13.2222 21H15.1111V22.9091C15.1111 23.9635 15.9568 24.8182 17 24.8182C18.0432 24.8182 18.8889 23.9635 18.8889 22.9091V21H20.7778C21.821 21 22.6667 20.1453 22.6667 19.0909C22.6667 18.0365 21.821 17.1818 20.7778 17.1818H18.8889V15.2727Z" fill="url(#paint1_linear)"/>
<path d="M8.41414 32.4545H25.5859C26.06 32.4545 26.4444 32.8819 26.4444 33.4091C26.4444 33.9362 26.06 34.3636 25.5859 34.3636H8.41414C7.94004 34.3636 7.55556 33.9362 7.55556 33.4091C7.55556 32.8819 7.94004 32.4545 8.41414 32.4545Z" fill="url(#paint2_linear)"/>
<path fill-rule="evenodd" clip-rule="evenodd" d="M7.55556 3.81818C7.55556 1.70949 9.24693 0 11.3333 0H22.6667C24.7531 0 26.4444 1.70949 26.4444 3.81818V4.77273H30.2222C32.3086 4.77273 34 6.48222 34 8.59091V38.1818C34 40.2905 32.3086 42 30.2222 42H3.77778C1.69137 42 0 40.2905 0 38.1818V8.59091C0 6.48222 1.69137 4.77273 3.77778 4.77273H7.55556V3.81818ZM7.67456 8.59091H3.77778V38.1818H30.2222V8.59091H26.3254C25.9061 10.2377 24.427 11.4545 22.6667 11.4545H11.3333C9.57305 11.4545 8.09395 10.2377 7.67456 8.59091ZM22.6667 3.81818H11.3333V7.63636H22.6667V3.81818Z" fill="url(#paint3_linear)"/>
<defs>
<linearGradient id="paint0_linear" x1="17" y1="0" x2="17" y2="42" gradientUnits="userSpaceOnUse">
<stop stop-color="#F9BC79"/>
<stop offset="1" stop-color="#E07500"/>
</linearGradient>
<linearGradient id="paint1_linear" x1="17" y1="0" x2="17" y2="42" gradientUnits="userSpaceOnUse">
<stop stop-color="#F9BC79"/>
<stop offset="1" stop-color="#E07500"/>
</linearGradient>
<linearGradient id="paint2_linear" x1="17" y1="0" x2="17" y2="42" gradientUnits="userSpaceOnUse">
<stop stop-color="#F9BC79"/>
<stop offset="1" stop-color="#E07500"/>
</linearGradient>
<linearGradient id="paint3_linear" x1="17" y1="0" x2="17" y2="42" gradientUnits="userSpaceOnUse">
<stop stop-color="#F9BC79"/>
<stop offset="1" stop-color="#E07500"/>
</linearGradient>
</defs>
</svg>
