<svg width="36" height="42" viewBox="0 0 36 42" fill="none" xmlns="http://www.w3.org/2000/svg">
<path fill-rule="evenodd" clip-rule="evenodd" d="M10 27.3C8.9 27.3 8 28.245 8 29.4C8 30.555 8.9 31.5 10 31.5C11.1 31.5 12 30.555 12 29.4C12 28.245 11.1 27.3 10 27.3ZM26 27.3H18C16.9 27.3 16 28.245 16 29.4C16 30.555 16.9 31.5 18 31.5H26C27.1 31.5 28 30.555 28 29.4C28 28.245 27.1 27.3 26 27.3ZM30 37.8H6C4.898 37.8 4 36.8571 4 35.7V23.1H32V35.7C32 36.8571 31.102 37.8 30 37.8ZM6 8.4H8V10.5C8 11.655 8.9 12.6 10 12.6C11.1 12.6 12 11.655 12 10.5V8.4H24V10.5C24 11.655 24.9 12.6 26 12.6C27.1 12.6 28 11.655 28 10.5V8.4H30C31.102 8.4 32 9.3429 32 10.5V18.9H4V10.5C4 9.3429 4.898 8.4 6 8.4ZM30 4.2H28V2.1C28 0.945 27.1 0 26 0C24.9 0 24 0.945 24 2.1V4.2H12V2.1C12 0.945 11.1 0 10 0C8.9 0 8 0.945 8 2.1V4.2H6C2.692 4.2 0 7.0266 0 10.5V35.7C0 39.1734 2.692 42 6 42H30C33.308 42 36 39.1734 36 35.7V10.5C36 7.0266 33.308 4.2 30 4.2Z" fill="url(#paint0_linear)"/>
<defs>
<linearGradient id="paint0_linear" x1="18" y1="0" x2="18" y2="42" gradientUnits="userSpaceOnUse">
<stop stop-color="#F9BC79"/>
<stop offset="1" stop-color="#E07500"/>
</linearGradient>
</defs>
</svg>
