<svg width="573" height="525" viewBox="0 0 573 525" fill="none" xmlns="http://www.w3.org/2000/svg">
<path opacity="0.07" d="M572.498 285.783C572.498 379.867 527.035 463.332 456.877 515.404C453.36 518.017 449.779 520.55 446.141 523H127.297C123.659 520.55 120.077 518.017 116.561 515.404C46.4032 463.332 0.939453 379.867 0.939453 285.783C0.939453 127.949 128.885 0 286.719 0C444.553 0 572.498 127.949 572.498 285.783Z" fill="#EF7D00"/>
<g filter="url(#filter0_dd)">
<path d="M393 97.8132H178.37C165.537 97.8132 155.134 108.216 155.134 121.049V482.55C155.134 500.789 169.92 515.575 188.16 515.575H383.21C401.45 515.575 416.236 500.789 416.236 482.55V121.049C416.236 108.216 405.833 97.8132 393 97.8132Z" fill="#222B45"/>
<rect x="237.288" y="111.106" width="96.465" height="4.5574" rx="2.2787" fill="white"/>
<path d="M399.184 129.538V463.74C399.184 468.954 394.957 473.181 389.742 473.181H181.626C176.412 473.181 172.185 468.954 172.185 463.74V129.538H399.184Z" fill="#F7F9FC"/>
<path d="M285.71 373.536C325.457 373.536 357.679 341.229 357.679 301.377C357.679 261.525 325.457 229.218 285.71 229.218C245.962 229.218 213.741 261.525 213.741 301.377C213.741 341.229 245.962 373.536 285.71 373.536Z" fill="#D1E7FA"/>
<path d="M252.696 311.929L285.179 344.866L318.116 312.384C346.715 284.179 314.233 251.242 285.634 279.447C257.835 251.26 224.898 283.742 252.696 311.929Z" fill="#DB4200"/>
<path d="M301.714 302.926L299.54 311.109L296.503 283.907L288.672 302.926H280.809L280.464 304.23L278.635 311.109L277.865 304.23L277.72 302.926L275.598 283.907L267.767 302.926H257.796V304.23H269.317L274.451 291.759L275.699 302.926L275.844 304.23L277.816 321.886L282.511 304.23H290.222L290.76 302.926L295.356 291.759L296.604 302.926L296.75 304.23L298.721 321.886L303.416 304.23H313.625V302.926H301.714Z" fill="white"/>
<path d="M285.685 391.964C273.454 391.964 261.588 389.568 250.417 384.843C239.628 380.28 229.939 373.747 221.618 365.427C213.298 357.106 206.765 347.417 202.202 336.627C197.477 325.457 195.081 313.591 195.081 301.36C195.081 289.129 197.477 277.263 202.202 266.092C206.765 255.303 213.298 245.614 221.618 237.293C229.939 228.973 239.628 222.44 250.417 217.876C261.588 213.152 273.454 210.756 285.685 210.756C297.916 210.756 309.782 213.152 320.953 217.876C331.742 222.44 341.431 228.973 349.752 237.293C358.072 245.614 364.605 255.303 369.168 266.092C373.893 277.263 376.289 289.129 376.289 301.36C376.289 313.591 373.893 325.457 369.168 336.627C364.605 347.417 358.072 357.106 349.752 365.427C341.431 373.747 331.742 380.28 320.953 384.843C309.782 389.568 297.916 391.964 285.685 391.964ZM285.685 213.003C236.965 213.003 197.329 252.64 197.329 301.36C197.329 350.08 236.965 389.716 285.685 389.716C334.405 389.716 374.042 350.08 374.042 301.36C374.042 252.64 334.405 213.003 285.685 213.003Z" fill="#D1E7FA"/>
</g>
<path d="M134.242 120.158H67.3193C61.6398 120.158 57.0356 124.762 57.0356 130.442V232.037C57.0356 237.717 61.6398 242.321 67.3193 242.321H134.242C139.922 242.321 144.526 237.717 144.526 232.037V130.442C144.526 124.762 139.922 120.158 134.242 120.158Z" fill="#00B383"/>
<path d="M100.781 161.925V175.636C112.366 175.636 121.79 185.061 121.79 196.646C121.79 200.857 120.551 204.917 118.206 208.388L129.568 216.063C133.45 210.317 135.502 203.603 135.502 196.646C135.502 177.501 119.926 161.925 100.781 161.925Z" fill="#C5CEE0"/>
<path d="M118.206 208.388C114.286 214.191 107.772 217.655 100.781 217.655C94.7218 217.655 88.9561 215.037 84.9616 210.472L74.6426 219.501C81.2409 227.042 90.7677 231.367 100.781 231.367C112.333 231.367 123.094 225.646 129.568 216.063L118.206 208.388Z" fill="#E4E9F2"/>
<path d="M100.78 161.925C81.6352 161.925 66.0596 177.501 66.0596 196.646C66.0596 205.059 69.1075 213.176 74.6421 219.501L84.9611 210.472C81.6143 206.647 79.7709 201.737 79.7709 196.646C79.7709 185.061 89.1957 175.636 100.78 175.636V161.925H100.78Z" fill="white"/>
<path d="M119.028 131.994H82.4833C80.0948 131.994 78.1587 133.439 78.1587 135.222C78.1587 137.005 80.0948 138.45 82.4833 138.45H119.028C121.417 138.45 123.353 137.005 123.353 135.222C123.353 133.439 121.417 131.994 119.028 131.994Z" fill="white"/>
<path d="M456.313 515.406H432.409C432.427 514.588 432.587 513.801 433.081 513.166C433.647 512.432 434.567 512.048 435.477 511.891C436.39 511.734 437.326 511.776 438.251 511.73C440.519 511.619 442.759 510.97 444.736 509.851C445.769 509.272 446.736 508.559 447.851 508.152L454.366 508.323C455.257 509.284 455.83 510.543 456.107 511.836C456.358 513.007 456.386 514.21 456.313 515.406Z" fill="#222B45"/>
<path d="M502.858 515.406H478.954C478.972 514.588 479.132 513.801 479.626 513.166C480.192 512.432 481.112 512.048 482.022 511.891C482.936 511.734 483.872 511.776 484.797 511.73C487.064 511.619 489.305 510.97 491.282 509.851C492.314 509.272 493.281 508.559 494.396 508.152L500.911 508.323C501.802 509.284 502.376 510.543 502.652 511.836C502.903 513.007 502.931 514.21 502.858 515.406Z" fill="#222B45"/>
<path d="M446.582 508.209L449.178 434.544C449.178 434.544 449.267 433.222 449.3 433.023L455.668 381.895C456.104 375.481 507.08 385.655 507.08 385.655L501.369 508.422L492.939 508.152L481.048 407.904L466.766 436.182L455.209 508.422L446.582 508.209Z" fill="#2E3A59"/>
<path d="M434.254 318.524L439.918 338.48H441.938L436.278 318.524H434.254Z" fill="#3B7AA5"/>
<path d="M422.926 318.524L428.59 338.48H439.917L434.254 318.524H422.926Z" fill="#222B45"/>
<path d="M431.62 329.481C433.011 329.486 434.162 330.27 434.263 331.262C434.611 334.201 435.109 337.107 435.927 339.761C436.131 340.423 436.355 341.065 436.598 341.682C436.66 341.854 436.713 341.958 436.767 342.075L436.929 342.42C437.039 342.634 437.144 342.821 437.255 343.015C437.71 343.769 438.228 344.439 438.878 344.914C439.519 345.392 440.317 345.644 441.099 345.54C441.88 345.438 442.584 345.061 443.147 344.61C443.433 344.388 443.687 344.141 443.918 343.895C444.032 343.767 444.141 343.65 444.25 343.514L444.41 343.318L444.705 342.99C445.523 342.086 446.32 341.062 447.081 339.973C447.842 338.882 448.568 337.727 449.264 336.535C449.956 335.335 450.616 334.097 451.252 332.838C452.512 330.304 453.67 327.681 454.728 324.991C456.853 319.615 458.632 314.031 460.175 308.363C460.713 306.582 462.21 305.311 464.196 304.666C466.176 304.023 468.659 304.014 471.13 304.848C473.602 305.682 475.556 307.208 476.691 309.019C477.823 310.825 478.12 312.914 477.301 314.776C474.55 320.569 471.544 326.272 468.119 331.809C466.41 334.578 464.577 337.301 462.597 339.959C460.601 342.614 458.461 345.208 455.984 347.663C454.745 348.889 453.422 350.081 451.946 351.203L451.378 351.631L450.646 352.157C450.163 352.507 449.638 352.812 449.134 353.133C448.885 353.3 448.615 353.425 448.356 353.57C448.093 353.707 447.84 353.862 447.572 353.981C447.036 354.218 446.511 354.477 445.965 354.662C445.427 354.872 444.876 355.02 444.33 355.169C443.777 355.29 443.228 355.411 442.672 355.464C441.565 355.589 440.451 355.576 439.367 355.38C437.184 355.011 435.204 353.842 433.714 352.271C432.205 350.698 431.16 348.715 430.426 346.67C430.253 346.156 430.09 345.627 429.941 345.122L429.753 344.375C429.692 344.127 429.627 343.868 429.594 343.669C429.424 342.812 429.292 341.966 429.192 341.128C428.793 337.779 428.837 334.556 429.023 331.382C429.087 330.306 430.234 329.476 431.62 329.481V329.481V329.481Z" fill="#FFC6BA"/>
<path d="M473.093 338.117L480.776 317.351C483.1 311.07 480.395 304.076 474.114 301.752C467.832 299.428 460.354 302.654 458.03 308.935L450.347 329.701L473.093 338.117Z" fill="#FFAA00"/>
<path d="M485.896 298.686H485.896C472.94 296.714 461.069 306.246 460.197 319.323L455.667 381.895C475.845 393.283 488.372 390.539 507.079 385.655L509.195 326.806C509.695 312.876 499.676 300.784 485.896 298.686Z" fill="#FFC94D"/>
<path d="M491.115 401.325C492.748 397.958 494.352 394.586 495.865 391.206C497.379 387.828 498.818 384.441 500.045 381.054C501.271 377.668 502.271 374.283 502.86 370.956C503.453 367.627 503.625 364.374 503.351 361.169C503.048 357.96 502.314 354.773 501.273 351.562C500.233 348.354 498.896 345.132 497.413 341.908C497.031 341.1 496.678 340.297 496.274 339.489L495.088 337.069C494.259 335.452 493.449 333.841 492.582 332.224C490.883 328.996 489.093 325.762 487.289 322.527C485.092 318.377 487.131 313.015 491.842 310.764C496.544 308.516 502.029 310.319 503.859 314.792C505.215 318.349 506.562 321.92 507.849 325.562C508.502 327.369 509.119 329.221 509.744 331.057L510.643 333.855C510.947 334.781 511.216 335.745 511.503 336.687C512.617 340.486 513.618 344.397 514.309 348.479C514.998 352.553 515.353 356.823 515.116 361.111C514.857 365.401 513.974 369.625 512.66 373.538C511.349 377.461 509.647 381.093 507.802 384.537C505.953 387.982 503.955 391.258 501.913 394.472C499.871 397.686 497.771 400.828 495.654 403.946C494.945 405.005 493.457 405.285 492.257 404.586H492.257C491.057 403.887 490.556 402.458 491.115 401.325Z" fill="#FFC6BA"/>
<path d="M517.04 334.457L508.068 314.215C505.354 308.092 498.538 304.965 492.415 307.679C486.292 310.393 483.18 317.92 485.894 324.043L494.867 344.285L517.04 334.457Z" fill="#FFAA00"/>
<path d="M477.251 292.155L479.258 307.953C482.972 309.746 486.404 309.311 489.552 306.646L487.545 290.847L477.251 292.155Z" fill="#FFC6BA"/>
<path d="M477.251 292.155L478.159 299.301C478.916 299.489 479.713 299.57 480.531 299.537C480.792 299.524 481.053 299.502 481.312 299.469C484.146 299.109 486.64 297.458 488.084 295.087L487.545 290.847L477.251 292.155Z" fill="#FFB7A8"/>
<path d="M471.346 283.086L472.436 289.655L472.877 292.314C473.485 296.002 476.752 298.652 480.485 298.493C481.721 298.439 482.903 298.116 483.955 297.568C484.199 297.441 484.437 297.302 484.665 297.153C484.808 297.061 484.947 296.966 485.083 296.864C486.389 295.892 487.406 294.538 487.945 292.929C488.401 291.572 488.804 290.089 489.171 288.53C489.384 287.64 489.583 286.724 489.774 285.795C490.623 281.701 489.209 277.404 485.961 274.771C483.195 272.524 480.023 272.121 476.42 273.696C472.775 275.287 470.696 279.166 471.346 283.086Z" fill="#FFC6BA"/>
<path d="M469.278 285.09C468.515 284.488 468.343 283.255 468.363 282.209C468.383 281.163 468.496 280.044 468.034 279.104C467.444 277.905 466.066 277.338 465.715 276.031C465.372 274.753 466.216 273.617 466.992 272.773C469.057 270.526 471.123 268.279 473.188 266.033C474.034 265.112 474.902 264.176 475.977 263.663C477.052 263.151 478.393 263.13 479.417 263.973C479.953 264.415 480.368 265.059 480.92 265.469C482.169 266.397 483.686 265.889 485.033 265.503C486.695 265.026 488.517 264.801 490.18 265.622C491.842 266.443 493.233 268.597 492.918 270.616C492.769 271.572 492.279 272.36 491.909 273.205C491.54 274.051 491.289 275.088 491.636 276.021C492.103 277.274 493.37 277.734 494.357 278.449C495.749 279.455 496.754 281.256 496.97 283.13C497.186 285.005 496.607 286.904 495.466 288.068C494.477 289.078 492.774 289.419 491.802 288.185C490.693 286.776 491.082 284.077 489.644 283.231C487.916 282.214 486.21 285.496 484.497 284.437C483.581 283.87 483.336 282.384 482.526 281.605C481.458 280.577 480.051 281.164 478.983 281.572C477.828 282.014 476.716 282.258 475.511 282.481C474.408 282.685 473.567 283.193 472.682 283.948C471.77 284.726 470.539 286.016 469.278 285.09Z" fill="#222B45"/>
<path d="M484.68 286.273C484.921 288.168 486.843 289.486 488.973 289.215C491.103 288.945 492.635 287.189 492.394 285.293C492.153 283.397 490.231 282.08 488.101 282.351C485.971 282.621 484.439 284.377 484.68 286.273Z" fill="#FFC6BA"/>
<path d="M571.557 515.404H1.88135V523H571.557V515.404Z" fill="#EDF1F7"/>
<path opacity="0.11" d="M451.544 228.702H337.207C335.123 228.702 333.42 230.983 333.42 233.806V258.103C333.42 260.913 335.112 263.207 337.207 263.207H417.941L423.223 271.997L429.434 263.207H451.544C453.629 263.207 455.331 260.927 455.331 258.103V233.806C455.331 230.983 453.639 228.702 451.544 228.702Z" fill="#2A229E"/>
<path d="M451.544 223.765H337.207C335.123 223.765 333.42 226.146 333.42 229.093V254.456C333.42 257.388 335.112 259.784 337.207 259.784H417.941L423.223 268.959L429.434 259.784H451.544C453.629 259.784 455.331 257.403 455.331 254.456V229.093C455.331 226.146 453.639 223.765 451.544 223.765Z" fill="white"/>
<path d="M346.333 234.399H442.418V231.361H346.333V234.399Z" fill="#C5CEE0"/>
<path d="M346.333 240.475H442.418V237.437H346.333V240.475Z" fill="#C5CEE0"/>
<path d="M346.333 246.552H442.418V243.513H346.333V246.552Z" fill="#C5CEE0"/>
<path d="M346.333 252.628H380.134V249.59H346.333V252.628Z" fill="#C5CEE0"/>
<path opacity="0.11" d="M363.594 172.761H477.932C480.016 172.761 481.718 175.042 481.718 177.865V202.162C481.718 204.971 480.026 207.266 477.932 207.266H397.198L391.916 216.056L385.704 207.266H363.594C361.51 207.266 359.808 204.985 359.808 202.162V177.865C359.808 175.042 361.5 172.761 363.594 172.761Z" fill="#2A229E"/>
<path d="M363.594 167.823H477.932C480.016 167.823 481.718 170.204 481.718 173.152V198.514C481.718 201.447 480.026 203.842 477.932 203.842H397.198L391.916 213.018L385.704 203.842H363.594C361.51 203.842 359.808 201.461 359.808 198.514V173.152C359.808 170.204 361.5 167.823 363.594 167.823Z" fill="white"/>
<path d="M468.805 178.457H372.72V175.419H468.805V178.457Z" fill="#C5CEE0"/>
<path d="M468.805 184.534H372.72V181.496H468.805V184.534Z" fill="#C5CEE0"/>
<path d="M468.805 190.61H372.72V187.572H468.805V190.61Z" fill="#C5CEE0"/>
<path d="M406.521 196.687H372.72V193.649H406.521V196.687Z" fill="#C5CEE0"/>
<path d="M217.133 337.368H60.5623C58.5429 337.368 56.8906 335.716 56.8906 333.696V257.196C56.8906 255.177 58.5429 253.524 60.5623 253.524H217.133C219.152 253.524 220.804 255.177 220.804 257.196V333.696C220.804 335.716 219.152 337.368 217.133 337.368Z" fill="#EF7D00"/>
<path d="M98.5882 318.683C111.421 318.683 121.825 308.279 121.825 295.446C121.825 282.613 111.421 272.21 98.5882 272.21C85.755 272.21 75.3516 282.613 75.3516 295.446C75.3516 308.279 85.755 318.683 98.5882 318.683Z" fill="white"/>
<path d="M98.5891 296.499C92.9809 296.499 88.4346 301.045 88.4346 306.653V310.038H108.743V306.653C108.743 301.045 104.197 296.499 98.5891 296.499Z" fill="#EF7D00"/>
<path d="M98.589 294.467C102.493 294.467 105.657 291.302 105.657 287.398C105.657 283.495 102.493 280.33 98.589 280.33C94.6852 280.33 91.5205 283.495 91.5205 287.398C91.5205 291.302 94.6852 294.467 98.589 294.467Z" fill="#EF7D00"/>
<path d="M202.344 291.883H137.365V296.499H202.344V291.883Z" fill="white"/>
<path d="M202.344 307.73H137.365V312.346H202.344V307.73Z" fill="white"/>
<defs>
<filter id="filter0_dd" x="149.134" y="94.8132" width="273.101" height="429.762" filterUnits="userSpaceOnUse" color-interpolation-filters="sRGB">
<feFlood flood-opacity="0" result="BackgroundImageFix"/>
<feColorMatrix in="SourceAlpha" type="matrix" values="0 0 0 0 0 0 0 0 0 0 0 0 0 0 0 0 0 0 127 0"/>
<feOffset dy="3"/>
<feGaussianBlur stdDeviation="3"/>
<feColorMatrix type="matrix" values="0 0 0 0 0.262745 0 0 0 0 0.352941 0 0 0 0 0.435294 0 0 0 0.301 0"/>
<feBlend mode="normal" in2="BackgroundImageFix" result="effect1_dropShadow"/>
<feColorMatrix in="SourceAlpha" type="matrix" values="0 0 0 0 0 0 0 0 0 0 0 0 0 0 0 0 0 0 127 0"/>
<feOffset/>
<feGaussianBlur stdDeviation="0.5"/>
<feColorMatrix type="matrix" values="0 0 0 0 0.262745 0 0 0 0 0.352941 0 0 0 0 0.435294 0 0 0 0.47 0"/>
<feBlend mode="normal" in2="effect1_dropShadow" result="effect2_dropShadow"/>
<feBlend mode="normal" in="SourceGraphic" in2="effect2_dropShadow" result="shape"/>
</filter>
</defs>
</svg>
