<svg width="511" height="498" viewBox="0 0 511 498" fill="none" xmlns="http://www.w3.org/2000/svg">
<g opacity="0.25">
<path opacity="0.25" d="M510.22 99.6871L501.32 88.1571C493.87 93.8971 484.49 98.2671 474.81 101.637L372.12 71.6371C366.74 63.3571 362.21 54.5371 359.86 45.7971L345.79 49.5671C352.91 76.1171 375.99 101.987 389.74 115.587C362.48 120.717 325.04 133.997 309.81 168.397C291.68 209.397 326.16 249.007 348.04 268.787C303.21 272.607 270.86 293.447 259.06 326.397C248.64 355.507 257.34 388.767 281.22 411.127C284.57 414.267 287.76 417.427 290.86 420.587C255.29 429.417 232.02 440.757 230.67 441.427L237.13 454.487C237.29 454.407 243.35 451.467 253.77 447.477L330.52 468.987C341.84 485.587 347.63 497.077 347.74 497.307L360.79 490.837C360.38 489.997 355.78 480.827 346.9 467.167L347.2 466.087L345.94 465.737C339.22 455.507 330.18 442.977 318.81 429.597C326.31 428.287 334.13 427.157 342.26 426.337C352.68 425.277 362.54 422.397 371.44 417.987C390.34 408.637 404.9 392.437 411.27 372.407C420.9 342.097 410.99 309.437 384.1 281.047C413.78 276.777 454.3 263.907 463.45 225.767C467.3 209.707 465.25 194.307 460.2 180.317L460.82 178.227L459.26 177.767C450.77 156.077 435.28 138.047 423.78 126.757C434.96 125.877 482.52 121.037 510.22 99.6871ZM341.97 150.867L444.67 181.047C448.92 191.127 451.5 201.967 450.69 213.167L322.87 175.017C322.97 174.777 323.04 174.537 323.15 174.297C327.43 164.617 334.13 156.997 341.97 150.867ZM323.82 459.527L265.6 443.207C275.73 439.757 288.17 436.067 302.34 432.877C310.65 442.207 317.79 451.257 323.82 459.527ZM340.81 411.817C329.05 413.007 317.89 414.767 307.5 416.837C302.43 411.407 296.99 405.927 291.18 400.487C280.89 390.847 274.11 378.787 271.11 366.107L376.99 397.227C367.01 405.187 354.52 410.437 340.81 411.817ZM397.4 367.977C394.57 376.887 389.7 384.857 383.33 391.507L269.68 358.107C268.73 349.107 269.68 339.977 272.78 331.317C276.12 321.977 281.61 313.817 288.89 306.967L399.46 339.467C400.96 349.107 400.34 358.717 397.4 367.977ZM397.69 331.337L295.61 301.337C309.78 290.967 329.02 284.587 352.01 283.047C353.55 283.097 358.34 283.187 365.1 282.857C381.97 297.997 393.01 314.627 397.69 331.337ZM369.73 267.887C361.52 261.577 336.13 240.667 324.87 215.457L432.68 247.647C414.8 261.917 387.49 266.467 369.73 267.887ZM438.86 241.877L321.7 206.897C319.29 198.777 318.61 190.357 320.61 181.947L449.57 220.447C449.44 221.077 449.43 221.707 449.28 222.347C447.43 230.077 443.74 236.517 438.86 241.877ZM349.67 145.547C367.5 134.677 388.96 130.117 403.76 128.257C411.2 134.567 428.95 151.017 440.44 172.227L349.67 145.547ZM408.24 113.017C404.4 109.597 390.91 97.1471 378.83 81.1971L462.07 105.507C440.61 111.137 421.04 112.347 420.98 112.347C420.2 112.357 415.42 112.377 408.24 113.017Z" fill="white"/>
<path opacity="0.25" d="M274.499 327.347L272.448 334.332L396.118 370.64L398.169 363.655L274.499 327.347Z" fill="white"/>
</g>
<path opacity="0.25" d="M261.16 135.347C262.01 137.077 261.31 139.167 259.58 140.017C257.85 140.867 255.76 140.167 254.91 138.437C254.06 136.707 254.76 134.617 256.49 133.767C258.21 132.907 260.3 133.617 261.16 135.347Z" fill="white"/>
<path opacity="0.25" d="M178.62 151.377C180.61 155.407 178.96 160.287 174.93 162.287C170.9 164.277 166.02 162.627 164.02 158.607C162.03 154.577 163.68 149.697 167.7 147.697C171.74 145.697 176.63 147.347 178.62 151.377Z" fill="white"/>
<path opacity="0.25" d="M455.12 270.317C457.11 274.347 455.46 279.227 451.44 281.227C447.41 283.217 442.53 281.567 440.53 277.537C438.54 273.507 440.19 268.627 444.22 266.627C448.24 264.637 453.12 266.287 455.12 270.317Z" fill="white"/>
<path opacity="0.25" d="M167.47 90.567C169.18 94.017 167.77 98.207 164.31 99.917C160.86 101.627 156.67 100.217 154.96 96.757C153.25 93.307 154.67 89.117 158.12 87.407C161.58 85.697 165.76 87.117 167.47 90.567Z" fill="white"/>
<path opacity="0.25" d="M394.91 368.887C396.05 371.187 395.11 373.977 392.8 375.117C390.5 376.257 387.71 375.317 386.57 373.007C385.43 370.707 386.37 367.917 388.68 366.777C390.98 365.637 393.77 366.577 394.91 368.887Z" fill="white"/>
<path opacity="0.25" d="M488.364 135.707C493.226 134.051 495.825 128.766 494.169 123.904C492.512 119.043 487.228 116.444 482.366 118.1C477.504 119.757 474.905 125.041 476.562 129.903C478.218 134.765 483.502 137.364 488.364 135.707Z" fill="white"/>
<path opacity="0.25" d="M246.58 70.6971C247.72 72.9971 246.78 75.7871 244.47 76.9271C242.17 78.0671 239.38 77.1271 238.24 74.8171C237.1 72.5171 238.04 69.7271 240.35 68.5871C242.65 67.4471 245.44 68.3871 246.58 70.6971Z" fill="white"/>
<path d="M286.15 410.877C287.29 413.177 286.35 415.967 284.04 417.107C281.74 418.247 278.95 417.307 277.81 414.997C276.67 412.697 277.61 409.907 279.92 408.767C282.23 407.637 285.02 408.577 286.15 410.877Z" fill="white"/>
<path opacity="0.25" d="M268.43 315.227C269.28 316.957 268.58 319.047 266.85 319.897C265.12 320.747 263.03 320.047 262.18 318.317C261.33 316.587 262.03 314.497 263.76 313.647C265.49 312.797 267.58 313.507 268.43 315.227Z" fill="white"/>
<path opacity="0.25" d="M449.66 206.847C450.8 209.147 449.86 211.937 447.55 213.077C445.25 214.217 442.46 213.277 441.32 210.967C440.18 208.667 441.12 205.877 443.43 204.737C445.73 203.597 448.52 204.537 449.66 206.847Z" fill="white"/>
<path opacity="0.25" d="M419.04 318.017C420.75 321.467 419.34 325.657 415.88 327.367C412.43 329.077 408.24 327.667 406.53 324.207C404.82 320.757 406.24 316.567 409.69 314.857C413.14 313.147 417.33 314.557 419.04 318.017Z" fill="white"/>
<path opacity="0.25" d="M499.09 327.707C500.23 330.007 499.29 332.797 496.98 333.937C494.68 335.077 491.89 334.137 490.75 331.827C489.61 329.527 490.55 326.737 492.86 325.597C495.16 324.457 497.95 325.397 499.09 327.707Z" fill="white"/>
<g opacity="0.25">
<path opacity="0.25" d="M72.15 172.017L64.61 172.067C64.64 176.927 63.5 182.157 61.86 187.207L17.34 220.087C12.24 219.707 7.19 218.807 2.86 217.037L0 224.007C13.16 229.387 31.04 227.997 40.95 226.597C34.52 239.427 28.26 258.997 37.65 276.047C48.85 296.357 75.96 294.567 90.95 291.757C78.48 311.407 76.92 331.257 86.79 346.437C95.51 359.847 111.93 366.687 128.61 363.857C130.95 363.457 133.25 363.137 135.52 362.847C128.01 380.257 125.39 393.387 125.24 394.157L132.64 395.587C132.66 395.497 133.34 392.077 134.97 386.537L167.87 361.677C178.25 362.217 184.79 363.437 184.92 363.457L186.35 356.057C185.88 355.967 180.66 354.977 172.25 354.357L171.9 353.897L171.36 354.307C165.04 353.867 157.05 353.667 147.98 354.157C149.79 350.657 151.77 347.087 153.98 343.477C156.81 338.857 158.71 333.897 159.69 328.847C161.76 318.137 159.65 307.067 153.4 298.177C143.94 284.717 127.39 278.567 107.28 280.737C114.82 267.177 122.22 246.467 109.38 230.757C103.98 224.147 96.99 220.157 89.66 217.857L88.99 216.947L88.31 217.447C76.72 214.147 64.45 214.877 56.2 216.067C59.36 211.197 72.26 190.107 72.15 172.017ZM40.51 257.307L85.11 224.487C90.59 225.897 95.86 228.227 100.22 232.077L44.47 272.737C44.4 272.617 44.32 272.517 44.26 272.397C41.62 267.597 40.58 262.457 40.51 257.307ZM161.89 361.477L136.93 380.327C138.69 375.077 141.06 368.797 144.19 361.967C150.63 361.477 156.59 361.367 161.89 361.477ZM147.57 339.537C144.38 344.747 141.6 349.897 139.2 354.817C135.38 355.207 131.42 355.727 127.36 356.417C120.17 357.637 113.08 356.647 106.92 353.907L152.9 320.067C153.05 326.677 151.3 333.457 147.57 339.537ZM147.25 302.507C150.03 306.467 151.79 310.967 152.53 315.667L103.18 351.987C99.18 349.557 95.72 346.307 93.12 342.317C90.32 338.017 88.69 333.197 88.14 328.057L136.15 292.717C140.6 295.127 144.36 298.397 147.25 302.507ZM132.26 290.907L87.93 323.527C88.1 314.447 91.5 304.527 98.07 294.577C98.57 293.957 100.11 292.017 102.09 289.127C113.61 286.937 123.92 287.597 132.26 290.907ZM97.38 282.537C92.21 283.947 75.65 287.837 61.75 284.577L108.78 250.277C109.04 262.117 102.36 274.787 97.38 282.537ZM108.33 245.937L57.23 283.207C53.13 281.657 49.45 279.297 46.62 275.837L102.87 234.807C103.09 235.057 103.34 235.257 103.56 235.517C106.16 238.707 107.65 242.247 108.33 245.937ZM40.73 252.467C41.84 241.717 46.69 231.457 50.56 224.787C55.49 223.707 67.82 221.547 80.15 223.457L40.73 252.467ZM45.69 218.167C43.08 218.677 33.73 220.327 23.38 220.307L59.47 193.657C55.07 204.257 49.43 212.687 49.41 212.717C49.16 213.037 47.68 215.007 45.69 218.167Z" fill="white"/>
<path opacity="0.25" d="M145.711 300.855L92.0132 340.389L94.2484 343.425L147.946 303.891L145.711 300.855Z" fill="white"/>
</g>
<path d="M94.7001 395.247C97.9801 395.877 100.13 399.057 99.5001 402.337C98.8701 405.617 95.6901 407.767 92.4101 407.137C89.1301 406.507 86.9801 403.327 87.6101 400.047C88.2401 396.757 91.4201 394.607 94.7001 395.247Z" fill="white"/>
<path opacity="0.25" d="M159.71 242.617C162.99 243.247 165.14 246.427 164.51 249.707C163.88 252.987 160.7 255.137 157.42 254.507C154.14 253.877 151.99 250.697 152.62 247.417C153.25 244.127 156.43 241.987 159.71 242.617Z" fill="white"/>
<path opacity="0.25" d="M26.1199 336.617C28.9299 337.157 30.7699 339.887 30.2299 342.697C29.6899 345.507 26.9599 347.347 24.1499 346.807C21.3399 346.267 19.4999 343.537 20.0399 340.727C20.5899 337.917 23.3099 336.077 26.1199 336.617Z" fill="white"/>
<path opacity="0.25" d="M190.93 322.657C192.81 323.017 194.03 324.837 193.67 326.707C193.31 328.587 191.49 329.807 189.62 329.447C187.74 329.087 186.52 327.267 186.88 325.397C187.24 323.527 189.05 322.297 190.93 322.657Z" fill="white"/>
<path opacity="0.25" d="M95.3345 160.666C95.6418 156.856 92.8026 153.519 88.993 153.212C85.1834 152.904 81.8461 155.743 81.5388 159.553C81.2315 163.363 84.0707 166.7 87.8803 167.007C91.6899 167.315 95.0272 164.475 95.3345 160.666Z" fill="white"/>
<path opacity="0.25" d="M46.7199 321.217C48.5999 321.577 49.8199 323.397 49.4599 325.267C49.0999 327.147 47.2799 328.367 45.4099 328.007C43.5299 327.647 42.3099 325.827 42.6699 323.957C43.0299 322.077 44.8499 320.857 46.7199 321.217Z" fill="white"/>
<path d="M166.8 405.947C168.68 406.307 169.9 408.127 169.54 409.997C169.18 411.877 167.36 413.097 165.49 412.737C163.61 412.377 162.39 410.557 162.75 408.687C163.11 406.817 164.92 405.587 166.8 405.947Z" fill="white"/>
<path opacity="0.25" d="M102.2 373.357C103.61 373.627 104.53 374.987 104.26 376.397C103.99 377.807 102.63 378.727 101.22 378.457C99.8098 378.187 98.8898 376.827 99.1598 375.417C99.4298 373.997 100.79 373.077 102.2 373.357Z" fill="white"/>
<path opacity="0.25" d="M119.68 217.257C121.56 217.617 122.78 219.437 122.42 221.307C122.06 223.187 120.24 224.407 118.37 224.047C116.49 223.687 115.27 221.867 115.63 219.997C115.99 218.127 117.8 216.897 119.68 217.257Z" fill="white"/>
<path opacity="0.25" d="M171.69 285.467C174.5 286.007 176.35 288.737 175.8 291.547C175.26 294.357 172.53 296.197 169.72 295.657C166.91 295.117 165.07 292.387 165.61 289.577C166.15 286.757 168.88 284.917 171.69 285.467Z" fill="white"/>
<path opacity="0.25" d="M213.49 242.447C215.37 242.807 216.59 244.627 216.23 246.497C215.87 248.377 214.05 249.597 212.18 249.237C210.3 248.877 209.08 247.057 209.44 245.187C209.8 243.307 211.61 242.077 213.49 242.447Z" fill="white"/>
<path opacity="0.2" d="M171.35 105.397C192.961 105.397 210.48 87.8781 210.48 66.2672C210.48 44.6563 192.961 27.1372 171.35 27.1372C149.739 27.1372 132.22 44.6563 132.22 66.2672C132.22 87.8781 149.739 105.397 171.35 105.397Z" fill="white"/>
<path opacity="0.43" d="M204.48 99.4042C222.78 81.1044 222.78 51.4346 204.48 33.1348C186.18 14.835 156.51 14.835 138.21 33.1348C119.911 51.4346 119.911 81.1044 138.21 99.4042C156.51 117.704 186.18 117.704 204.48 99.4042Z" fill="white"/>
<path d="M171.35 105.837C149.53 105.837 131.78 88.0873 131.78 66.2673C131.78 44.4473 149.53 26.6973 171.35 26.6973C193.17 26.6973 210.92 44.4473 210.92 66.2673C210.92 88.0873 193.17 105.837 171.35 105.837ZM171.35 27.5673C150.01 27.5673 132.65 44.9273 132.65 66.2673C132.65 87.6073 150.01 104.967 171.35 104.967C192.69 104.967 210.05 87.6073 210.05 66.2673C210.05 44.9273 192.69 27.5673 171.35 27.5673Z" fill="#2A229E"/>
<path opacity="0.2" d="M348.17 122.577C371.311 122.577 390.07 103.818 390.07 80.6773C390.07 57.5366 371.311 38.7773 348.17 38.7773C325.029 38.7773 306.27 57.5366 306.27 80.6773C306.27 103.818 325.029 122.577 348.17 122.577Z" fill="white"/>
<path opacity="0.43" d="M348.17 130.847C375.878 130.847 398.34 108.385 398.34 80.6773C398.34 52.9692 375.878 30.5073 348.17 30.5073C320.462 30.5073 298 52.9692 298 80.6773C298 108.385 320.462 130.847 348.17 130.847Z" fill="white"/>
<path d="M348.17 123.037C324.81 123.037 305.81 104.037 305.81 80.6771C305.81 57.3171 324.81 38.3171 348.17 38.3171C371.53 38.3171 390.53 57.3171 390.53 80.6771C390.53 104.037 371.53 123.037 348.17 123.037ZM348.17 39.2471C325.32 39.2471 306.73 57.8371 306.73 80.6871C306.73 103.537 325.32 122.127 348.17 122.127C371.02 122.127 389.6 103.537 389.6 80.6871C389.6 57.8371 371.02 39.2471 348.17 39.2471Z" fill="#2A229E"/>
<path d="M179.09 80.0473C183.22 82.7873 188.8 81.6573 191.54 77.5173C194.28 73.3873 193.15 67.8073 189.01 65.0673L176.85 57.0173L166.93 71.9873L179.09 80.0473Z" fill="#13A538"/>
<path d="M174.98 55.7772L162.81 47.7172C158.68 44.9772 153.1 46.1072 150.36 50.2472C147.62 54.3772 148.75 59.9572 152.89 62.6972L165.05 70.7572L174.98 55.7772ZM157.84 49.1272C158.35 48.3472 159.4 48.1372 160.17 48.6572C160.95 49.1672 161.16 50.2172 160.64 50.9872C160.13 51.7672 159.08 51.9772 158.31 51.4572C157.54 50.9472 157.32 49.9072 157.84 49.1272ZM167.51 56.8872C168.02 56.1172 169.07 55.8972 169.84 56.4172C170.61 56.9272 170.83 57.9772 170.31 58.7472C169.8 59.5272 168.75 59.7372 167.98 59.2172C167.21 58.7072 167 57.6572 167.51 56.8872ZM160.04 55.9672C160.55 55.1872 161.6 54.9772 162.37 55.4972C163.14 56.0072 163.36 57.0572 162.84 57.8272C162.33 58.6072 161.28 58.8172 160.51 58.2972C159.73 57.7872 159.52 56.7472 160.04 55.9672ZM151.94 55.9972C152.45 55.2172 153.5 55.0072 154.27 55.5272C155.05 56.0372 155.26 57.0872 154.74 57.8572C154.23 58.6372 153.18 58.8472 152.41 58.3272C151.64 57.8172 151.43 56.7672 151.94 55.9972ZM161.3 62.1972C161.81 61.4272 162.86 61.2072 163.63 61.7272C164.41 62.2372 164.62 63.2872 164.1 64.0572C163.59 64.8272 162.54 65.0472 161.77 64.5272C161 64.0172 160.79 62.9672 161.3 62.1972Z" fill="#13A538"/>
<path opacity="0.2" d="M84.0299 387.527C103.857 387.527 119.93 371.454 119.93 351.627C119.93 331.8 103.857 315.727 84.0299 315.727C64.2029 315.727 48.1299 331.8 48.1299 351.627C48.1299 371.454 64.2029 387.527 84.0299 387.527Z" fill="white"/>
<path opacity="0.43" d="M84.03 394.617C107.773 394.617 127.02 375.37 127.02 351.627C127.02 327.884 107.773 308.637 84.03 308.637C60.2873 308.637 41.04 327.884 41.04 351.627C41.04 375.37 60.2873 394.617 84.03 394.617Z" fill="white"/>
<path d="M84.03 387.927C64.01 387.927 47.73 371.647 47.73 351.627C47.73 331.617 64.01 315.327 84.03 315.327C104.04 315.327 120.33 331.607 120.33 351.627C120.33 371.637 104.04 387.927 84.03 387.927ZM84.03 316.117C64.45 316.117 48.52 332.047 48.52 351.627C48.52 371.207 64.45 387.127 84.03 387.127C103.61 387.127 119.53 371.197 119.53 351.627C119.53 332.047 103.61 316.117 84.03 316.117Z" fill="#2A229E"/>
<path d="M63.3901 369.317L69.2401 364.237L69.6701 364.797L63.3901 369.317Z" fill="#13A538"/>
<path d="M86.5903 357.087L85.0103 358.277L79.5003 350.977L80.4103 350.287L89.0403 343.767L94.5503 351.067L87.0803 356.717L87.9803 357.577L96.4203 351.207L89.6403 342.227L70.0003 357.057L68.3403 365.357L76.7803 366.037L87.8803 357.657C87.5403 357.567 87.0803 357.387 86.5903 357.087Z" fill="#13A538"/>
<path d="M83.8603 353.607L80.4202 350.287L79.5103 350.977L85.0203 358.277L86.6003 357.087C85.5403 356.457 84.3503 355.327 83.8603 353.607Z" fill="#13A538"/>
<path d="M86.5903 357.087C87.0803 357.387 87.5403 357.567 87.8803 357.657L87.9803 357.587L87.0803 356.727L86.5903 357.087Z" fill="#13A538"/>
<path d="M83.7299 353.077C83.1599 349.987 80.4199 350.297 80.4199 350.297L83.8599 353.617C83.8099 353.437 83.7599 353.257 83.7299 353.077Z" fill="#13A538"/>
<path d="M96.2802 352.197L88.6502 342.097C88.4202 341.787 88.4802 341.347 88.7902 341.117C89.1002 340.887 89.5402 340.947 89.7802 341.257L97.4102 351.357C97.6402 351.667 97.5802 352.107 97.2702 352.347C96.9502 352.567 96.5102 352.507 96.2802 352.197Z" fill="#13A538"/>
<path d="M104.14 346.257L96.51 336.157C96.28 335.847 96.34 335.407 96.65 335.167C96.96 334.937 97.4 334.997 97.64 335.307L105.27 345.407C105.5 345.717 105.44 346.157 105.13 346.397C104.81 346.637 104.37 346.567 104.14 346.257Z" fill="#13A538"/>
<path d="M102.369 342.77L99.4038 338.843L92.6679 343.929L95.6327 347.856L102.369 342.77Z" fill="#13A538"/>
<path opacity="0.2" d="M103.372 186.989C108.539 166.044 95.748 144.877 74.8035 139.71C53.859 134.544 32.6918 147.334 27.5253 168.279C22.3587 189.223 35.1493 210.39 56.0938 215.557C77.0383 220.724 98.2054 207.933 103.372 186.989Z" fill="white"/>
<path opacity="0.43" d="M111.595 185.361C115.863 159.879 98.666 135.762 73.1841 131.494C47.7022 127.226 23.585 144.423 19.3169 169.905C15.0488 195.387 32.2461 219.504 57.728 223.772C83.2099 228.04 107.327 210.843 111.595 185.361Z" fill="white"/>
<path d="M65.45 217.127C43.67 217.127 25.96 199.407 25.96 177.637C25.96 155.867 43.68 138.147 65.45 138.147C87.23 138.147 104.94 155.867 104.94 177.637C104.94 199.407 87.23 217.127 65.45 217.127ZM65.45 138.997C44.15 138.997 26.82 156.327 26.82 177.627C26.82 198.927 44.15 216.257 65.45 216.257C86.75 216.257 104.08 198.927 104.08 177.627C104.08 156.327 86.75 138.997 65.45 138.997Z" fill="#2A229E"/>
<path d="M68.3197 176.747H65.4397V173.867H62.5597V176.747H59.6797V179.627H62.5597V182.517H65.4397V179.627H68.3197V176.747Z" fill="#13A538"/>
<path d="M80.9797 165.217H48.7497C46.9097 165.217 45.4097 166.717 45.4097 168.557V188.677C45.4097 190.517 46.9097 192.017 48.7497 192.017H80.9797C82.8197 192.017 84.3197 190.517 84.3197 188.677V168.557C84.3197 166.717 82.8197 165.217 80.9797 165.217ZM64.4297 185.107C60.6097 185.107 57.5097 182.007 57.5097 178.187C57.5097 174.367 60.6097 171.267 64.4297 171.267C68.2497 171.267 71.3497 174.367 71.3497 178.187C71.3497 182.007 68.2497 185.107 64.4297 185.107Z" fill="#13A538"/>
<path d="M73.7298 166.947H71.9998V165.307C71.9998 163.577 71.3198 162.627 71.0998 162.627H58.6398C58.4098 162.627 57.7398 163.577 57.7398 165.307V166.947H56.0098V165.307C56.0098 162.797 57.1398 160.897 58.6398 160.897H71.0998C72.5998 160.897 73.7298 162.797 73.7298 165.307V166.947Z" fill="#13A538"/>
<path d="M341.09 74.2873L347.52 90.8973L353.87 65.4873L359.52 84.0973H369.75C370.87 81.5573 371.55 78.8673 371.55 76.0773C371.55 67.8973 365.52 61.2673 358.08 61.2673C354.22 61.2673 350.75 63.0473 348.29 65.9073C345.83 63.0573 342.36 61.2673 338.5 61.2673C331.06 61.2673 324.73 67.9073 325.03 76.0773C325.12 78.6473 325.8 81.1473 326.86 83.5273H335.8L341.09 74.2873Z" fill="#13A538"/>
<path d="M354.06 72.9373L347.93 97.4473L340.75 78.8873L336.96 85.5173H327.86C334.06 96.8573 348.3 105.227 348.3 105.227C348.3 105.227 362.6 97.3773 368.78 86.0873H358.05L354.06 72.9373Z" fill="#13A538"/>
<path d="M469.803 255.308C490.132 247.409 500.207 224.525 492.308 204.197C484.409 183.868 461.525 173.793 441.197 181.692C420.868 189.591 410.793 212.475 418.692 232.803C426.591 253.132 449.475 263.207 469.803 255.308Z" fill="white"/>
<path d="M482.236 207.242L481.856 205.342C480.626 205.582 479.246 205.552 477.896 205.382L467.396 195.722C467.246 194.412 467.226 193.092 467.456 191.912L465.556 191.532C464.836 195.122 466.066 199.582 466.906 202.022C463.346 201.022 458.086 200.392 454.236 203.602C449.646 207.432 451.426 214.202 452.866 217.862C447.286 215.672 442.186 216.242 438.826 219.482C435.856 222.342 434.936 226.832 436.466 230.922C436.686 231.492 436.876 232.062 437.056 232.622C432.286 231.572 428.836 231.552 428.636 231.552V233.492C428.656 233.492 429.556 233.502 431.036 233.642L438.936 240.752C439.306 243.402 439.316 245.122 439.316 245.152H441.256C441.256 245.032 441.246 243.662 440.996 241.502L441.096 241.392L440.966 241.272C440.766 239.652 440.426 237.622 439.866 235.352C440.836 235.642 441.846 235.962 442.866 236.352C444.176 236.842 445.526 237.082 446.846 237.082C449.656 237.082 452.356 236.012 454.296 233.992C457.236 230.942 457.986 226.452 456.456 221.472C460.256 222.712 465.856 223.572 469.206 219.562C470.616 217.872 471.286 215.912 471.506 213.942L471.706 213.732L471.546 213.582C471.816 210.492 471.026 207.422 470.326 205.392C471.696 205.922 477.666 208.152 482.236 207.242ZM459.106 203.402L469.596 213.082C469.506 214.542 469.176 215.982 468.416 217.272L455.396 205.152C455.426 205.132 455.446 205.102 455.476 205.082C456.556 204.192 457.806 203.672 459.106 203.402ZM438.686 239.212L432.696 233.822C434.106 234.012 435.816 234.302 437.696 234.762C438.136 236.362 438.456 237.872 438.686 239.212ZM443.536 234.522C442.056 233.972 440.626 233.522 439.256 233.152C438.966 232.202 438.646 231.232 438.276 230.232C437.616 228.472 437.516 226.632 437.906 224.932L448.716 234.912C447.056 235.272 445.256 235.162 443.536 234.522ZM452.896 232.622C452.026 233.522 450.976 234.182 449.826 234.602L438.226 223.892C438.646 222.762 439.296 221.722 440.186 220.872C441.136 219.952 442.276 219.302 443.556 218.912L454.846 229.332C454.436 230.582 453.796 231.692 452.896 232.622ZM455.096 228.262L444.676 218.642C446.986 218.242 449.656 218.612 452.496 219.792C452.676 219.892 453.246 220.182 454.076 220.542C455.186 223.352 455.526 225.992 455.096 228.262ZM455.506 219.032C454.896 217.792 453.096 213.792 453.246 210.112L464.226 220.332C461.246 220.982 457.716 219.912 455.506 219.032ZM465.306 220.012L453.376 208.902C453.566 207.792 453.986 206.742 454.726 205.852L467.856 218.082C467.806 218.152 467.766 218.222 467.706 218.292C467.026 219.112 466.206 219.662 465.306 220.012ZM460.346 203.222C463.116 202.972 465.956 203.702 467.836 204.352C468.356 205.542 469.496 208.562 469.616 211.772L460.346 203.222ZM469.266 202.802C469.006 202.162 468.136 199.882 467.636 197.262L476.146 205.092C473.246 204.492 470.836 203.482 470.836 203.482C470.736 203.432 470.166 203.152 469.266 202.802Z" fill="#13A538"/>
<path d="M440.658 220L440 220.713L453.175 232.871L453.833 232.158L440.658 220Z" fill="#13A538"/>
<path opacity="0.2" d="M422.777 398.103C435.314 380.548 431.247 356.152 413.691 343.614C396.136 331.077 371.74 335.144 359.203 352.7C346.665 370.255 350.733 394.651 368.288 407.188C385.843 419.726 410.239 415.659 422.777 398.103Z" fill="white"/>
<path opacity="0.43" d="M390.98 422.207C416.816 422.207 437.76 401.263 437.76 375.427C437.76 349.591 416.816 328.647 390.98 328.647C365.144 328.647 344.2 349.591 344.2 375.427C344.2 401.263 365.144 422.207 390.98 422.207Z" fill="white"/>
<path d="M390.98 414.927C369.2 414.927 351.49 397.207 351.49 375.437C351.49 353.667 369.21 335.947 390.98 335.947C412.76 335.947 430.47 353.667 430.47 375.437C430.47 397.207 412.75 414.927 390.98 414.927ZM390.98 336.797C369.68 336.797 352.35 354.127 352.35 375.427C352.35 396.727 369.68 414.057 390.98 414.057C412.28 414.057 429.61 396.727 429.61 375.427C429.61 354.127 412.28 336.797 390.98 336.797Z" fill="#2A229E"/>
<path d="M409.08 375.667C409.08 372.417 406.46 369.787 403.22 369.767C404.37 367.637 405.22 365.057 405.22 362.037C405.22 355.207 401.02 352.467 398.6 351.447C398.61 351.337 398.63 351.237 398.63 351.127C398.63 349.877 397.61 348.857 396.36 348.857C395.11 348.857 394.09 349.877 394.09 351.127C394.09 352.377 395.11 353.397 396.36 353.397C397.02 353.397 397.61 353.107 398.03 352.657C400.11 353.487 403.86 355.827 403.86 362.027C403.86 364.577 403.04 367.387 401.47 370.007C399.3 370.667 397.66 372.537 397.34 374.837C395.13 376.707 392.37 378.197 389.1 379.047C379.51 376.567 374.33 368.457 374.33 362.037C374.33 355.047 379.11 352.947 380.86 352.417C381.27 353.017 381.95 353.407 382.73 353.407C383.98 353.407 385 352.387 385 351.137C385 349.887 383.98 348.867 382.73 348.867C381.48 348.867 380.46 349.877 380.46 351.137C378.39 351.797 372.96 354.277 372.96 362.047C372.96 367.557 375.78 371.647 378.15 374.107C380.95 377.007 384.66 379.237 388.41 380.287V392.597C388.41 396.797 391.82 400.207 396.02 400.207C400.22 400.207 403.63 396.797 403.63 392.597V381.557C406.67 381.317 409.08 378.767 409.08 375.667ZM396.02 398.837C392.58 398.837 389.77 396.037 389.77 392.587V380.277C392.41 379.537 395.03 378.207 397.33 376.477C397.69 379.057 399.7 381.097 402.27 381.497V392.597C402.26 396.037 399.46 398.837 396.02 398.837ZM403.17 377.937C401.92 377.937 400.9 376.917 400.9 375.667C400.9 374.417 401.92 373.397 403.17 373.397C404.42 373.397 405.44 374.417 405.44 375.667C405.44 376.917 404.43 377.937 403.17 377.937Z" fill="#13A538"/>
<path d="M307.32 404.777H185.94C179.45 404.777 174.18 399.517 174.18 393.017V158.347C174.18 151.857 179.44 146.587 185.94 146.587H307.33C313.82 146.587 319.09 151.847 319.09 158.347V393.027C319.08 399.517 313.82 404.777 307.32 404.777Z" fill="#2A229E"/>
<path d="M316.16 227.547V189.617C318.31 189.617 320.05 191.357 320.05 193.507V223.657C320.05 225.807 318.31 227.547 316.16 227.547Z" fill="#2A229E"/>
<path d="M177.1 212.477V250.407C174.95 250.407 173.21 248.667 173.21 246.517V216.367C173.21 214.217 174.95 212.477 177.1 212.477Z" fill="#2A229E"/>
<path d="M317.23 272.287H316.16V252.347H317.23C318.79 252.347 320.05 253.607 320.05 255.167V269.467C320.05 271.017 318.79 272.287 317.23 272.287Z" fill="#2A229E"/>
<path d="M303.7 383.147H189.56C183.62 383.147 178.8 378.327 178.8 372.387V162.977C178.8 157.037 183.62 152.217 189.56 152.217H303.7C309.64 152.217 314.46 157.037 314.46 162.977V372.387C314.46 378.327 309.64 383.147 303.7 383.147Z" fill="#C8E6FF"/>
<path opacity="0.27" d="M146.95 295.137L281.15 102.587L332.21 105.507L151.33 347.647L146.95 295.137Z" fill="#C8E6FF"/>
<path opacity="0.27" d="M197.04 399.677C199.47 396.277 374.52 208.587 374.52 208.587L393.48 246.027L318.11 337.437L208.05 407.227L193.88 404.777" fill="#C8E6FF"/>
<path d="M251.98 394.087C251.98 397.037 249.59 399.437 246.63 399.437C243.68 399.437 241.28 397.047 241.28 394.087C241.28 391.137 243.67 388.737 246.63 388.737C249.59 388.737 251.98 391.127 251.98 394.087Z" stroke="white" stroke-width="0.4862" stroke-miterlimit="10"/>
<path opacity="0.11" d="M259.01 328.687H148.19C146.17 328.687 144.52 330.327 144.52 332.357V349.827C144.52 351.847 146.16 353.497 148.19 353.497H226.44L231.56 359.817L237.58 353.497H259.01C261.03 353.497 262.68 351.857 262.68 349.827V332.357C262.68 330.327 261.04 328.687 259.01 328.687Z" fill="#2A229E"/>
<path d="M259.01 325.287H148.19C146.17 325.287 144.52 326.927 144.52 328.957V346.427C144.52 348.447 146.16 350.097 148.19 350.097H226.44L231.56 356.417L237.58 350.097H259.01C261.03 350.097 262.68 348.457 262.68 346.427V328.957C262.68 326.927 261.04 325.287 259.01 325.287Z" fill="white"/>
<path d="M290.39 374.877H200.44C196.68 374.877 193.63 371.827 193.63 368.067C193.63 364.307 196.68 361.257 200.44 361.257H290.39C294.15 361.257 297.2 364.307 297.2 368.067C297.2 371.827 294.15 374.877 290.39 374.877Z" fill="white"/>
<path d="M207.25 368.067C207.25 371.017 204.86 373.417 201.9 373.417C198.95 373.417 196.55 371.027 196.55 368.067C196.55 365.117 198.94 362.717 201.9 362.717C204.85 362.727 207.25 365.117 207.25 368.067Z" fill="#2A229E"/>
<path d="M167.86 334.637C167.86 332.447 166.08 330.197 163.89 330.197C161.78 330.197 160.05 331.847 159.93 333.937H159.92H159.91C159.79 331.857 158.07 330.197 155.95 330.197C153.76 330.197 151.98 332.437 151.98 334.637C151.98 334.897 152.01 335.157 152.06 335.407C152.06 335.407 152.92 341.407 159.92 344.217C166.92 341.417 167.78 335.407 167.78 335.407C167.83 335.157 167.86 334.897 167.86 334.637Z" fill="#13A538"/>
<path d="M248.57 332.087H174.18V333.547H248.57V332.087Z" fill="#2A229E"/>
<path d="M248.57 334.847H174.18V336.307H248.57V334.847Z" fill="#2A229E"/>
<path d="M248.57 337.597H174.18V339.057H248.57V337.597Z" fill="#2A229E"/>
<path d="M200.92 340.357H174.18V341.817H200.92V340.357Z" fill="#2A229E"/>
<path d="M243.721 299.026H270.461V297.566H243.721V299.026Z" fill="#2A229E"/>
<path d="M280.502 256.597L277.563 286.447H232.546L227.162 246.321L258.975 241.43C258.965 241.43 285.876 238.984 280.502 256.597Z" fill="#3EA1DE"/>
<path opacity="0.5" d="M285.876 244.359C286.43 246.231 228.621 252.682 219.322 241.913C203.964 224.13 281.961 231.155 285.876 244.359Z" fill="#3EA1DE"/>
<path d="M253.097 127.403C253.097 127.403 276.093 134.257 277.08 141.1C278.056 147.954 277.08 242.89 277.08 242.89C277.08 242.89 232.063 246.805 227.161 242.89C222.27 238.975 216.393 134.74 220.801 131.318C225.209 127.896 241.352 125.45 241.352 125.45L253.097 127.403Z" fill="#3EA1DE"/>
<path d="M232.053 126.427C232.053 126.427 242.57 146.736 241.594 169.733C240.617 192.73 239.631 289.628 239.631 289.628L215.165 283.761V148.699C215.165 148.699 219.07 135.333 232.053 126.427Z" fill="#F8FDFF"/>
<path opacity="0.47" d="M241.835 209.618L210.022 206.679L217.852 159.216C217.852 159.216 207.083 187.114 243.787 191.029C280.793 194.974 240.718 206.538 240.718 206.538" fill="#6FBCFF"/>
<path d="M258.803 129.325C258.803 129.325 264.6 143.304 265.577 181.478C266.553 219.651 268.022 289.628 268.022 289.628L291.019 287.675C291.019 287.675 282.696 151.144 277.322 140.869C271.937 130.583 258.803 129.325 258.803 129.325Z" fill="#F8FDFF"/>
<path d="M258.723 129.124C258.723 129.124 276.828 133.039 283.189 137.93C289.549 142.821 302.764 176.587 305.209 176.104C307.655 175.611 328.206 150.168 331.638 148.699C331.638 148.699 339.961 161.42 342.407 161.913C342.407 161.913 317.447 196.655 308.641 202.039C299.835 207.424 278.791 178.056 278.791 178.056L258.723 129.124Z" fill="#F8FDFF"/>
<path d="M338.663 148.749C338.663 148.749 341.984 145.257 342.588 142.409C342.678 141.986 343.232 141.896 343.453 142.268C344.339 143.808 345.315 146.606 342.648 148.94C338.733 152.362 338.663 148.749 338.663 148.749Z" fill="#FFC6BA"/>
<path d="M334.325 155.301C334.818 155.301 336.771 148.941 340.193 148.447C343.614 147.954 350.468 148.447 351.444 148.447C352.421 148.447 360.744 143.063 364.659 146.002C364.659 146.002 354.383 149.424 352.914 151.386C351.444 153.339 344.591 158.24 337.747 159.216" fill="#FFC6BA"/>
<path opacity="0.47" d="M229.587 129.073L225.44 145.267H230.824L228.379 156.036L241.251 180.753L225.44 157.505L228.379 146.243H223.488L229.587 129.073Z" fill="#6FBCFF"/>
<path opacity="0.47" d="M260.434 129.979L274.624 142.58H271.203L275.601 152.362L266.794 172.913L273.648 152.362L269.24 142.087L271.686 141.111L260.434 129.979Z" fill="#6FBCFF"/>
<path d="M308.39 167.781H267.287L252.111 218.182H293.223L308.39 167.781Z" fill="#F06278"/>
<path d="M250.892 197.389C250.892 197.389 254.365 192.025 260.212 191.28L258.883 195.699C258.883 195.699 268.998 193.474 271.444 191.512C273.889 189.559 272.913 198.849 270.467 200.811C268.022 202.764 264.107 205.219 262.637 206.196C261.168 207.172 250.399 205.702 250.399 205.702L250.892 197.389Z" fill="#FFC6BA"/>
<path d="M231.801 127.161C231.801 127.161 210.273 132.546 203.419 138.906C196.566 145.267 191.675 189.801 194.613 195.185C197.552 200.57 246.243 209.618 250.158 209.618C250.158 209.618 250.158 196.403 253.58 194.451C253.58 194.451 218.103 188.332 216.634 184.91C215.164 181.478 217.127 137.437 231.801 127.161Z" fill="#F8FDFF"/>
<path d="M271.564 106.9C268.722 99.6358 268.537 90.7135 268.801 87.1604C268.142 87.6868 266.668 88.8185 266.037 89.1344C265.247 89.5292 267.616 100.583 267.616 106.11C267.616 110.532 258.931 116.112 254.588 118.349C254.588 118.612 253.877 127.161 254.193 129.372C256.088 128.74 266.362 131.322 271.363 132.507C273.018 130.279 274.407 114.164 271.564 106.9Z" fill="#2A229E"/>
<path d="M267.221 90.7136C267.221 91.0826 267.221 97.0302 267.616 100.583C268.011 104.137 268.518 107.295 266.093 112.427C263.668 117.559 256.879 122.48 256.879 122.48C256.879 122.48 257.25 126.684 257.746 130.193C257.746 130.193 257.737 141.642 250.887 141.642C244.038 141.642 232.479 126.684 232.479 126.684C232.479 126.684 240.721 118.328 233.764 108.306C226.795 98.2849 251.163 77.7791 266.093 90.3059" fill="#FFC6BA"/>
<path d="M242.744 92.6872C242.744 92.6872 262.93 96.6519 267.616 90.3184C274.602 80.8716 262.089 68.9999 251.035 69C243.929 69 229.257 71.7641 224.978 91.5032C220.7 111.242 194.579 119.928 193 133.351C193.345 134.042 199.122 130.062 199.712 132.167C196.948 136.115 198.13 149.463 200.896 148.353C200.896 142.826 209.976 132.562 214.714 131.377C224.189 127.824 232.744 128.131 237.612 125.061C238.796 122.297 238.796 120.718 236.822 114.006C235.713 112.822 233.124 110.058 233.124 110.058V104.137L237.612 104.926C237.612 100.978 236.282 90.8363 242.744 92.6872Z" fill="#2A229E"/>
<path d="M245.907 102.823C245.792 106.308 247.64 109.188 250.041 109.267C252.442 109.337 254.478 106.565 254.582 103.081C254.697 99.5963 252.849 96.7157 250.448 96.6365C248.058 96.5672 246.022 99.3389 245.907 102.823Z" stroke="#453E6B" stroke-width="0.8094" stroke-miterlimit="10"/>
<path d="M258.54 102.421C258.426 106.123 260.273 109.183 262.674 109.268C265.076 109.341 267.111 106.396 267.216 102.694C267.33 98.992 265.483 95.9314 263.082 95.8473C260.691 95.7737 258.655 98.7186 258.54 102.421Z" stroke="#453E6B" stroke-width="0.8094" stroke-miterlimit="10"/>
<path d="M245.902 102.952L229.321 106.11" stroke="#453E6B" stroke-width="0.8094" stroke-miterlimit="10"/>
<path d="M258.536 102.163C258.536 102.163 256.621 100.56 254.588 101.921" stroke="#453E6B" stroke-width="0.8094" stroke-miterlimit="10"/>
<path d="M232.516 110.41C233.853 113.113 236.332 114.62 238.05 113.769C239.78 112.917 240.091 110.042 238.765 107.338C237.428 104.635 234.949 103.128 233.231 103.979C231.501 104.831 231.178 107.706 232.516 110.41Z" fill="#FFC6BA"/>
<path d="M256.879 122.479C252.244 122.785 246.331 119.188 244.251 117.28C246.747 127.659 254.353 130.253 257.621 129.872C257.473 128.6 257.235 124.616 256.879 122.479Z" fill="#FFB7A8"/>
<path opacity="0.11" d="M185.63 285.897H296.45C298.47 285.897 300.12 287.537 300.12 289.567V307.037C300.12 309.057 298.48 310.707 296.45 310.707H218.2L213.08 317.027L207.06 310.707H185.63C183.61 310.707 181.96 309.067 181.96 307.037V289.567C181.96 287.537 183.6 285.897 185.63 285.897Z" fill="#2A229E"/>
<path d="M185.63 282.497H296.45C298.47 282.497 300.12 284.137 300.12 286.167V303.637C300.12 305.657 298.48 307.307 296.45 307.307H218.2L213.08 313.627L207.06 307.307H185.63C183.61 307.307 181.96 305.667 181.96 303.637V286.167C181.96 284.137 183.6 282.497 185.63 282.497Z" fill="white"/>
<path d="M196.07 290.764H270.46V289.304H196.07V290.764Z" fill="#2A229E"/>
<path d="M196.07 293.515H270.46V292.055H196.07V293.515Z" fill="#2A229E"/>
<path d="M196.07 296.275H270.46V294.815H196.07V296.275Z" fill="#2A229E"/>
</svg>
