<svg width="170" height="48" viewBox="0 0 170 48" fill="none" xmlns="http://www.w3.org/2000/svg">
<path d="M10.9167 48C10.4772 48 10.0493 48 9.61335 47.987C8.7108 47.978 7.81024 47.9109 6.91907 47.7862C6.08738 47.6604 5.28191 47.4272 4.52929 47.0945C3.78377 46.7659 3.10383 46.335 2.5155 45.8185C1.91836 45.308 1.42122 44.7159 1.0438 44.0656C0.662992 43.4123 0.399277 42.7122 0.261815 41.9895C0.113532 41.2115 0.0333346 40.4248 0.021914 39.6362C0.0115337 39.3692 0 38.4877 0 38.4877V9.49921C0 9.49921 0.012687 8.63181 0.0207606 8.37681C0.0324976 7.58922 0.113082 6.80355 0.261815 6.0266C0.398879 5.3006 0.662584 4.59709 1.0438 3.94043C1.41982 3.29093 1.91408 2.69866 2.50743 2.18656C3.10016 1.66949 3.7824 1.23656 4.52929 0.903539C5.28014 0.575125 6.08338 0.346694 6.91215 0.225885C7.80601 0.0969589 8.70971 0.0264865 9.61566 0.015059L10.9167 0H159.081L160.397 0.0160629C161.295 0.0242728 162.19 0.091392 163.076 0.216849C163.914 0.340715 164.726 0.572488 165.486 0.904543C166.981 1.57561 168.199 2.63714 168.967 3.94043C169.342 4.5923 169.602 5.2899 169.738 6.00954C169.888 6.79261 169.971 7.58414 169.988 8.37781C169.988 8.73321 169.988 9.1147 169.988 9.49519C170 9.96603 170 10.4138 170 10.8656V37.1324C170 37.5882 170 38.036 169.988 38.4817C169.988 38.8893 169.988 39.2638 169.988 39.6483C169.972 40.4279 169.889 41.2053 169.742 41.9744C169.607 42.7034 169.344 43.4101 168.963 44.0696C168.583 44.7111 168.09 45.2965 167.501 45.8044C166.912 46.3236 166.231 46.7568 165.483 47.0874C164.726 47.4211 163.915 47.6537 163.079 47.7771C162.187 47.9025 161.286 47.9697 160.383 47.9779C159.961 47.9859 159.518 47.991 159.089 47.991H157.526L10.9167 48Z" fill="#151A30"/>
<path d="M54.9258 29.3555C54.9258 31.1849 54.3691 32.6432 53.2559 33.7305C52.1426 34.8112 50.6452 35.3516 48.7637 35.3516C46.7194 35.3516 45.1048 34.6908 43.9199 33.3691C42.735 32.041 42.1426 30.2344 42.1426 27.9492C42.1426 25.6966 42.7383 23.903 43.9297 22.5684C45.1211 21.2272 46.7194 20.5566 48.7246 20.5566C50.3522 20.5566 51.7161 20.9863 52.8164 21.8457C53.9167 22.7051 54.5807 23.8542 54.8086 25.293H52.2988C52.0449 24.4922 51.6087 23.877 50.9902 23.4473C50.3783 23.0176 49.623 22.8027 48.7246 22.8027C47.4941 22.8027 46.5176 23.2617 45.7949 24.1797C45.0788 25.0977 44.7207 26.3477 44.7207 27.9297C44.7207 29.5312 45.0853 30.7943 45.8145 31.7188C46.5501 32.6432 47.5462 33.1055 48.8027 33.1055C49.877 33.1055 50.7493 32.806 51.4199 32.207C52.0905 31.6081 52.4355 30.8236 52.4551 29.8535L52.4648 29.5605H49.0762V27.5879H54.9258V29.3555ZM62.2109 35.2148C60.6094 35.2148 59.3529 34.7233 58.4414 33.7402C57.5299 32.7507 57.0742 31.39 57.0742 29.6582C57.0742 27.9395 57.5332 26.5853 58.4512 25.5957C59.3691 24.5996 60.6224 24.1016 62.2109 24.1016C63.806 24.1016 65.0592 24.5964 65.9707 25.5859C66.8887 26.5755 67.3477 27.9329 67.3477 29.6582C67.3477 31.39 66.8887 32.7507 65.9707 33.7402C65.0592 34.7233 63.806 35.2148 62.2109 35.2148ZM60.248 32.2656C60.7103 32.8776 61.3646 33.1836 62.2109 33.1836C63.0573 33.1836 63.7083 32.8776 64.1641 32.2656C64.6263 31.6471 64.8574 30.778 64.8574 29.6582C64.8574 28.5449 64.6263 27.679 64.1641 27.0605C63.7018 26.4421 63.0508 26.1328 62.2109 26.1328C61.3646 26.1328 60.7103 26.4421 60.248 27.0605C59.7858 27.679 59.5547 28.5449 59.5547 29.6582C59.5547 30.778 59.7858 31.6471 60.248 32.2656ZM74.3984 35.2148C72.7969 35.2148 71.5404 34.7233 70.6289 33.7402C69.7174 32.7507 69.2617 31.39 69.2617 29.6582C69.2617 27.9395 69.7207 26.5853 70.6387 25.5957C71.5566 24.5996 72.8099 24.1016 74.3984 24.1016C75.9935 24.1016 77.2467 24.5964 78.1582 25.5859C79.0762 26.5755 79.5352 27.9329 79.5352 29.6582C79.5352 31.39 79.0762 32.7507 78.1582 33.7402C77.2467 34.7233 75.9935 35.2148 74.3984 35.2148ZM72.4355 32.2656C72.8978 32.8776 73.5521 33.1836 74.3984 33.1836C75.2448 33.1836 75.8958 32.8776 76.3516 32.2656C76.8138 31.6471 77.0449 30.778 77.0449 29.6582C77.0449 28.5449 76.8138 27.679 76.3516 27.0605C75.8893 26.4421 75.2383 26.1328 74.3984 26.1328C73.5521 26.1328 72.8978 26.4421 72.4355 27.0605C71.9733 27.679 71.7422 28.5449 71.7422 29.6582C71.7422 30.778 71.9733 31.6471 72.4355 32.2656ZM84.6133 31.9824C85.0755 32.5749 85.7266 32.8711 86.5664 32.8711C87.4062 32.8711 88.0671 32.5716 88.5488 31.9727C89.0306 31.3737 89.2715 30.5632 89.2715 29.541C89.2715 28.5189 89.0306 27.7083 88.5488 27.1094C88.0671 26.5039 87.4062 26.2012 86.5664 26.2012C85.7331 26.2012 85.082 26.5007 84.6133 27.0996C84.151 27.6986 83.9199 28.5124 83.9199 29.541C83.9199 30.5697 84.151 31.3835 84.6133 31.9824ZM86.5664 39.0625C85.2057 39.0625 84.099 38.7858 83.2461 38.2324C82.3997 37.679 81.9277 36.9401 81.8301 36.0156H84.2617C84.3398 36.3867 84.584 36.6797 84.9941 36.8945C85.4108 37.1094 85.9479 37.2168 86.6055 37.2168C87.4323 37.2168 88.0768 37.0312 88.5391 36.6602C89.0013 36.2891 89.2324 35.7682 89.2324 35.0977V33.0762H89.0664C88.7604 33.6491 88.3242 34.0885 87.7578 34.3945C87.1979 34.694 86.5469 34.8438 85.8047 34.8438C84.4635 34.8438 83.3991 34.3652 82.6113 33.4082C81.8236 32.4447 81.4297 31.1556 81.4297 29.541C81.4297 27.9004 81.8268 26.5918 82.6211 25.6152C83.4154 24.6322 84.4896 24.1406 85.8438 24.1406C86.5729 24.1406 87.2337 24.3099 87.8262 24.6484C88.4186 24.987 88.8613 25.446 89.1543 26.0254H89.3203V24.3164H91.6543V35.0391C91.6543 36.276 91.1953 37.2559 90.2773 37.9785C89.3594 38.7012 88.1224 39.0625 86.5664 39.0625ZM94.7305 35V20.1855H97.1523V35H94.7305ZM104.701 26.0254C103.979 26.0254 103.383 26.263 102.914 26.7383C102.445 27.2135 102.185 27.8418 102.133 28.623H107.162C107.136 27.8288 106.902 27.1973 106.459 26.7285C106.016 26.2598 105.43 26.0254 104.701 26.0254ZM107.182 32.0605H109.477C109.249 33.0371 108.712 33.8086 107.865 34.375C107.025 34.9349 105.98 35.2148 104.73 35.2148C103.161 35.2148 101.928 34.7266 101.029 33.75C100.137 32.7669 99.6914 31.416 99.6914 29.6973C99.6914 27.9785 100.141 26.6178 101.039 25.6152C101.938 24.6061 103.161 24.1016 104.711 24.1016C106.234 24.1016 107.426 24.5801 108.285 25.5371C109.151 26.4876 109.584 27.806 109.584 29.4922V30.2734H102.123V30.4004C102.156 31.2923 102.41 31.9987 102.885 32.5195C103.367 33.0339 104.005 33.291 104.799 33.291C106.023 33.291 106.817 32.8809 107.182 32.0605ZM117.602 20.9082H123.285C124.691 20.9082 125.831 21.3477 126.703 22.2266C127.582 23.1055 128.021 24.2546 128.021 25.6738C128.021 27.0671 127.569 28.1999 126.664 29.0723C125.766 29.9447 124.604 30.3809 123.178 30.3809H120.121V35H117.602V20.9082ZM120.121 23.0176V28.291H122.611C123.516 28.291 124.216 28.0632 124.711 27.6074C125.212 27.1517 125.463 26.5072 125.463 25.6738C125.463 24.8145 125.215 24.1569 124.721 23.7012C124.232 23.2454 123.533 23.0176 122.621 23.0176H120.121ZM130.648 35V20.1855H133.07V35H130.648ZM139.789 33.2715C140.518 33.2715 141.127 33.0632 141.615 32.6465C142.104 32.2233 142.348 31.7025 142.348 31.084V30.2344L139.936 30.3906C138.607 30.4753 137.943 30.957 137.943 31.8359C137.943 32.2786 138.113 32.6302 138.451 32.8906C138.796 33.1445 139.242 33.2715 139.789 33.2715ZM139.076 35.1758C138.035 35.1758 137.185 34.8828 136.527 34.2969C135.87 33.7109 135.541 32.9362 135.541 31.9727C135.541 31.0091 135.889 30.2539 136.586 29.707C137.289 29.1602 138.292 28.8477 139.594 28.7695L142.348 28.6035V27.7051C142.348 27.1777 142.175 26.7741 141.83 26.4941C141.485 26.2142 140.987 26.0742 140.336 26.0742C139.776 26.0742 139.314 26.1719 138.949 26.3672C138.585 26.556 138.347 26.8294 138.236 27.1875H135.951C136.049 26.2435 136.505 25.4948 137.318 24.9414C138.139 24.3815 139.184 24.1016 140.453 24.1016C141.82 24.1016 142.875 24.4173 143.617 25.0488C144.366 25.6803 144.74 26.5658 144.74 27.7051V35H142.406V33.5352H142.24C141.941 34.0495 141.511 34.4531 140.951 34.7461C140.398 35.0326 139.773 35.1758 139.076 35.1758ZM148.5 38.877C147.999 38.877 147.68 38.8639 147.543 38.8379V36.8555C147.667 36.8815 147.888 36.8945 148.207 36.8945C148.721 36.8945 149.128 36.7871 149.428 36.5723C149.734 36.3574 149.965 36.0059 150.121 35.5176L150.248 35.0488L146.43 24.3164H149.086L151.586 32.6562H151.752L154.242 24.3164H156.801L152.943 35.3418C152.494 36.6634 151.941 37.5814 151.283 38.0957C150.632 38.6165 149.704 38.877 148.5 38.877Z" fill="white"/>
<path d="M48.6592 12.8955C48.6592 13.9017 48.353 14.7038 47.7407 15.3018C47.1284 15.8962 46.3049 16.1934 45.27 16.1934C44.1457 16.1934 43.2576 15.8299 42.606 15.103C41.9543 14.3726 41.6284 13.3789 41.6284 12.1221C41.6284 10.8831 41.9561 9.89665 42.6113 9.1626C43.2666 8.42497 44.1457 8.05615 45.2485 8.05615C46.1437 8.05615 46.8939 8.29248 47.499 8.76514C48.1042 9.23779 48.4694 9.86979 48.5947 10.6611H47.2144C47.0747 10.2207 46.8348 9.88232 46.4946 9.646C46.158 9.40967 45.7427 9.2915 45.2485 9.2915C44.5718 9.2915 44.0347 9.54395 43.6372 10.0488C43.2433 10.5537 43.0464 11.2412 43.0464 12.1113C43.0464 12.9922 43.2469 13.6868 43.6479 14.1953C44.0526 14.7038 44.6004 14.958 45.2915 14.958C45.8823 14.958 46.3621 14.7933 46.731 14.4639C47.0998 14.1344 47.2896 13.703 47.3003 13.1694L47.3057 13.0083H45.4419V11.9233H48.6592V12.8955ZM52.5962 11.064C52.1987 11.064 51.8711 11.1947 51.6133 11.4561C51.3555 11.7174 51.2122 12.063 51.1836 12.4927H53.9497C53.9354 12.0558 53.8065 11.7085 53.563 11.4507C53.3195 11.1929 52.9972 11.064 52.5962 11.064ZM53.9604 14.3833H55.2227C55.0973 14.9204 54.8019 15.3447 54.3364 15.6562C53.8745 15.9642 53.2998 16.1182 52.6123 16.1182C51.7493 16.1182 51.0708 15.8496 50.5767 15.3125C50.0861 14.7718 49.8408 14.0288 49.8408 13.0835C49.8408 12.1382 50.0879 11.3898 50.582 10.8384C51.0762 10.2834 51.7493 10.0059 52.6016 10.0059C53.4395 10.0059 54.0947 10.269 54.5674 10.7954C55.0436 11.3182 55.2817 12.0433 55.2817 12.9707V13.4004H51.1782V13.4702C51.1961 13.9608 51.3358 14.3493 51.5972 14.6357C51.8621 14.9186 52.2131 15.0601 52.6499 15.0601C53.3231 15.0601 53.7599 14.8345 53.9604 14.3833ZM57.0435 8.68457H58.3701V10.1616H59.627V11.2251H58.3701V14.1094C58.3701 14.3994 58.4346 14.6125 58.5635 14.7485C58.6924 14.881 58.8965 14.9473 59.1758 14.9473C59.2975 14.9473 59.4479 14.9383 59.627 14.9204V15.9624C59.4049 16.0054 59.1722 16.0269 58.9287 16.0269C58.2555 16.0269 57.7721 15.9033 57.4785 15.6562C57.1885 15.4092 57.0435 15.001 57.0435 14.4316V11.2251H56.1143V10.1616H57.0435V8.68457ZM63.9077 16V10.124H65.2344V16H63.9077ZM64.5684 9.16797C64.3285 9.16797 64.1315 9.09993 63.9775 8.96387C63.8236 8.82422 63.7466 8.64697 63.7466 8.43213C63.7466 8.21729 63.8236 8.04183 63.9775 7.90576C64.1315 7.76611 64.3285 7.69629 64.5684 7.69629C64.8118 7.69629 65.0088 7.76611 65.1592 7.90576C65.3132 8.04183 65.3901 8.21729 65.3901 8.43213C65.3901 8.64697 65.3132 8.82422 65.1592 8.96387C65.0088 9.09993 64.8118 9.16797 64.5684 9.16797ZM67.313 8.68457H68.6396V10.1616H69.8965V11.2251H68.6396V14.1094C68.6396 14.3994 68.7041 14.6125 68.833 14.7485C68.9619 14.881 69.166 14.9473 69.4453 14.9473C69.5671 14.9473 69.7174 14.9383 69.8965 14.9204V15.9624C69.6745 16.0054 69.4417 16.0269 69.1982 16.0269C68.5251 16.0269 68.0417 15.9033 67.748 15.6562C67.458 15.4092 67.313 15.001 67.313 14.4316V11.2251H66.3838V10.1616H67.313V8.68457ZM76.6963 16.1182C75.8154 16.1182 75.1243 15.8478 74.623 15.3071C74.1217 14.7629 73.8711 14.0145 73.8711 13.062C73.8711 12.1167 74.1235 11.3719 74.6284 10.8276C75.1333 10.2798 75.8226 10.0059 76.6963 10.0059C77.5736 10.0059 78.2629 10.278 78.7642 10.8223C79.269 11.3665 79.5215 12.1131 79.5215 13.062C79.5215 14.0145 79.269 14.7629 78.7642 15.3071C78.2629 15.8478 77.5736 16.1182 76.6963 16.1182ZM75.6167 14.4961C75.8709 14.8327 76.2308 15.001 76.6963 15.001C77.1618 15.001 77.5199 14.8327 77.7705 14.4961C78.0247 14.1559 78.1519 13.6779 78.1519 13.062C78.1519 12.4497 78.0247 11.9735 77.7705 11.6333C77.5163 11.2931 77.1582 11.123 76.6963 11.123C76.2308 11.123 75.8709 11.2931 75.6167 11.6333C75.3625 11.9735 75.2354 12.4497 75.2354 13.062C75.2354 13.6779 75.3625 14.1559 75.6167 14.4961ZM80.8643 16V10.124H82.1479V11.064H82.2393C82.3825 10.7274 82.6009 10.4678 82.8945 10.2852C83.1917 10.099 83.5552 10.0059 83.9849 10.0059C84.6366 10.0059 85.1361 10.1956 85.4834 10.5752C85.8343 10.9548 86.0098 11.4954 86.0098 12.1973V16H84.6777V12.5142C84.6777 11.6154 84.2821 11.166 83.4907 11.166C83.0933 11.166 82.7782 11.2931 82.5454 11.5474C82.3127 11.8016 82.1963 12.1453 82.1963 12.5786V16H80.8643Z" fill="white"/>
<g clip-path="url(#clip0)">
<path d="M35 24C35 24.75 34.58 25.41 33.97 25.75L28.77 28.64L24.37 24L28.77 19.36L33.97 22.25C34.58 22.59 35 23.25 35 24Z" fill="#FFE300"/>
<path d="M24.3701 24L13.5701 35.39C13.2101 35.03 13.0001 34.54 13.0001 34V14C13.0001 13.46 13.2101 12.97 13.5701 12.61L24.3701 24Z" fill="url(#paint0_linear)"/>
<path d="M24.3699 24L28.7699 28.64C15.5969 35.865 15.0449 36.947 13.5699 35.39L24.3699 24Z" fill="url(#paint1_linear)"/>
<path d="M28.7699 19.36L24.3699 24L13.5699 12.61C14.1879 11.957 15.1789 11.814 15.9699 12.25L28.7699 19.36Z" fill="url(#paint2_linear)"/>
</g>
<defs>
<linearGradient id="paint0_linear" x1="24.5001" y1="24" x2="13.0001" y2="36" gradientUnits="userSpaceOnUse">
<stop stop-color="#00C3FF"/>
<stop offset="1" stop-color="#00E3FF"/>
</linearGradient>
<linearGradient id="paint1_linear" x1="21.1699" y1="24" x2="21.1699" y2="36.0083" gradientUnits="userSpaceOnUse">
<stop stop-color="#FD3945"/>
<stop offset="1" stop-color="#E12652"/>
</linearGradient>
<linearGradient id="paint2_linear" x1="14.0001" y1="12.5" x2="24.5001" y2="23.5" gradientUnits="userSpaceOnUse">
<stop stop-color="#11D775"/>
<stop offset="1" stop-color="#00F076"/>
</linearGradient>
<clipPath id="clip0">
<rect width="24" height="24" fill="white" transform="translate(12 12)"/>
</clipPath>
</defs>
</svg>
