<svg width="100" height="34" viewBox="0 0 100 34" fill="none" xmlns="http://www.w3.org/2000/svg">
<g clip-path="url(#clip0)">
<path d="M73.4397 20.5246V25.1676H78.4763C77.0987 27.1637 74.8172 28.4655 72.1913 28.4655C71.8899 28.4655 71.5886 28.4655 71.3303 28.4221C70.5555 28.3353 69.8236 28.1183 69.1349 27.8146C64.4427 26.1657 60.8697 22.217 59.6644 17.3136C59.6644 17.4004 59.6213 17.4438 59.6213 17.5306C59.363 18.572 59.2339 19.6568 59.2339 20.7416C59.2339 27.9014 64.9592 33.716 72.0191 33.8461C72.1052 33.8461 72.1482 33.8461 72.2343 33.8461C75.4629 33.8461 78.3902 32.6745 80.6717 30.7219V33.8461H85.2348V25.1676V23.6489V22.0434V20.6114H73.4397V20.5246Z" fill="#EF7D00"/>
<path d="M69.1345 27.8147C66.3794 26.5997 64.4853 23.8226 64.5714 20.5681C64.6575 16.4025 68.0583 13.0612 72.1909 13.0612C74.5155 13.0612 76.6248 14.1027 78.0454 15.795C78.8203 16.7062 79.9826 17.2703 81.1879 17.2703H84.7609C83.2542 11.7595 78.2176 7.68057 72.2339 7.68057C66.2503 7.68057 61.2137 11.7595 59.707 17.3137C60.8693 22.2171 64.4853 26.1658 69.1345 27.8147Z" fill="#13A538"/>
<path d="M13.603 15.144H6.45703V33.8461H13.603V15.144Z" fill="#0DB04B"/>
<path d="M55.2303 7.68042C53.3793 7.68042 51.7434 8.9388 51.2269 10.7179L47.2234 24.6035H47.1373L42.0146 7.68042H36.6337L31.1666 24.6035H31.0805L26.5605 7.68042H19.5437H17.9509H0V9.76326C0 11.8027 1.63582 13.4516 3.65906 13.4516H5.59621H6.45717H13.6031H17.0039H17.9509H21.2656L27.2923 33.8461H34.223L39.3026 18.7021H39.3887L43.9087 33.8027H50.8394L59.1477 7.63702H55.2303V7.68042Z" fill="#13A538"/>
<path d="M91.9498 7.76726L94.4035 5.29389V0H90.8305C89.6682 0 88.7212 0.954635 88.7212 2.12623V3.25444V5.29389L91.1749 7.76726H91.9498Z" fill="#EF7D00"/>
<path d="M90.8306 8.15785L88.3769 5.68448H83.082V9.24266C83.082 10.4143 84.0291 11.3689 85.1914 11.3689H86.3106H88.3339L90.7876 8.89552V8.15785H90.8306Z" fill="#EF7D00"/>
<path d="M91.1753 9.28604L88.7646 11.716V17.0533H92.2946C93.4569 17.0533 94.4039 16.0987 94.4039 14.9271V13.7989V11.716L91.9502 9.24265H91.1753V9.28604Z" fill="#EF7D00"/>
<path d="M100 7.81071C100 6.63911 99.053 5.68448 97.8907 5.68448H96.7715H94.7052L92.2515 8.15785V8.93892L94.7052 11.4123H100V7.81071Z" fill="#EF7D00"/>
</g>
<defs>
<clipPath id="clip0">
<rect width="100" height="33.8462" fill="white"/>
</clipPath>
</defs>
</svg>
