<svg width="172" height="217" viewBox="0 0 172 217" fill="none" xmlns="http://www.w3.org/2000/svg">
<path d="M119.659 101.557L135.613 85.458V51H112.382C104.824 51 98.6667 57.2137 98.6667 64.8397V85.458L114.621 101.557H119.659Z" fill="#F6E6D6"/>
<path d="M112.382 104.1L96.4274 88.0006H62V111.161C62 118.787 68.1577 125.001 75.715 125.001H96.1475L112.102 108.901V104.1H112.382Z" fill="#F6E6D6"/>
<path d="M114.62 111.443L98.9457 127.26V162H121.897C129.455 162 135.612 155.787 135.612 148.161V127.26L119.658 111.161H114.62V111.443Z" fill="#F6E6D6"/>
<path d="M172 101.84C172 94.2143 165.842 88.0006 158.285 88.0006H137.572L121.618 104.1V109.184L137.572 125.283H172V101.84Z" fill="#F6E6D6"/>
<path d="M41.4096 173.438L52.8676 161.835V137H36.1832C30.7557 137 26.3333 141.478 26.3333 146.975V161.835L37.7913 173.438H41.4096Z" fill="#F6E6D6"/>
<path d="M36.1831 175.27L24.7251 163.667H0V180.359C0 185.855 4.42237 190.334 9.84984 190.334H24.5241L35.9821 178.731V175.27H36.1831Z" fill="#F6E6D6"/>
<path d="M37.7907 180.563L26.5337 191.962V217H43.0172C48.4446 217 52.867 212.522 52.867 207.026V191.962L41.409 180.359H37.7907V180.563Z" fill="#F6E6D6"/>
<path d="M78.9999 173.642C78.9999 168.145 74.5775 163.667 69.15 163.667H54.2747L42.8167 175.27V178.934L54.2747 190.537H78.9999V173.642Z" fill="#F6E6D6"/>
<path d="M59.8295 25.0508L67.8065 17.0738V0H56.1908C52.4122 0 49.3333 3.07888 49.3333 6.85749V17.0738L57.3104 25.0508H59.8295Z" fill="#F6E6D6"/>
<path d="M56.1908 26.3107L48.2137 18.3336H31V29.8094C31 33.588 34.0789 36.6669 37.8575 36.6669H48.0737L56.0508 28.6898V26.3107H56.1908Z" fill="#F6E6D6"/>
<path d="M57.31 29.9494L49.4729 37.7865V55.0002H60.9486C64.7273 55.0002 67.8062 51.9213 67.8062 48.1427V37.7865L59.8291 29.8094H57.31V29.9494Z" fill="#F6E6D6"/>
<path d="M86 25.1911C86 21.4125 82.9211 18.3336 79.1424 18.3336H68.7862L60.8091 26.3107V28.8298L68.7862 36.8069H86V25.1911Z" fill="#F6E6D6"/>
</svg>
