<svg width="170" height="48" viewBox="0 0 170 48" fill="none" xmlns="http://www.w3.org/2000/svg">
<path d="M10.9167 48C10.4772 48 10.0493 48 9.61335 47.987C8.7108 47.978 7.81024 47.9109 6.91907 47.7862C6.08738 47.6604 5.28191 47.4272 4.52929 47.0945C3.78377 46.7659 3.10383 46.335 2.5155 45.8185C1.91836 45.308 1.42122 44.7159 1.0438 44.0656C0.662992 43.4123 0.399277 42.7122 0.261815 41.9895C0.113532 41.2115 0.0333346 40.4248 0.021914 39.6362C0.0115337 39.3692 0 38.4877 0 38.4877V9.49921C0 9.49921 0.012687 8.63181 0.0207606 8.37681C0.0324976 7.58922 0.113082 6.80355 0.261815 6.0266C0.398879 5.3006 0.662584 4.59709 1.0438 3.94043C1.41982 3.29093 1.91408 2.69866 2.50743 2.18656C3.10016 1.66949 3.7824 1.23656 4.52929 0.903539C5.28014 0.575125 6.08338 0.346694 6.91215 0.225885C7.80601 0.0969589 8.70971 0.0264865 9.61566 0.015059L10.9167 0H159.081L160.397 0.0160629C161.295 0.0242728 162.19 0.091392 163.076 0.216849C163.914 0.340715 164.726 0.572488 165.486 0.904543C166.981 1.57561 168.199 2.63714 168.967 3.94043C169.342 4.5923 169.602 5.2899 169.738 6.00954C169.888 6.79261 169.971 7.58414 169.988 8.37781C169.988 8.73321 169.988 9.1147 169.988 9.49519C170 9.96603 170 10.4138 170 10.8656V37.1324C170 37.5882 170 38.036 169.988 38.4817C169.988 38.8893 169.988 39.2638 169.988 39.6483C169.972 40.4279 169.889 41.2053 169.742 41.9744C169.607 42.7034 169.344 43.4101 168.963 44.0696C168.583 44.7111 168.09 45.2965 167.501 45.8044C166.912 46.3236 166.231 46.7568 165.483 47.0874C164.726 47.4211 163.915 47.6537 163.079 47.7771C162.187 47.9025 161.286 47.9697 160.383 47.9779C159.961 47.9859 159.518 47.991 159.089 47.991H157.526L10.9167 48Z" fill="#151A30"/>
<path d="M61.9194 35L60.728 31.3965H55.5425L54.3315 35H51.7827L56.7827 20.9082H59.6147L64.6245 35H61.9194ZM58.062 23.5938L56.1284 29.4043H60.1421L58.228 23.5938H58.062ZM72.6128 24.1406C73.967 24.1406 75.0379 24.6322 75.8257 25.6152C76.62 26.5983 77.0171 27.946 77.0171 29.6582C77.0171 31.3639 76.6232 32.7116 75.8354 33.7012C75.0542 34.6842 73.9897 35.1758 72.6421 35.1758C71.8804 35.1758 71.2131 35.0195 70.6401 34.707C70.0737 34.388 69.6538 33.9453 69.3804 33.3789H69.2144V38.5547H66.7925V24.3164H69.1265V26.084H69.2925C69.5985 25.4785 70.0444 25.0033 70.6304 24.6582C71.2228 24.3132 71.8836 24.1406 72.6128 24.1406ZM71.8511 33.1152C72.6909 33.1152 73.3452 32.8092 73.814 32.1973C74.2892 31.5853 74.5269 30.7389 74.5269 29.6582C74.5269 28.5775 74.2892 27.7311 73.814 27.1191C73.3452 26.5072 72.6942 26.2012 71.8608 26.2012C71.034 26.2012 70.3797 26.5104 69.8979 27.1289C69.4162 27.7474 69.172 28.5905 69.1655 29.6582C69.172 30.7259 69.4129 31.569 69.8882 32.1875C70.37 32.806 71.0243 33.1152 71.8511 33.1152ZM85.269 24.1406C86.6232 24.1406 87.6942 24.6322 88.4819 25.6152C89.2762 26.5983 89.6733 27.946 89.6733 29.6582C89.6733 31.3639 89.2795 32.7116 88.4917 33.7012C87.7104 34.6842 86.646 35.1758 85.2983 35.1758C84.5366 35.1758 83.8693 35.0195 83.2964 34.707C82.73 34.388 82.3101 33.9453 82.0366 33.3789H81.8706V38.5547H79.4487V24.3164H81.7827V26.084H81.9487C82.2547 25.4785 82.7007 25.0033 83.2866 24.6582C83.8791 24.3132 84.5399 24.1406 85.269 24.1406ZM84.5073 33.1152C85.3472 33.1152 86.0015 32.8092 86.4702 32.1973C86.9455 31.5853 87.1831 30.7389 87.1831 29.6582C87.1831 28.5775 86.9455 27.7311 86.4702 27.1191C86.0015 26.5072 85.3504 26.2012 84.5171 26.2012C83.6903 26.2012 83.036 26.5104 82.5542 27.1289C82.0724 27.7474 81.8283 28.5905 81.8218 29.6582C81.8283 30.7259 82.0692 31.569 82.5444 32.1875C83.0262 32.806 83.6805 33.1152 84.5073 33.1152ZM97.0464 31.1719H99.5073C99.5854 31.8034 99.9142 32.3079 100.494 32.6855C101.073 33.0566 101.809 33.2422 102.701 33.2422C103.534 33.2422 104.218 33.0534 104.751 32.6758C105.292 32.2917 105.562 31.8034 105.562 31.2109C105.562 30.7031 105.357 30.2897 104.947 29.9707C104.543 29.6517 103.889 29.388 102.984 29.1797L101.158 28.7598C99.8817 28.4733 98.9344 28.0078 98.3159 27.3633C97.7039 26.7122 97.3979 25.8626 97.3979 24.8145C97.3979 23.5319 97.8765 22.5033 98.8335 21.7285C99.797 20.9473 101.067 20.5566 102.642 20.5566C104.12 20.5566 105.344 20.9408 106.314 21.709C107.284 22.4772 107.798 23.4668 107.857 24.6777H105.445C105.36 24.0592 105.064 23.5677 104.556 23.2031C104.048 22.8385 103.407 22.6562 102.632 22.6562C101.819 22.6562 101.164 22.8385 100.669 23.2031C100.181 23.5612 99.937 24.0397 99.937 24.6387C99.937 25.1139 100.129 25.5013 100.513 25.8008C100.897 26.0938 101.526 26.3411 102.398 26.543L104.019 26.9141C105.445 27.2331 106.477 27.7083 107.115 28.3398C107.759 28.9714 108.082 29.8242 108.082 30.8984C108.082 32.2721 107.583 33.3594 106.587 34.1602C105.598 34.9544 104.25 35.3516 102.544 35.3516C100.93 35.3516 99.6245 34.974 98.6284 34.2188C97.6388 33.4635 97.1115 32.4479 97.0464 31.1719ZM111.431 21.6992H113.843V24.3848H116.128V26.3184H113.843V31.5625C113.843 32.0898 113.96 32.4772 114.195 32.7246C114.429 32.9655 114.8 33.0859 115.308 33.0859C115.529 33.0859 115.803 33.0697 116.128 33.0371V34.9316C115.725 35.0098 115.302 35.0488 114.859 35.0488C113.635 35.0488 112.756 34.8242 112.222 34.375C111.695 33.9258 111.431 33.1836 111.431 32.1484V26.3184H109.742V24.3848H111.431V21.6992ZM123.062 35.2148C121.46 35.2148 120.204 34.7233 119.292 33.7402C118.381 32.7507 117.925 31.39 117.925 29.6582C117.925 27.9395 118.384 26.5853 119.302 25.5957C120.22 24.5996 121.473 24.1016 123.062 24.1016C124.657 24.1016 125.91 24.5964 126.822 25.5859C127.74 26.5755 128.199 27.9329 128.199 29.6582C128.199 31.39 127.74 32.7507 126.822 33.7402C125.91 34.7233 124.657 35.2148 123.062 35.2148ZM121.099 32.2656C121.561 32.8776 122.216 33.1836 123.062 33.1836C123.908 33.1836 124.559 32.8776 125.015 32.2656C125.477 31.6471 125.708 30.778 125.708 29.6582C125.708 28.5449 125.477 27.679 125.015 27.0605C124.553 26.4421 123.902 26.1328 123.062 26.1328C122.216 26.1328 121.561 26.4421 121.099 27.0605C120.637 27.679 120.406 28.5449 120.406 29.6582C120.406 30.778 120.637 31.6471 121.099 32.2656ZM130.64 35V24.3164H132.974V25.9766H133.14C133.29 25.4427 133.625 25.0033 134.146 24.6582C134.673 24.3132 135.279 24.1406 135.962 24.1406C136.399 24.1406 136.734 24.1764 136.968 24.248V26.4941C136.721 26.403 136.307 26.3574 135.728 26.3574C134.94 26.3574 134.299 26.5853 133.804 27.041C133.309 27.4902 133.062 28.0859 133.062 28.8281V35H130.64ZM143.169 26.0254C142.447 26.0254 141.851 26.263 141.382 26.7383C140.914 27.2135 140.653 27.8418 140.601 28.623H145.63C145.604 27.8288 145.37 27.1973 144.927 26.7285C144.485 26.2598 143.899 26.0254 143.169 26.0254ZM145.65 32.0605H147.945C147.717 33.0371 147.18 33.8086 146.333 34.375C145.494 34.9349 144.449 35.2148 143.199 35.2148C141.63 35.2148 140.396 34.7266 139.498 33.75C138.606 32.7669 138.16 31.416 138.16 29.6973C138.16 27.9785 138.609 26.6178 139.507 25.6152C140.406 24.6061 141.63 24.1016 143.179 24.1016C144.703 24.1016 145.894 24.5801 146.753 25.5371C147.619 26.4876 148.052 27.806 148.052 29.4922V30.2734H140.591V30.4004C140.624 31.2923 140.878 31.9987 141.353 32.5195C141.835 33.0339 142.473 33.291 143.267 33.291C144.491 33.291 145.285 32.8809 145.65 32.0605Z" fill="white"/>
<path d="M54.0454 8.24951H56.9512C58.1042 8.24951 58.9993 8.5861 59.6367 9.25928C60.2777 9.92887 60.5981 10.8724 60.5981 12.0898C60.5981 13.3324 60.2795 14.2956 59.6421 14.9795C59.0083 15.6598 58.1113 16 56.9512 16H54.0454V8.24951ZM55.4312 9.44727V14.8022H56.7686C57.542 14.8022 58.1382 14.5695 58.5571 14.104C58.9761 13.6385 59.1855 12.9743 59.1855 12.1113C59.1855 11.2663 58.9725 10.611 58.5464 10.1455C58.1239 9.68001 57.5312 9.44727 56.7686 9.44727H55.4312ZM64.5728 16.1182C63.6919 16.1182 63.0008 15.8478 62.4995 15.3071C61.9982 14.7629 61.7476 14.0145 61.7476 13.062C61.7476 12.1167 62 11.3719 62.5049 10.8276C63.0098 10.2798 63.6991 10.0059 64.5728 10.0059C65.45 10.0059 66.1393 10.278 66.6406 10.8223C67.1455 11.3665 67.3979 12.1131 67.3979 13.062C67.3979 14.0145 67.1455 14.7629 66.6406 15.3071C66.1393 15.8478 65.45 16.1182 64.5728 16.1182ZM63.4932 14.4961C63.7474 14.8327 64.1073 15.001 64.5728 15.001C65.0382 15.001 65.3963 14.8327 65.647 14.4961C65.9012 14.1559 66.0283 13.6779 66.0283 13.062C66.0283 12.4497 65.9012 11.9735 65.647 11.6333C65.3927 11.2931 65.0347 11.123 64.5728 11.123C64.1073 11.123 63.7474 11.2931 63.4932 11.6333C63.2389 11.9735 63.1118 12.4497 63.1118 13.062C63.1118 13.6779 63.2389 14.1559 63.4932 14.4961ZM76.373 10.124L74.7832 16H73.3813L72.2373 11.7676H72.146L71.0073 16H69.6216L68.0317 10.124H69.3745L70.3521 14.5122H70.4434L71.5713 10.124H72.8442L73.9829 14.5122H74.0742L75.0464 10.124H76.373ZM77.5386 16V10.124H78.8223V11.064H78.9136C79.0568 10.7274 79.2752 10.4678 79.5688 10.2852C79.866 10.099 80.2295 10.0059 80.6592 10.0059C81.3109 10.0059 81.8104 10.1956 82.1577 10.5752C82.5086 10.9548 82.6841 11.4954 82.6841 12.1973V16H81.3521V12.5142C81.3521 11.6154 80.9564 11.166 80.165 11.166C79.7676 11.166 79.4525 11.2931 79.2197 11.5474C78.987 11.8016 78.8706 12.1453 78.8706 12.5786V16H77.5386ZM84.3169 16V7.85205H85.6489V16H84.3169ZM89.8706 16.1182C88.9897 16.1182 88.2987 15.8478 87.7974 15.3071C87.2961 14.7629 87.0454 14.0145 87.0454 13.062C87.0454 12.1167 87.2979 11.3719 87.8027 10.8276C88.3076 10.2798 88.9969 10.0059 89.8706 10.0059C90.7479 10.0059 91.4372 10.278 91.9385 10.8223C92.4434 11.3665 92.6958 12.1131 92.6958 13.062C92.6958 14.0145 92.4434 14.7629 91.9385 15.3071C91.4372 15.8478 90.7479 16.1182 89.8706 16.1182ZM88.791 14.4961C89.0452 14.8327 89.4051 15.001 89.8706 15.001C90.3361 15.001 90.6942 14.8327 90.9448 14.4961C91.1991 14.1559 91.3262 13.6779 91.3262 13.062C91.3262 12.4497 91.1991 11.9735 90.9448 11.6333C90.6906 11.2931 90.3325 11.123 89.8706 11.123C89.4051 11.123 89.0452 11.2931 88.791 11.6333C88.5368 11.9735 88.4097 12.4497 88.4097 13.062C88.4097 13.6779 88.5368 14.1559 88.791 14.4961ZM96.0474 15.0493C96.4484 15.0493 96.7832 14.9347 97.0518 14.7056C97.3203 14.4728 97.4546 14.1864 97.4546 13.8462V13.3789L96.1279 13.4648C95.3975 13.5114 95.0322 13.7764 95.0322 14.2598C95.0322 14.5033 95.1253 14.6966 95.3115 14.8398C95.5013 14.9795 95.7466 15.0493 96.0474 15.0493ZM95.6553 16.0967C95.0824 16.0967 94.6151 15.9355 94.2534 15.6133C93.8918 15.291 93.7109 14.8649 93.7109 14.335C93.7109 13.805 93.9025 13.3896 94.2856 13.0889C94.6724 12.7881 95.2238 12.6162 95.9399 12.5732L97.4546 12.4819V11.9878C97.4546 11.6978 97.3597 11.4757 97.1699 11.3218C96.9801 11.1678 96.7062 11.0908 96.3481 11.0908C96.0402 11.0908 95.786 11.1445 95.5854 11.252C95.3849 11.3558 95.2542 11.5062 95.1934 11.7031H93.9365C93.9902 11.1839 94.2409 10.7721 94.6885 10.4678C95.1396 10.1598 95.7144 10.0059 96.4126 10.0059C97.1646 10.0059 97.7446 10.1795 98.1528 10.5269C98.5646 10.8742 98.7705 11.3612 98.7705 11.9878V16H97.4868V15.1943H97.3955C97.2308 15.4772 96.9945 15.6992 96.6865 15.8604C96.3822 16.0179 96.0384 16.0967 95.6553 16.0967ZM102.503 16.0967C101.759 16.0967 101.17 15.8245 100.736 15.2803C100.303 14.7324 100.086 13.9912 100.086 13.0566C100.086 12.1292 100.303 11.3934 100.736 10.8491C101.173 10.3013 101.762 10.0273 102.503 10.0273C102.904 10.0273 103.263 10.1187 103.578 10.3013C103.893 10.4839 104.129 10.7363 104.287 11.0586H104.378V7.85205H105.71V16H104.421V15.0708H104.33C104.161 15.3931 103.916 15.6455 103.594 15.8281C103.275 16.0072 102.912 16.0967 102.503 16.0967ZM103.997 11.6709C103.732 11.3307 103.372 11.1606 102.917 11.1606C102.462 11.1606 102.104 11.3307 101.843 11.6709C101.581 12.0075 101.451 12.4712 101.451 13.062C101.451 13.6564 101.58 14.1219 101.837 14.4585C102.099 14.7951 102.459 14.9634 102.917 14.9634C103.375 14.9634 103.735 14.7951 103.997 14.4585C104.262 14.1183 104.394 13.6528 104.394 13.062C104.394 12.4748 104.262 12.0111 103.997 11.6709ZM112.859 16.1182C111.978 16.1182 111.287 15.8478 110.786 15.3071C110.284 14.7629 110.034 14.0145 110.034 13.062C110.034 12.1167 110.286 11.3719 110.791 10.8276C111.296 10.2798 111.985 10.0059 112.859 10.0059C113.736 10.0059 114.425 10.278 114.927 10.8223C115.432 11.3665 115.684 12.1131 115.684 13.062C115.684 14.0145 115.432 14.7629 114.927 15.3071C114.425 15.8478 113.736 16.1182 112.859 16.1182ZM111.779 14.4961C112.034 14.8327 112.393 15.001 112.859 15.001C113.324 15.001 113.682 14.8327 113.933 14.4961C114.187 14.1559 114.314 13.6779 114.314 13.062C114.314 12.4497 114.187 11.9735 113.933 11.6333C113.679 11.2931 113.321 11.123 112.859 11.123C112.393 11.123 112.034 11.2931 111.779 11.6333C111.525 11.9735 111.398 12.4497 111.398 13.062C111.398 13.6779 111.525 14.1559 111.779 14.4961ZM117.027 16V10.124H118.311V11.064H118.402C118.545 10.7274 118.764 10.4678 119.057 10.2852C119.354 10.099 119.718 10.0059 120.147 10.0059C120.799 10.0059 121.299 10.1956 121.646 10.5752C121.997 10.9548 122.172 11.4954 122.172 12.1973V16H120.84V12.5142C120.84 11.6154 120.445 11.166 119.653 11.166C119.256 11.166 118.941 11.2931 118.708 11.5474C118.475 11.8016 118.359 12.1453 118.359 12.5786V16H117.027ZM127.108 8.68457H128.435V10.1616H129.692V11.2251H128.435V14.1094C128.435 14.3994 128.5 14.6125 128.628 14.7485C128.757 14.881 128.961 14.9473 129.241 14.9473C129.362 14.9473 129.513 14.9383 129.692 14.9204V15.9624C129.47 16.0054 129.237 16.0269 128.994 16.0269C128.32 16.0269 127.837 15.9033 127.543 15.6562C127.253 15.4092 127.108 15.001 127.108 14.4316V11.2251H126.179V10.1616H127.108V8.68457ZM131.078 16V7.85205H132.388V11.0747H132.485C132.625 10.7417 132.848 10.4821 133.156 10.2959C133.464 10.1097 133.835 10.0166 134.268 10.0166C134.902 10.0166 135.396 10.2082 135.75 10.5913C136.109 10.9744 136.288 11.5133 136.288 12.208V16H134.956V12.5249C134.956 12.0809 134.855 11.7461 134.655 11.5205C134.454 11.2913 134.161 11.1768 133.774 11.1768C133.344 11.1768 133.009 11.3057 132.77 11.5635C132.53 11.8177 132.41 12.1597 132.41 12.5894V16H131.078ZM140.332 11.064C139.935 11.064 139.607 11.1947 139.349 11.4561C139.091 11.7174 138.948 12.063 138.919 12.4927H141.686C141.671 12.0558 141.542 11.7085 141.299 11.4507C141.055 11.1929 140.733 11.064 140.332 11.064ZM141.696 14.3833H142.958C142.833 14.9204 142.538 15.3447 142.072 15.6562C141.61 15.9642 141.036 16.1182 140.348 16.1182C139.485 16.1182 138.807 15.8496 138.312 15.3125C137.822 14.7718 137.577 14.0288 137.577 13.0835C137.577 12.1382 137.824 11.3898 138.318 10.8384C138.812 10.2834 139.485 10.0059 140.337 10.0059C141.175 10.0059 141.831 10.269 142.303 10.7954C142.779 11.3182 143.018 12.0433 143.018 12.9707V13.4004H138.914V13.4702C138.932 13.9608 139.072 14.3493 139.333 14.6357C139.598 14.9186 139.949 15.0601 140.386 15.0601C141.059 15.0601 141.496 14.8345 141.696 14.3833Z" fill="white"/>
<path d="M37.3579 14.9023C39.6707 14.9023 41.4424 15.7967 42.6729 17.5854L42.5361 17.6709C42.445 17.7393 42.3481 17.8133 42.2456 17.8931C42.1431 17.9614 42.012 18.064 41.8525 18.2007C41.7044 18.326 41.5563 18.4741 41.4082 18.645C41.2601 18.8045 41.1006 18.9868 40.9297 19.1919C40.7702 19.3856 40.6221 19.6134 40.4854 19.8755C40.36 20.1261 40.2404 20.3939 40.1265 20.6787C40.0239 20.9521 39.9385 21.2655 39.8701 21.6187C39.8132 21.9718 39.7847 22.3307 39.7847 22.6953C39.7847 23.4473 39.91 24.1479 40.1606 24.7974C40.4113 25.4354 40.6961 25.9481 41.0151 26.3354C41.3341 26.7228 41.6873 27.0646 42.0747 27.3608C42.4621 27.6571 42.7526 27.8564 42.9463 27.959C43.1514 28.0615 43.2938 28.1242 43.3735 28.147C43.3507 28.2381 43.2824 28.4375 43.1685 28.7451C43.0659 29.0527 42.8608 29.5256 42.5532 30.1636C42.257 30.8016 41.9209 31.4054 41.5449 31.9751C41.1803 32.4992 40.8784 32.915 40.6392 33.2227C40.3999 33.5189 40.098 33.8493 39.7334 34.2139C39.3688 34.5785 38.9871 34.8462 38.5884 35.0171C38.201 35.188 37.7909 35.2734 37.3579 35.2734C36.7655 35.2734 36.0648 35.0968 35.2559 34.7437C34.4469 34.3905 33.6836 34.2139 32.9658 34.2139C32.2367 34.2139 31.4391 34.3962 30.5732 34.7607C29.7074 35.1253 29.0181 35.3076 28.5054 35.3076C27.7534 35.3076 27.0698 35.0285 26.4546 34.4702C25.8507 33.9119 25.1444 33.0575 24.3354 31.9067C23.5151 30.7332 22.8372 29.3433 22.3018 27.7368C21.7777 26.119 21.5156 24.5296 21.5156 22.9688C21.5156 21.7155 21.7093 20.5705 22.0967 19.5337C22.484 18.4969 22.9967 17.6538 23.6348 17.0044C24.2728 16.355 24.9906 15.8537 25.7881 15.5005C26.5856 15.1473 27.4116 14.9707 28.2661 14.9707C28.9041 14.9707 29.7074 15.1644 30.6758 15.5518C31.6556 15.9391 32.305 16.1328 32.624 16.1328C32.8975 16.1328 33.564 15.9277 34.6235 15.5176C35.6831 15.1074 36.5946 14.9023 37.3579 14.9023ZM36.418 12.6978C35.9622 13.2446 35.3869 13.7004 34.6919 14.0649C34.0083 14.4295 33.3646 14.6118 32.7607 14.6118C32.6354 14.6118 32.5158 14.6004 32.4019 14.5776C32.3677 14.4409 32.3506 14.2757 32.3506 14.082C32.3506 13.4326 32.493 12.7832 32.7778 12.1338C33.0627 11.4844 33.4102 10.9204 33.8203 10.4419C34.3102 9.87223 34.9198 9.39941 35.6489 9.02344C36.3895 8.63607 37.0959 8.43099 37.7681 8.4082C37.8022 8.55632 37.8193 8.73291 37.8193 8.93799C37.8193 10.2938 37.3522 11.547 36.418 12.6978Z" fill="white"/>
</svg>
