<svg width="40" height="40" viewBox="0 0 40 40" fill="none" xmlns="http://www.w3.org/2000/svg">
<path d="M33.92 20C31.32 20 28.92 21.8 28.32 24.2C24.72 25 21.92 28.2 21.92 32V33C21.92 34.6 20.52 36 18.92 36C17.32 36 15.92 34.6 15.92 33V25.8C20.72 25 24.72 21.6 25.92 16.8L27.72 10C28.12 7.6 27.52 5 25.92 3C24.32 1.2 21.92 0 19.52 0C18.32 0 17.52 0.8 17.52 2C17.52 3.2 18.32 4 19.52 4C20.92 4 22.12 4.6 22.92 5.6C23.72 6.6 24.12 8 23.92 9.2L22.12 15.8C21.12 19.4 17.72 22 13.92 22C10.12 22 6.72 19.4 5.72 15.8L3.92 9.2C3.72 8 4.12 6.6 4.92 5.6C5.72 4.6 7.12 4 8.32 4C9.52 4 10.32 3.2 10.32 2C10.32 0.8 9.52 0 8.32 0C5.92 0 3.52 1.2 1.92 3C0.32 5 -0.28 7.4 0.12 10.2L1.92 16.8C3.12 21.6 7.12 25 11.92 25.8V33C11.92 36.8 15.12 40 18.92 40C22.72 40 25.92 36.8 25.92 33V32C25.92 30.4 26.92 29 28.32 28.4C29.32 30.6 31.32 32 33.92 32C37.32 32 39.92 29.4 39.92 26C39.92 22.6 37.12 20 33.92 20ZM33.92 28C32.72 28 31.92 27.2 31.92 26C31.92 24.8 32.72 24 33.92 24C35.12 24 35.92 24.8 35.92 26C35.92 27.2 34.92 28 33.92 28Z" fill="#222B45"/>
</svg>
