<svg width="42" height="42" viewBox="0 0 42 42" fill="none" xmlns="http://www.w3.org/2000/svg">
<path d="M23.2676 17.3874C23.2676 15.8226 21.9989 14.5546 20.434 14.5546C18.8695 14.5546 17.6008 15.8228 17.6008 17.3874C17.6008 18.9527 18.8697 20.221 20.434 20.221C21.9989 20.221 23.2676 18.9527 23.2676 17.3874Z" fill="url(#paint0_linear)"/>
<path d="M16.2333 26.3124C17.4852 26.3124 18.5001 25.2975 18.5001 24.0456C18.5001 22.7937 17.4852 21.7788 16.2333 21.7788C14.9814 21.7788 13.9665 22.7937 13.9665 24.0456C13.9665 25.2975 14.9814 26.3124 16.2333 26.3124Z" fill="url(#paint1_linear)"/>
<path d="M24.6353 20.6453C22.7567 20.6453 21.2353 22.167 21.2353 24.0451C21.2353 25.9235 22.7567 27.4454 24.6353 27.4454C26.5126 27.4454 28.035 25.9235 28.035 24.0451C28.035 22.1672 26.5126 20.6453 24.6353 20.6453Z" fill="url(#paint2_linear)"/>
<path d="M40.3273 15.9299C39.4033 15.9299 38.6542 16.679 38.6542 17.6031V19.3273H35.7665C35.4462 16.4814 34.3187 13.8775 32.619 11.7479L34.6663 9.70046L35.8854 10.9196C36.212 11.2464 36.6404 11.4097 37.0685 11.4097C37.4968 11.4097 37.9249 11.2464 38.2515 10.9196C38.9049 10.2662 38.9049 9.20699 38.2515 8.55357L33.4471 3.74896C32.7937 3.09532 31.7342 3.09555 31.081 3.74896C30.4276 4.40238 30.4276 5.4616 31.081 6.11524L32.3 7.33418L30.2525 9.38189C28.1229 7.68264 25.5193 6.55539 22.6736 6.23504V3.34629H24.3978C25.3219 3.34629 26.071 2.59717 26.071 1.67315C26.071 0.749124 25.3219 0 24.3978 0H17.6028C16.6788 0 15.9297 0.749124 15.9297 1.67315C15.9297 2.59717 16.6788 3.34629 17.6028 3.34629H19.3271V6.23459C16.4812 6.55517 13.8775 7.68242 11.7477 9.38189L9.70001 7.33374L10.9192 6.11457C11.5726 5.46115 11.5726 4.40171 10.9192 3.74829C10.2658 3.09465 9.20632 3.09488 8.55313 3.74829L3.74874 8.55335C3.09532 9.20677 3.09532 10.2662 3.74874 10.9194C4.07534 11.2462 4.50367 11.4095 4.93177 11.4095C5.35987 11.4095 5.7882 11.2462 6.11479 10.9194L7.33396 9.70024L9.38167 11.7482C7.6822 13.8777 6.55494 16.4814 6.23459 19.3271H3.34652V17.6035C3.34652 16.6795 2.59762 15.9304 1.67337 15.9304C0.749347 15.9304 0.000223086 16.6795 0.000223086 17.6035L0 24.3976C0 25.3216 0.749124 26.0708 1.67315 26.0708C2.59717 26.0708 3.34629 25.3216 3.34629 24.3976V22.6734H6.23459C6.55517 25.5191 7.68242 28.1227 9.38167 30.2523L7.33396 32.3002L6.11479 31.081C5.46137 30.4274 4.40194 30.4276 3.74852 31.081C3.0951 31.7345 3.0951 32.7937 3.74852 33.4471L8.5529 38.2517C8.8795 38.5785 9.30783 38.7418 9.73593 38.7418C10.164 38.7418 10.5924 38.5785 10.919 38.2517C11.5724 37.5983 11.5724 36.5391 10.919 35.8857L9.69979 34.6665L11.7477 32.6183C13.8773 34.3176 16.4809 35.4448 19.3269 35.7652V38.6537H17.6026C16.6786 38.6537 15.9295 39.4028 15.9295 40.3269C15.9295 41.2509 16.6786 42 17.6026 42H24.3969C25.321 42 26.0701 41.2509 26.0701 40.3269C26.0701 39.4028 25.321 38.6537 24.3969 38.6537H22.6734V35.7652C25.5191 35.4448 28.1227 34.3178 30.2523 32.6186L32.2998 34.6663L31.0808 35.8852C30.4274 36.5386 30.4274 37.5978 31.0808 38.2515C31.4074 38.5783 31.8357 38.7416 32.2638 38.7416C32.692 38.7416 33.1203 38.5783 33.4469 38.2515L38.2513 33.4473C38.9047 32.7939 38.9047 31.7347 38.2513 31.0813C37.5978 30.4276 36.5384 30.4278 35.8852 31.0813L34.666 32.3004L32.6186 30.2527C34.3182 28.1231 35.4455 25.5195 35.7661 22.6736H38.6535V24.3974C38.6535 25.3214 39.4024 26.0705 40.3266 26.0705C41.2507 26.0705 41.9998 25.3214 41.9998 24.3974L42 17.6033C42.0004 16.679 41.2513 15.9299 40.3273 15.9299ZM32.5135 21.1325C32.4782 24.2341 31.2122 27.0447 29.1799 29.0974C29.1656 29.1107 29.1507 29.1226 29.1366 29.1364C29.1228 29.1502 29.111 29.1652 29.0976 29.1795C27.043 31.2133 24.229 32.4796 21.124 32.5126C21.083 32.5097 21.0422 32.5063 21.0004 32.5063C20.9587 32.5063 20.9179 32.5097 20.8771 32.5126C14.6041 32.4459 9.5182 27.3408 9.48585 21.0602C9.48652 21.0399 9.48897 21.0201 9.48897 20.9998C9.48897 20.9795 9.48674 20.9596 9.48585 20.9395C9.51864 14.636 14.6414 9.5153 20.946 9.48563C20.9643 9.4863 20.9822 9.4883 21.0004 9.4883C21.0187 9.4883 21.0368 9.48607 21.0551 9.48563C24.1872 9.50035 27.0273 10.7713 29.0971 12.8201C29.1107 12.8346 29.1226 12.8498 29.1366 12.8638C29.1507 12.8779 29.1661 12.8899 29.1803 12.9035C31.2124 14.9561 32.4782 17.7666 32.5133 20.8682C32.5099 20.9119 32.5066 20.9558 32.5066 21.0002C32.5066 21.0446 32.5101 21.0888 32.5135 21.1325Z" fill="url(#paint3_linear)"/>
<defs>
<linearGradient id="paint0_linear" x1="21" y1="0" x2="21" y2="42" gradientUnits="userSpaceOnUse">
<stop stop-color="#F9BC79"/>
<stop offset="1" stop-color="#E07500"/>
</linearGradient>
<linearGradient id="paint1_linear" x1="21" y1="0" x2="21" y2="42" gradientUnits="userSpaceOnUse">
<stop stop-color="#F9BC79"/>
<stop offset="1" stop-color="#E07500"/>
</linearGradient>
<linearGradient id="paint2_linear" x1="21" y1="0" x2="21" y2="42" gradientUnits="userSpaceOnUse">
<stop stop-color="#F9BC79"/>
<stop offset="1" stop-color="#E07500"/>
</linearGradient>
<linearGradient id="paint3_linear" x1="21" y1="0" x2="21" y2="42" gradientUnits="userSpaceOnUse">
<stop stop-color="#F9BC79"/>
<stop offset="1" stop-color="#E07500"/>
</linearGradient>
</defs>
</svg>
