<svg width="80" height="27" viewBox="0 0 80 27" fill="none" xmlns="http://www.w3.org/2000/svg">
<g clip-path="url(#clip0)">
<path d="M58.7518 16.3731V20.0769H62.7811C61.6791 21.6692 59.8539 22.7077 57.7531 22.7077C57.512 22.7077 57.271 22.7077 57.0644 22.6731C56.4445 22.6038 55.859 22.4308 55.308 22.1884C51.5542 20.8731 48.6959 17.7231 47.7316 13.8115C47.7316 13.8808 47.6971 13.9154 47.6971 13.9846C47.4905 14.8154 47.3872 15.6808 47.3872 16.5461C47.3872 22.2577 51.9675 26.8961 57.6154 27C57.6842 27 57.7187 27 57.7876 27C60.3704 27 62.7122 26.0654 64.5375 24.5077V27H68.1879V20.0769V18.8654V17.5846V16.4423H58.7518V16.3731Z" fill="white"/>
<path d="M55.3076 22.1886C53.1036 21.2193 51.5883 19.0039 51.6571 16.4078C51.726 13.0847 54.4466 10.4193 57.7527 10.4193C59.6124 10.4193 61.2999 11.2501 62.4363 12.6001C63.0562 13.327 63.986 13.777 64.9503 13.777H67.8087C66.6033 9.38086 62.5741 6.12701 57.7872 6.12701C53.0002 6.12701 48.971 9.38086 47.7656 13.8116C48.6955 17.7232 51.5883 20.8732 55.3076 22.1886Z" fill="white"/>
<path d="M10.8823 12.0807H5.16553V27H10.8823V12.0807Z" fill="white"/>
<path d="M44.1842 6.12687C42.7034 6.12687 41.3947 7.13072 40.9815 8.54995L37.7787 19.6269H37.7099L33.6117 6.12687H29.3069L24.9333 19.6269H24.8644L21.2484 6.12687H15.635H14.3607H0V7.78841C0 9.41533 1.30865 10.7307 2.92725 10.7307H4.47697H5.16573H10.8825H13.6031H14.3607H17.0125L21.8338 26.9999H27.3784L31.4421 14.9192H31.511L35.127 26.9653H40.6715L47.3181 6.09225H44.1842V6.12687Z" fill="white"/>
<path d="M73.5599 6.19615L75.5229 4.22308V0H72.6645C71.7347 0 70.9771 0.761538 70.9771 1.69615V2.59615V4.22308L72.94 6.19615H73.5599Z" fill="white"/>
<path d="M72.6647 6.50774L70.7017 4.53467H66.4658V7.37313C66.4658 8.30774 67.2235 9.06928 68.1533 9.06928H69.0487H70.6673L72.6303 7.09621V6.50774H72.6647Z" fill="white"/>
<path d="M72.9403 7.40772L71.0117 9.34618V13.6039H73.8357C74.7655 13.6039 75.5231 12.8423 75.5231 11.9077V11.0077V9.34618L73.5602 7.37311H72.9403V7.40772Z" fill="white"/>
<path d="M80.0002 6.23082C80.0002 5.29621 79.2425 4.53467 78.3127 4.53467H77.4173H75.7642L73.8013 6.50774V7.13082L75.7642 9.1039H80.0002V6.23082Z" fill="white"/>
</g>
<defs>
<clipPath id="clip0">
<rect width="80" height="27" fill="white"/>
</clipPath>
</defs>
</svg>
