<svg width="609" height="531" viewBox="0 0 609 531" fill="none" xmlns="http://www.w3.org/2000/svg">
<path opacity="0.07" d="M604.87 280.439C604.87 372.764 560.256 454.668 491.41 505.767C487.959 508.331 484.445 510.816 480.875 513.22H167.993C164.423 510.816 160.909 508.331 157.458 505.767C88.6122 454.668 43.9985 372.764 43.9985 280.439C43.9985 125.557 169.551 0 324.434 0C479.317 0 604.87 125.557 604.87 280.439Z" fill="#EF7D00"/>
<path d="M414.847 102.692H204.23C191.637 102.692 181.429 112.901 181.429 125.493V480.234C181.429 498.133 195.939 512.642 213.837 512.642H405.24C423.138 512.642 437.648 498.133 437.648 480.234V125.493C437.648 112.901 427.44 102.692 414.847 102.692Z" fill="#222B45"/>
<rect x="262.138" y="115.736" width="94.6612" height="4.47218" rx="2.23609" fill="white"/>
<path d="M420.915 133.824V462.551C420.915 467.24 417.114 471.041 412.426 471.041H206.651C201.962 471.041 198.161 467.24 198.161 462.551V133.824H420.915Z" fill="#F7F9FC"/>
<path d="M392.434 162.383H226.644C222.225 162.383 218.644 165.965 218.644 170.383V180.772C218.644 185.191 222.225 188.772 226.644 188.772H392.434C396.852 188.772 400.434 185.191 400.434 180.772V170.383C400.434 165.965 396.852 162.383 392.434 162.383Z" fill="white"/>
<path d="M392.433 207.084H226.643C222.225 207.084 218.643 210.666 218.643 215.084V345.279C218.643 349.697 222.225 353.279 226.643 353.279H392.433C396.852 353.279 400.433 349.697 400.433 345.279V215.084C400.433 210.666 396.852 207.084 392.433 207.084Z" fill="white"/>
<path d="M391.463 172.653H227.613V178.503H391.463V172.653Z" fill="#C5CEE0"/>
<path d="M391.464 225.957H227.614V231.807H391.464V225.957Z" fill="#C5CEE0"/>
<path d="M391.463 246.477H227.613V252.327H391.463V246.477Z" fill="#C5CEE0"/>
<path d="M391.463 266.997H227.613V272.847H391.463V266.997Z" fill="#C5CEE0"/>
<path d="M391.463 287.516H227.613V293.366H391.463V287.516Z" fill="#C5CEE0"/>
<path d="M391.463 308.036H227.613V313.886H391.463V308.036Z" fill="#C5CEE0"/>
<path d="M391.328 328.555H227.478V334.406H391.328V328.555Z" fill="#C5CEE0"/>
<path d="M295.406 374.75H222.534C220.325 374.75 218.534 376.541 218.534 378.75V390.502C218.534 392.712 220.325 394.502 222.534 394.502H295.406C297.615 394.502 299.406 392.712 299.406 390.502V378.75C299.406 376.541 297.615 374.75 295.406 374.75Z" fill="white"/>
<path d="M292.697 381.831H227.478V387.794H292.697V381.831Z" fill="#C5CEE0"/>
<path d="M246.46 211.056H92.8169C90.8352 211.056 89.2139 209.434 89.2139 207.453V132.383C89.2139 130.402 90.8352 128.78 92.8169 128.78H246.46C248.441 128.78 250.063 130.402 250.063 132.383V207.453C250.063 209.434 248.441 211.056 246.46 211.056Z" fill="#EF7D00"/>
<path d="M130.131 192.72C142.724 192.72 152.933 182.511 152.933 169.918C152.933 157.325 142.724 147.116 130.131 147.116C117.538 147.116 107.329 157.325 107.329 169.918C107.329 182.511 117.538 192.72 130.131 192.72Z" fill="white"/>
<path d="M130.131 170.952C124.627 170.952 120.166 175.413 120.166 180.916V184.238H140.095V180.916C140.095 175.413 135.634 170.952 130.131 170.952Z" fill="#EF7D00"/>
<path d="M130.131 168.957C133.961 168.957 137.067 165.852 137.067 162.021C137.067 158.19 133.961 155.085 130.131 155.085C126.3 155.085 123.194 158.19 123.194 162.021C123.194 165.852 126.3 168.957 130.131 168.957Z" fill="#EF7D00"/>
<path d="M231.947 166.421H168.184V170.951H231.947V166.421Z" fill="white"/>
<path d="M231.947 181.972H168.184V186.502H231.947V181.972Z" fill="white"/>
<path d="M246.412 280.157H93.0145C90.9241 280.157 89.2139 278.535 89.2139 276.554V227.465C89.2139 225.483 90.9241 223.862 93.0145 223.862H246.412C248.502 223.862 250.212 225.483 250.212 227.465V276.554C250.212 278.535 248.502 280.157 246.412 280.157Z" fill="#00B383"/>
<path d="M112.597 254.51L129.095 270.369L145.824 254.729C160.35 241.149 143.852 225.29 129.326 238.87C115.207 225.298 98.4786 240.938 112.597 254.51Z" fill="white"/>
<path d="M136.411 249.351L135.452 252.764L134.112 241.42L130.658 249.351H127.191L127.038 249.895L126.231 252.764L125.892 249.895L125.828 249.351L124.892 241.42L121.438 249.351H117.041V249.895H122.122L124.386 244.694L124.937 249.351L125.001 249.895L125.87 257.258L127.941 249.895H131.342L131.579 249.351L133.606 244.694L134.157 249.351L134.221 249.895L135.091 257.258L137.161 249.895H141.664V249.351H136.411Z" fill="#00B383"/>
<path d="M232.032 249.566H168.601V254.765H232.032V249.566Z" fill="white"/>
<g filter="url(#filter0_dd)">
<path d="M83.1364 512.209L106.404 512.21C106.386 511.413 106.23 510.647 105.75 510.029C105.198 509.314 104.303 508.941 103.418 508.788C102.528 508.635 101.617 508.676 100.717 508.631C98.5096 508.523 96.3291 507.891 94.4046 506.802C93.3995 506.238 92.4587 505.544 91.3732 505.148L85.0316 505.315C84.1641 506.25 83.606 507.475 83.3371 508.734C83.0922 509.873 83.0652 511.044 83.1364 512.209Z" fill="#222B45"/>
<path d="M36.5195 436.961L41.8748 505.333L49.7222 505.127L58.2152 436.128L36.5195 436.961Z" fill="#2E3A59"/>
<path d="M71.7764 435.611L84.586 505.148H92.159L93.182 434.79H93.1789L71.7764 435.611Z" fill="#2E3A59"/>
<path d="M40.7043 512.209H63.9716C63.9541 511.412 63.7983 510.646 63.3174 510.028C62.7661 509.313 61.8711 508.94 60.9853 508.787C60.096 508.634 59.1847 508.675 58.2847 508.63C56.0773 508.522 53.8968 507.891 51.9722 506.802C50.9671 506.238 50.0263 505.543 48.9407 505.148L42.5992 505.314C41.7317 506.249 41.1737 507.475 40.9048 508.734C40.66 509.873 40.6331 511.044 40.7043 512.209Z" fill="#222B45"/>
<path d="M136.005 347.153C136.309 348.343 135.765 349.598 134.762 350.017C133.288 350.662 131.786 351.237 130.288 351.835L128.016 352.67C127.262 352.959 126.486 353.19 125.72 353.453C122.639 354.456 119.482 355.31 116.201 355.825C112.924 356.336 109.503 356.497 106.018 356.006C102.545 355.519 99.0084 354.362 95.7894 352.488C92.5609 350.632 89.6446 348.203 87.0402 345.55C84.4305 342.89 82.1062 340.009 79.9385 337.06C77.7628 334.109 75.7877 331.07 73.8652 328.012C71.9382 324.953 70.1357 321.858 68.3429 318.758C66.1536 314.753 67.3001 309.501 70.7597 307.235C74.2319 304.961 78.5705 306.492 80.3522 310.505C81.7118 313.698 83.0804 316.886 84.5258 319.961C85.968 323.041 87.4472 326.08 89.043 328.934C92.2238 334.653 95.7783 339.843 100.152 343.296C102.333 345.036 104.757 346.27 107.385 347.08C110.013 347.887 112.845 348.229 115.757 348.233C118.67 348.237 121.655 347.919 124.649 347.433C125.398 347.298 126.149 347.199 126.899 347.036L129.152 346.581C130.653 346.233 132.16 345.909 133.66 345.509C134.673 345.242 135.701 345.963 136.005 347.153Z" fill="#FFC6BA"/>
<path d="M75.5821 342.405L63.7914 324.364C60.225 318.907 61.2768 311.684 66.7339 308.118C72.1909 304.551 79.9866 305.992 83.553 311.449L95.3436 329.49L75.5821 342.405Z" fill="#D1F2FF"/>
<path d="M32.939 382.694L33.8809 437.061L36.5196 436.961L58.2152 436.128L64.9398 435.873L65.5604 435.848L71.7766 435.611L93.1791 434.79H93.1822L94.7542 434.731L84.5862 383.761L84.8763 358.572L85.1165 337.915L85.182 332.07V332.063L85.2413 327.163C85.2413 327.163 85.2413 327.16 85.2413 327.157L85.2444 326.898L85.2506 326.278L85.2787 323.807C85.2912 323.371 85.2912 322.94 85.2787 322.51V322.507C85.0978 316.063 82.1066 310.33 77.5061 306.463C74.9049 304.276 71.7859 302.689 68.3675 301.909C68.2833 301.89 68.1991 301.871 68.1149 301.856C66.6334 301.535 65.0988 301.366 63.5269 301.366C63.1276 301.366 62.7221 301.379 62.3167 301.401H62.298C60.9163 301.479 59.5626 301.659 58.2464 301.937C46.6531 304.376 37.8451 314.304 37.1059 326.458L32.939 382.694Z" fill="#E6F8FF"/>
<path d="M67.8352 310.249C67.8352 310.249 70.3647 318.102 64.965 326.599C64.965 326.599 56.9488 319.188 57.7553 309.604C57.7553 309.605 63.1777 313.672 67.8352 310.249Z" fill="#13A538"/>
<path d="M77.2974 316.672C72.0675 316.228 67.451 320.121 67.0068 325.351L69.419 325.556C69.7502 321.656 73.1926 318.753 77.0925 319.084C80.9924 319.415 83.8959 322.858 83.5647 326.757L85.9769 326.962C86.421 321.732 82.5272 317.116 77.2974 316.672Z" fill="#222B45"/>
<path d="M67.6504 325.069C67.7088 325.572 69.1404 337.415 74.8475 341.479C76.5843 342.716 78.5428 343.104 80.6692 342.634L80.4599 341.688C78.6124 342.097 76.9134 341.761 75.4091 340.69C70.0492 336.873 68.6263 325.076 68.6126 324.958L67.6504 325.069Z" fill="#222B45"/>
<path d="M81.9828 341.847C81.8094 341.064 81.034 340.569 80.2507 340.743C79.4675 340.916 78.9731 341.691 79.1465 342.475C79.3198 343.258 80.0952 343.752 80.8785 343.579C81.6617 343.406 82.1561 342.63 81.9828 341.847Z" fill="#222B45"/>
<path d="M85.4264 326.311C85.3292 326.807 82.983 338.503 76.9777 342.112C75.1502 343.211 73.1674 343.446 71.084 342.812L71.3659 341.886C73.1762 342.436 74.8961 342.234 76.479 341.282C82.119 337.893 84.4529 326.242 84.4757 326.125L85.4264 326.311Z" fill="#222B45"/>
<path d="M69.7801 342.579C70.0137 341.811 70.8252 341.378 71.5926 341.612C72.36 341.846 72.7928 342.657 72.5592 343.424C72.3256 344.192 71.5141 344.625 70.7467 344.391C69.9793 344.157 69.5465 343.346 69.7801 342.579Z" fill="#222B45"/>
<path d="M68.2074 354.334C68.6658 351.078 68.7962 347.509 68.6063 343.422C68.1945 334.557 66.4844 326.818 63.5233 320.42C63.1327 319.576 62.397 318.504 61.545 317.262C58.7043 313.121 56.3405 309.267 58.5893 307.606C60.8169 305.962 66.2125 307.377 69.0904 308.985C72.5265 310.904 74.9538 314.53 75.425 318.447L77.5927 318.186C77.0396 313.588 74.1895 309.332 70.155 307.079C67.4568 305.571 60.7624 303.288 57.2923 305.85C53.1611 308.9 57.123 314.675 59.7448 318.497C60.5077 319.609 61.2284 320.66 61.542 321.337C64.3838 327.477 66.0267 334.942 66.4255 343.524C66.6089 347.473 66.4847 350.91 66.0455 354.03L68.2074 354.334Z" fill="#222B45"/>
<path d="M64.7551 356.146C65.0268 357.456 66.3091 358.298 67.6192 358.026C68.9293 357.754 69.7711 356.472 69.4994 355.162C69.2276 353.852 67.9453 353.01 66.6352 353.282C65.3251 353.554 64.4834 354.836 64.7551 356.146Z" fill="#00B383"/>
<path d="M64.2969 356.241C63.9732 354.681 64.9796 353.148 66.5402 352.824C67.2958 352.667 68.0678 352.814 68.7134 353.238C69.3588 353.662 69.8006 354.311 69.9573 355.067C70.1142 355.823 69.9672 356.595 69.5435 357.241C69.1199 357.886 68.4702 358.328 67.7142 358.485C67.517 358.525 67.3204 358.545 67.1265 358.545C65.7855 358.545 64.5797 357.605 64.2969 356.241ZM66.7302 353.74C65.6748 353.959 64.9942 354.996 65.2131 356.051C65.4321 357.107 66.4687 357.786 67.5241 357.568C68.0354 357.462 68.4748 357.164 68.7612 356.727C69.0479 356.291 69.1473 355.769 69.0411 355.257C68.9351 354.746 68.6363 354.307 68.1999 354.02C67.8773 353.808 67.5081 353.699 67.1311 353.699C66.9979 353.699 66.8636 353.712 66.7302 353.74Z" fill="#222B45"/>
<path d="M68.8248 294.78L67.8353 310.25C64.3357 312.217 60.9757 312.002 57.7554 309.605L58.745 294.135L68.8248 294.78Z" fill="#FFC6BA"/>
<path d="M68.8244 294.78L68.3768 301.777C67.6521 302.006 66.883 302.133 66.0868 302.15C65.8317 302.155 65.5773 302.148 65.3236 302.132C62.5489 301.955 60.0258 300.502 58.479 298.287L58.7446 294.135L68.8244 294.78Z" fill="#FFB7A8"/>
<path d="M74.012 285.611L73.0861 294.669C72.7162 298.288 69.7042 301.062 66.0672 301.133C62.7619 301.198 59.73 299.244 58.4834 296.182C57.6582 294.155 56.9436 291.82 56.273 289.364C55.2015 285.438 56.313 281.176 59.3074 278.42C61.8596 276.071 64.9157 275.487 68.5131 276.797C72.1474 278.121 74.4053 281.763 74.012 285.611Z" fill="#FFC6BA"/>
<path d="M72.3398 280.691C72.3398 280.691 74.0039 283.76 73.632 289.329C73.632 289.329 74.955 283.76 74.0355 279.334L72.3398 280.691Z" fill="#222B45"/>
<path d="M55.0824 291.047C55.0824 291.047 48.2288 281.858 53.4191 276.287C59.013 270.283 62.6444 270.97 66.5428 272.079C71.4734 273.481 74.1173 275.233 76.0142 274.848C77.0281 274.642 77.9317 273.795 78.0896 274.373C78.2474 274.952 78.4743 278.362 75.5922 280.871C72.7101 283.38 68.9945 282.956 65.3628 281.017C61.731 279.078 60.0032 279.297 58.448 281.536C56.798 283.911 58.9683 288.294 58.9683 288.294L57.841 288.69C57.841 288.69 55.6812 287.964 55.0824 291.047Z" fill="#222B45"/>
<path d="M74.1011 288.728C74.1221 288.612 74.1365 288.496 74.1439 288.382C74.1625 288.101 74.142 287.826 74.0861 287.56C73.8442 286.407 72.9396 285.45 71.7109 285.202C70.2259 284.901 68.7745 285.737 68.259 287.112C68.2208 287.213 68.1879 287.318 68.1605 287.425L66.8555 287.248L66.8554 287.248L66.7854 287.234C66.5435 286.08 65.6389 285.124 64.4101 284.875C62.9251 284.575 61.4738 285.411 60.9583 286.785C60.9348 286.834 60.9152 286.884 60.8997 286.936L53.2671 288.085L53.316 288.409L60.819 287.28C60.7381 287.696 60.7466 288.109 60.8311 288.499C60.8944 288.791 60.9995 289.069 61.1419 289.327C61.5587 290.082 62.2916 290.655 63.2027 290.84C64.2326 291.048 65.2461 290.71 65.9426 290.025C66.1602 289.811 66.3471 289.563 66.4935 289.286C66.6285 289.033 66.7291 288.757 66.7889 288.461C66.8164 288.325 66.8344 288.19 66.8432 288.055C66.8463 288.007 66.8485 287.958 66.8491 287.91L68.0656 288.074C68.0608 288.202 68.0643 288.329 68.0752 288.454C68.0754 288.454 68.0754 288.455 68.0753 288.455C68.0864 288.58 68.1056 288.704 68.1318 288.826C68.1907 289.096 68.2853 289.356 68.4125 289.598C68.4224 289.616 68.4324 289.635 68.4427 289.654C68.8595 290.408 69.5923 290.982 70.5034 291.166C71.5333 291.375 72.5469 291.037 73.2434 290.352C73.3119 290.284 73.3772 290.213 73.4394 290.139C73.5745 289.979 73.6939 289.803 73.7943 289.613C73.9292 289.36 74.0298 289.083 74.0896 288.788C74.0936 288.768 74.0974 288.748 74.1011 288.728ZM66.1798 289.189C65.6179 290.192 64.4544 290.765 63.2665 290.524C62.1952 290.308 61.3993 289.489 61.1599 288.492C61.0697 288.118 61.058 287.72 61.1394 287.318C61.1593 287.219 61.1844 287.123 61.2144 287.03C61.2171 287.019 61.2205 287.009 61.2243 286.999C61.3131 286.729 61.442 286.481 61.6026 286.26C62.2091 285.424 63.2678 284.972 64.3463 285.19C65.3958 285.403 66.1807 286.193 66.4374 287.162C66.4679 287.276 66.4909 287.393 66.5061 287.511C66.5258 287.663 66.5324 287.817 66.5253 287.973C66.5193 288.113 66.5023 288.255 66.4735 288.397C66.4157 288.683 66.3154 288.948 66.1798 289.189ZM73.4806 289.516C72.9187 290.519 71.7552 291.091 70.5673 290.851C69.4959 290.634 68.7 289.816 68.4606 288.819C68.4352 288.714 68.4163 288.608 68.4039 288.5L68.3995 287.914C68.4037 287.869 68.4097 287.822 68.417 287.776C68.4232 287.732 68.4312 287.688 68.4401 287.644C68.4533 287.579 68.4686 287.515 68.4867 287.452C68.4952 287.42 68.505 287.388 68.5151 287.356C68.5179 287.346 68.5212 287.336 68.525 287.325C68.6138 287.056 68.7428 286.808 68.9034 286.587C69.5099 285.751 70.5686 285.298 71.6471 285.517C72.6966 285.729 73.4815 286.519 73.7382 287.488C73.7687 287.603 73.7916 287.719 73.8068 287.838C73.816 287.91 73.8225 287.982 73.8258 288.055C73.8296 288.136 73.8298 288.217 73.826 288.299C73.82 288.44 73.803 288.581 73.7742 288.724L73.7727 288.732C73.7145 289.014 73.615 289.277 73.4806 289.516Z" fill="#36373C"/>
<path d="M60.2086 288.818C60.3275 286.962 58.7329 285.349 56.6471 285.215C54.5612 285.081 52.774 286.478 52.6551 288.334C52.5363 290.19 54.1308 291.804 56.2167 291.937C58.3025 292.071 60.0898 290.674 60.2086 288.818Z" fill="#FFC6BA"/>
<path d="M90.3315 371.769H122.811L136.171 329.656H103.692L90.3315 371.769Z" fill="#2E3A59"/>
<path d="M101.492 362.155C101.636 363.43 100.525 365.511 98.4852 366.098C95.5009 366.326 95.6034 366.301 92.7282 365.719C89.8619 365.106 87.0422 364.209 86.3555 363.921C85.6688 363.633 84.9695 363.372 84.29 363.058L82.2434 362.125L80.2212 361.115C79.5437 360.782 78.8885 360.398 78.2197 360.041L77.2204 359.494L76.2361 358.912C75.5814 358.52 74.9202 358.139 74.2686 357.736C72.9811 356.901 71.6689 356.102 70.4066 355.204C60.1962 348.203 50.8182 339.362 42.0869 329.676C41.7448 329.285 41.443 328.855 41.1824 328.398C40.9246 327.938 40.7159 327.442 40.5441 326.932C40.2026 325.909 40.0271 324.814 40.0198 323.717C40.0041 321.521 40.6648 319.325 41.9814 317.647C43.298 315.97 44.9955 315.137 46.6372 315.122C47.4586 315.115 48.2669 315.314 49.0124 315.721C49.386 315.924 49.7404 316.184 50.0797 316.487C50.4215 316.785 50.7419 317.137 51.0349 317.542C58.2019 328.036 66.0163 337.789 74.7182 345.934C75.796 346.978 76.9145 347.919 78.0201 348.909C78.5785 349.387 79.145 349.844 79.7083 350.314L80.5557 351.014L81.4157 351.679C81.9914 352.116 82.5594 352.584 83.1439 352.997L84.8952 354.26L86.672 355.451C87.2643 355.853 87.8705 356.201 88.4708 356.58C90.8837 358.042 98.7268 348.462 95.586 356.58C97.5239 358.108 101.176 359.372 101.492 362.155Z" fill="#FFC6BA"/>
<path d="M55.0466 346.736L41.1999 332.188C37.0117 327.787 36.7667 321.002 41.1782 316.83C45.5896 312.658 52.987 312.679 57.1753 317.08L71.0219 336.149L55.0466 346.736Z" fill="#F0FBFF"/>
</g>
<path d="M609 513H0V520H609V513Z" fill="#EDF1F7"/>
<path d="M58.0953 347.544C51.9833 344.116 42.629 332.824 38.7158 327.606C38.7158 336.998 46.2937 346.799 50.0826 350.526L63.3128 352.203C64.1203 352.079 64.2073 350.973 58.0953 347.544Z" stroke="#B8DEFF"/>
<defs>
<filter id="filter0_dd" x="22.939" y="269.338" width="123.232" height="260.872" filterUnits="userSpaceOnUse" color-interpolation-filters="sRGB">
<feFlood flood-opacity="0" result="BackgroundImageFix"/>
<feColorMatrix in="SourceAlpha" type="matrix" values="0 0 0 0 0 0 0 0 0 0 0 0 0 0 0 0 0 0 127 0"/>
<feOffset dy="8"/>
<feGaussianBlur stdDeviation="5"/>
<feColorMatrix type="matrix" values="0 0 0 0 0.262745 0 0 0 0 0.352941 0 0 0 0 0.435294 0 0 0 0.301 0"/>
<feBlend mode="normal" in2="BackgroundImageFix" result="effect1_dropShadow"/>
<feColorMatrix in="SourceAlpha" type="matrix" values="0 0 0 0 0 0 0 0 0 0 0 0 0 0 0 0 0 0 127 0"/>
<feOffset/>
<feGaussianBlur stdDeviation="0.5"/>
<feColorMatrix type="matrix" values="0 0 0 0 0.262745 0 0 0 0 0.352941 0 0 0 0 0.435294 0 0 0 0.47 0"/>
<feBlend mode="normal" in2="effect1_dropShadow" result="effect2_dropShadow"/>
<feBlend mode="normal" in="SourceGraphic" in2="effect2_dropShadow" result="shape"/>
</filter>
</defs>
</svg>
