<svg width="36" height="42" viewBox="0 0 36 42" fill="none" xmlns="http://www.w3.org/2000/svg">
<path fill-rule="evenodd" clip-rule="evenodd" d="M24 22H20V18C20 16.894 19.104 16 18 16C16.896 16 16 16.894 16 18V24C16 25.106 16.896 26 18 26H24C25.104 26 26 25.106 26 24C26 22.894 25.104 22 24 22ZM18 37.5C10.556 37.5 4.5 31.444 4.5 24C4.5 16.556 10.556 10.5 18 10.5C25.444 10.5 31.5 16.556 31.5 24C31.5 31.444 25.444 37.5 18 37.5ZM19.976 6.116C19.98 6.074 20 6.042 20 6V4H22C23.104 4 24 3.106 24 2C24 0.894 23.104 0 22 0H14C12.896 0 12 0.894 12 2C12 3.106 12.896 4 14 4H16V6C16 6.042 16.02 6.074 16.024 6.116C7.026 7.104 0 14.744 0 24C0 33.926 8.076 42 18 42C27.924 42 36 33.926 36 24C36 14.744 28.974 7.104 19.976 6.116Z" fill="url(#paint0_linear)"/>
<path fill-rule="evenodd" clip-rule="evenodd" d="M24 22H20V18C20 16.894 19.104 16 18 16C16.896 16 16 16.894 16 18V24C16 25.106 16.896 26 18 26H24C25.104 26 26 25.106 26 24C26 22.894 25.104 22 24 22ZM18 37.5C10.556 37.5 4.5 31.444 4.5 24C4.5 16.556 10.556 10.5 18 10.5C25.444 10.5 31.5 16.556 31.5 24C31.5 31.444 25.444 37.5 18 37.5ZM19.976 6.116C19.98 6.074 20 6.042 20 6V4H22C23.104 4 24 3.106 24 2C24 0.894 23.104 0 22 0H14C12.896 0 12 0.894 12 2C12 3.106 12.896 4 14 4H16V6C16 6.042 16.02 6.074 16.024 6.116C7.026 7.104 0 14.744 0 24C0 33.926 8.076 42 18 42C27.924 42 36 33.926 36 24C36 14.744 28.974 7.104 19.976 6.116Z" fill="url(#paint1_linear)"/>
<defs>
<linearGradient id="paint0_linear" x1="18" y1="0" x2="18" y2="42" gradientUnits="userSpaceOnUse">
<stop stop-color="#F9BC79"/>
<stop offset="1" stop-color="#E07500"/>
</linearGradient>
<linearGradient id="paint1_linear" x1="18" y1="0" x2="18" y2="42" gradientUnits="userSpaceOnUse">
<stop stop-color="#F9BC79"/>
<stop offset="1" stop-color="#E07500"/>
</linearGradient>
</defs>
</svg>
