<svg width="608" height="489" viewBox="0 0 608 489" fill="none" xmlns="http://www.w3.org/2000/svg">
<path opacity="0.07" d="M566.9 262.897C566.9 349.447 525.077 426.228 460.538 474.13C457.303 476.534 454.008 478.864 450.661 481.117H157.351C154.004 478.864 150.71 476.534 147.474 474.13C82.9353 426.228 41.1123 349.447 41.1123 262.897C41.1123 117.703 158.812 0 304.006 0C449.201 0 566.9 117.703 566.9 262.897Z" fill="#EF7D00"/>
<path d="M402.739 96.9678H205.297C193.492 96.9678 183.922 106.538 183.922 118.342V450.894C183.922 467.673 197.524 481.275 214.303 481.275H393.733C410.512 481.275 424.114 467.673 424.114 450.894V118.342C424.114 106.538 414.544 96.9678 402.739 96.9678Z" fill="#222B45"/>
<path d="M408.429 126.153V434.317C408.429 438.713 404.865 442.276 400.47 442.276H207.566C203.171 442.276 199.607 438.713 199.607 434.317V126.153H408.429Z" fill="#F7F9FC"/>
<path d="M346.539 114.691H261.497C260.931 114.691 260.471 114.232 260.471 113.665V110.431C260.471 109.864 260.931 109.405 261.497 109.405H346.539C347.105 109.405 347.565 109.864 347.565 110.431V113.665C347.565 114.232 347.105 114.691 346.539 114.691Z" fill="#155BCD"/>
<g opacity="0.25">
<path opacity="0.25" d="M321.45 331.338L319.6 337.644L431.211 370.421L433.062 364.115L321.45 331.338Z" fill="white"/>
</g>
<path opacity="0.25" d="M309.412 158.011C310.179 159.573 309.548 161.46 307.986 162.227C306.425 162.995 304.539 162.363 303.772 160.801C303.005 159.239 303.636 157.352 305.198 156.585C306.75 155.809 308.636 156.45 309.412 158.011Z" fill="white"/>
<path opacity="0.25" d="M234.92 172.482C236.716 176.12 235.227 180.526 231.59 182.331C227.953 184.128 223.549 182.638 221.744 179.009C219.948 175.371 221.437 170.966 225.065 169.16C228.711 167.355 233.125 168.844 234.92 172.482Z" fill="white"/>
<path opacity="0.25" d="M484.46 279.854C486.256 283.493 484.766 287.898 481.138 289.703C477.501 291.5 473.097 290.01 471.292 286.372C469.496 282.734 470.985 278.329 474.622 276.523C478.25 274.727 482.655 276.216 484.46 279.854Z" fill="white"/>
<path opacity="0.25" d="M224.857 117.587C226.401 120.701 225.128 124.484 222.006 126.027C218.892 127.571 215.111 126.298 213.567 123.175C212.024 120.06 213.306 116.278 216.419 114.734C219.542 113.19 223.314 114.472 224.857 117.587Z" fill="white"/>
<path opacity="0.25" d="M430.121 368.838C431.15 370.914 430.302 373.433 428.217 374.462C426.141 375.491 423.623 374.643 422.594 372.557C421.566 370.481 422.414 367.962 424.499 366.933C426.574 365.904 429.092 366.753 430.121 368.838Z" fill="white"/>
<path opacity="0.25" d="M514.463 158.336C518.851 156.841 521.196 152.071 519.701 147.682C518.206 143.293 513.437 140.947 509.049 142.442C504.661 143.937 502.316 148.708 503.811 153.097C505.306 157.486 510.075 159.832 514.463 158.336Z" fill="white"/>
<path opacity="0.25" d="M296.254 99.6492C297.283 101.725 296.435 104.244 294.35 105.273C292.274 106.302 289.756 105.454 288.728 103.368C287.699 101.292 288.547 98.7735 290.632 97.7444C292.708 96.7152 295.226 97.5638 296.254 99.6492Z" fill="white"/>
<path d="M331.966 406.744C332.995 408.82 332.147 411.339 330.062 412.368C327.986 413.397 325.468 412.549 324.44 410.463C323.411 408.387 324.259 405.868 326.344 404.839C328.429 403.819 330.947 404.668 331.966 406.744Z" fill="white"/>
<path opacity="0.25" d="M315.973 320.397C316.74 321.958 316.109 323.845 314.547 324.613C312.986 325.38 311.1 324.748 310.333 323.186C309.566 321.624 310.197 319.738 311.759 318.97C313.32 318.203 315.206 318.844 315.973 320.397Z" fill="white"/>
<path opacity="0.25" d="M479.533 222.558C480.562 224.634 479.713 227.153 477.628 228.182C475.553 229.211 473.035 228.362 472.006 226.277C470.977 224.201 471.825 221.682 473.91 220.653C475.986 219.624 478.504 220.472 479.533 222.558Z" fill="white"/>
<path opacity="0.25" d="M451.898 322.915C453.441 326.03 452.168 329.812 449.046 331.356C445.932 332.9 442.151 331.627 440.607 328.503C439.064 325.389 440.346 321.606 443.459 320.063C446.573 318.519 450.354 319.792 451.898 322.915Z" fill="white"/>
<path opacity="0.25" d="M549.638 291.894C554.387 301.476 550.471 313.099 540.847 317.848C531.266 322.597 519.643 318.681 514.893 309.058C510.144 299.476 514.06 287.853 523.684 283.104C533.265 278.354 544.889 282.27 549.638 291.894Z" fill="white"/>
<g opacity="0.25">
<path opacity="0.25" d="M205.22 307.422L156.759 343.112L158.776 345.852L207.238 310.163L205.22 307.422Z" fill="white"/>
</g>
<path opacity="0.25" d="M217.855 254.849C220.815 255.417 222.755 258.288 222.186 261.249C221.618 264.21 218.748 266.151 215.788 265.582C212.828 265.013 210.887 262.143 211.456 259.182C212.024 256.212 214.894 254.28 217.855 254.849Z" fill="white"/>
<path opacity="0.25" d="M97.2903 339.706C99.8263 340.194 101.487 342.658 101 345.195C100.512 347.732 98.0484 349.393 95.5124 348.905C92.9764 348.418 91.3158 345.953 91.8032 343.417C92.2995 340.88 94.7543 339.219 97.2903 339.706Z" fill="white"/>
<path opacity="0.25" d="M246.03 327.104C247.726 327.429 248.828 329.072 248.503 330.76C248.178 332.458 246.535 333.559 244.848 333.234C243.151 332.909 242.05 331.266 242.375 329.578C242.7 327.89 244.333 326.779 246.03 327.104Z" fill="white"/>
<path opacity="0.25" d="M159.756 180.868C160.034 177.429 157.471 174.416 154.033 174.138C150.595 173.861 147.583 176.424 147.306 179.863C147.029 183.302 149.591 186.315 153.029 186.592C156.467 186.87 159.479 184.307 159.756 180.868Z" fill="white"/>
<path opacity="0.25" d="M115.882 325.804C117.579 326.129 118.68 327.772 118.355 329.46C118.03 331.158 116.387 332.259 114.7 331.934C113.003 331.609 111.902 329.966 112.227 328.278C112.552 326.581 114.194 325.479 115.882 325.804Z" fill="white"/>
<path d="M223.117 387.7C224.813 388.025 225.914 389.668 225.59 391.356C225.265 393.053 223.622 394.155 221.934 393.83C220.238 393.505 219.137 391.862 219.462 390.174C219.786 388.485 221.42 387.375 223.117 387.7Z" fill="white"/>
<path opacity="0.25" d="M165.953 372.873C167.225 373.117 168.055 374.345 167.812 375.617C167.568 376.89 166.341 377.721 165.068 377.477C163.796 377.233 162.965 376.006 163.209 374.733C163.453 373.451 164.68 372.62 165.953 372.873Z" fill="white"/>
<path opacity="0.25" d="M181.728 231.955C183.424 232.28 184.525 233.923 184.2 235.611C183.875 237.308 182.233 238.41 180.545 238.085C178.849 237.76 177.748 236.117 178.072 234.429C178.397 232.741 180.031 231.63 181.728 231.955Z" fill="white"/>
<path opacity="0.25" d="M228.666 293.531C231.202 294.019 232.872 296.483 232.376 299.02C231.888 301.556 229.424 303.218 226.888 302.73C224.352 302.243 222.692 299.778 223.179 297.241C223.666 294.696 226.13 293.035 228.666 293.531Z" fill="white"/>
<path opacity="0.25" d="M266.391 254.695C268.087 255.02 269.188 256.663 268.863 258.351C268.539 260.048 266.896 261.15 265.208 260.825C263.512 260.5 262.411 258.857 262.736 257.169C263.06 255.471 264.694 254.361 266.391 254.695Z" fill="white"/>
<path d="M304.377 373.843C304.377 376.609 302.136 378.859 299.362 378.859C296.597 378.859 294.347 376.619 294.347 373.843C294.347 371.077 296.587 368.827 299.362 368.827C302.136 368.827 304.377 371.068 304.377 373.843Z" stroke="white" stroke-width="0.4862" stroke-miterlimit="10"/>
<path d="M384.969 428.238H228.784C222.255 428.238 216.959 422.94 216.959 416.41C216.959 409.879 222.255 404.582 228.784 404.582H384.969C391.498 404.582 396.794 409.879 396.794 416.41C396.794 422.94 391.498 428.238 384.969 428.238Z" fill="white"/>
<path d="M239.094 416.375C239.094 420.677 235.608 424.176 231.292 424.176C226.99 424.176 223.491 420.691 223.491 416.375C223.491 412.073 226.976 408.573 231.292 408.573C235.594 408.588 239.094 412.073 239.094 416.375Z" fill="#00B383"/>
<g filter="url(#filter0_dd)">
<path d="M334.31 223.21L331.075 256.073H281.53L275.604 211.898L310.617 206.513C310.606 206.513 340.225 203.821 334.31 223.21Z" fill="#00B383"/>
<path d="M304.147 80.982C304.147 80.982 329.457 88.5272 330.542 96.0614C331.617 103.607 330.542 208.121 330.542 208.121C330.542 208.121 280.997 212.431 275.603 208.121C270.22 203.811 263.751 89.059 268.602 85.292C273.454 81.5249 291.221 78.8325 291.221 78.8325L304.147 80.982Z" fill="#00B383"/>
<path d="M280.988 79.907C280.988 79.907 292.563 102.266 291.488 127.583C290.414 152.9 289.328 259.574 289.328 259.574L262.401 253.115V104.426C262.401 104.426 266.699 89.7125 280.988 79.907Z" fill="#F8FDFF"/>
<path opacity="0.47" d="M292.849 165.031L257.836 161.796L266.454 109.545C266.454 109.545 254.602 140.257 294.998 144.567C335.726 148.911 291.619 161.641 291.619 161.641" fill="#6FBCFF"/>
<path d="M310.428 83.0979C310.428 83.0979 316.808 98.4875 317.883 140.513C318.957 182.538 320.574 259.574 320.574 259.574L345.884 257.425C345.884 257.425 336.724 107.119 330.809 95.8062C324.883 84.4829 310.428 83.0979 310.428 83.0979Z" fill="#F8FDFF"/>
<path d="M310.338 82.8767C310.338 82.8767 330.265 87.1867 337.265 92.5714C344.266 97.9561 358.809 135.128 361.501 134.596C364.193 134.054 386.811 106.044 390.588 104.427C390.588 104.427 399.748 118.431 402.44 118.974C402.44 118.974 374.97 157.221 365.278 163.149C355.586 169.076 332.425 136.746 332.425 136.746L310.338 82.8767Z" fill="#F8FDFF"/>
<path d="M398.321 104.482C398.321 104.482 401.976 100.637 402.641 97.5018C402.74 97.0365 403.349 96.9367 403.593 97.3467C404.568 99.0419 405.642 102.122 402.707 104.693C398.398 108.46 398.321 104.482 398.321 104.482Z" fill="#FFC6BA"/>
<path d="M393.546 111.695C394.089 111.695 396.238 104.693 400.004 104.15C403.77 103.607 411.313 104.15 412.388 104.15C413.462 104.15 422.622 98.2223 426.931 101.458C426.931 101.458 415.622 105.225 414.005 107.385C412.388 109.535 404.844 114.93 397.312 116.005" fill="#FFC6BA"/>
<path opacity="0.47" d="M278.273 82.821L273.71 100.648H279.636L276.944 112.503L291.111 139.715L273.71 114.121L276.944 101.723H271.561L278.273 82.821Z" fill="#6FBCFF"/>
<path opacity="0.47" d="M312.221 83.8184L327.839 97.6901H324.073L328.914 108.459L319.222 131.084L326.765 108.459L321.913 97.1472L324.605 96.0724L312.221 83.8184Z" fill="#6FBCFF"/>
<path d="M365.001 125.433H319.764L303.061 180.92H348.309L365.001 125.433Z" fill="#2E3A59"/>
<path d="M301.722 158.029C301.722 158.029 305.543 152.124 311.979 151.304L310.516 156.168C310.516 156.168 321.648 153.72 324.34 151.559C327.032 149.41 325.957 159.636 323.266 161.797C320.574 163.946 316.265 166.649 314.648 167.724C313.031 168.799 301.179 167.181 301.179 167.181L301.722 158.029Z" fill="#FFC6BA"/>
<path d="M280.71 80.7161C280.71 80.7161 257.017 86.6437 249.474 93.646C241.93 100.648 236.547 149.676 239.782 155.603C243.016 161.531 296.604 171.492 300.913 171.492C300.913 171.492 300.913 156.944 304.679 154.795C304.679 154.795 265.634 148.058 264.017 144.291C262.4 140.513 264.56 92.0284 280.71 80.7161Z" fill="#F8FDFF"/>
<path d="M324.472 58.4107C321.343 50.4136 321.141 40.5911 321.43 36.6794C320.706 37.2589 319.084 38.5049 318.389 38.8526C317.52 39.2872 320.127 51.4567 320.127 57.5414C320.127 62.4092 310.568 68.5519 305.788 71.0148C305.788 71.3045 305.006 80.7159 305.354 83.1498C307.439 82.4544 318.746 85.2971 324.25 86.601C326.072 84.1479 327.6 66.4078 324.472 58.4107Z" fill="#222B45"/>
<path d="M319.693 40.5909C319.693 40.9971 319.693 47.5449 320.127 51.4565C320.562 55.3682 321.12 58.8452 318.451 64.4953C315.782 70.1454 308.31 75.5619 308.31 75.5619C308.31 75.5619 308.719 80.1901 309.265 84.0534C309.265 84.0534 309.254 96.6575 301.716 96.6575C294.178 96.6575 281.457 80.1901 281.457 80.1901C281.457 80.1901 290.527 70.9912 282.87 59.9587C275.2 48.9261 302.02 26.3514 318.451 40.1421" fill="#FFC6BA"/>
<path d="M293.019 43.0387C293.019 43.0387 315.235 47.4034 320.393 40.4309C328.082 30.031 314.31 16.9616 302.143 16.9617C294.322 16.9617 278.175 20.0047 273.466 41.7353C268.757 63.4658 240.009 73.0282 238.271 87.8054C238.651 88.5657 245.009 84.1848 245.658 86.5016C242.616 90.8478 243.917 105.543 246.961 104.321C246.961 98.2364 257.338 87.8054 262.552 86.5016C272.98 82.59 282.012 82.0589 287.37 78.6783C288.673 75.636 288.673 73.8975 286.501 66.5089C285.28 65.205 282.431 62.1626 282.431 62.1626V55.6432L287.37 56.5125C287.37 52.1662 285.907 41.0011 293.019 43.0387Z" fill="#222B45"/>
<path d="M296.235 53.9224C296.109 57.7583 298.142 60.9295 300.785 61.0167C303.428 61.093 305.668 58.0417 305.783 54.2058C305.909 50.3699 303.876 47.1987 301.233 47.1115C298.602 47.0352 296.361 50.0865 296.235 53.9224Z" stroke="#453E6B" stroke-width="0.8094" stroke-miterlimit="10"/>
<path d="M310.138 53.4793C310.012 57.555 312.046 60.9243 314.688 61.0169C317.331 61.098 319.571 57.856 319.686 53.7803C319.813 49.7047 317.779 46.3353 315.136 46.2427C312.505 46.1616 310.265 49.4036 310.138 53.4793Z" stroke="#453E6B" stroke-width="0.8094" stroke-miterlimit="10"/>
<path d="M296.23 54.0642L277.981 57.5412" stroke="#453E6B" stroke-width="0.8094" stroke-miterlimit="10"/>
<path d="M310.134 53.1949C310.134 53.1949 308.026 51.4307 305.789 52.9291" stroke="#453E6B" stroke-width="0.8094" stroke-miterlimit="10"/>
<path d="M281.497 62.2743C282.969 65.2502 285.697 66.9091 287.588 65.972C289.492 65.0349 289.835 61.8691 288.375 58.8931C286.903 55.9172 284.175 54.2583 282.284 55.1954C280.38 56.1325 280.025 59.2984 281.497 62.2743Z" fill="#FFC6BA"/>
<path d="M308.31 75.5619C303.209 75.8979 296.702 71.9382 294.413 69.8379C297.159 81.2636 305.53 84.12 309.127 83.6999C308.964 82.2997 308.702 77.9142 308.31 75.5619Z" fill="#FFB7A8"/>
</g>
<path d="M607.904 481.275H0V488.262H607.904V481.275Z" fill="#EDF1F7"/>
<rect x="411.907" y="15.5645" width="55.8992" height="55.8992" rx="20" fill="#EF7D00"/>
<path d="M434.215 36.5459L439.226 49.4953L444.175 29.6852L448.579 44.1939H456.552C457.425 42.2137 457.955 40.1165 457.955 37.9414C457.955 31.5641 453.255 26.3953 447.457 26.3953C444.448 26.3953 441.744 27.783 439.826 30.0127C437.909 27.7908 435.204 26.3953 432.196 26.3953C426.397 26.3953 421.464 31.5719 421.697 37.9414C421.768 39.945 422.298 41.894 423.124 43.7495H430.092L434.215 36.5459Z" fill="white"/>
<path d="M444.324 35.4932L439.546 54.6016L433.95 40.1319L430.996 45.3007H423.903C428.736 54.1416 439.834 60.667 439.834 60.667C439.834 60.667 450.98 54.547 455.796 45.7451H447.433L444.324 35.4932Z" fill="white"/>
<rect x="151.277" y="9.97461" width="55.8992" height="55.8992" rx="20" fill="#EF7D00"/>
<path d="M186.284 51.9616C189.874 54.3439 194.724 53.3614 197.106 49.7619C199.487 46.1711 198.505 41.3196 194.906 38.9373L184.337 31.9382L175.714 44.9539L186.284 51.9616Z" fill="white"/>
<path d="M182.711 30.8601L172.133 23.8523C168.543 21.47 163.693 22.4525 161.311 26.052C158.93 29.6428 159.912 34.4944 163.51 36.8767L174.08 43.8844L182.711 30.8601ZM167.813 25.0782C168.256 24.4001 169.169 24.2175 169.838 24.6696C170.516 25.113 170.699 26.0259 170.247 26.6954C169.803 27.3736 168.891 27.5562 168.221 27.1041C167.552 26.6606 167.361 25.7564 167.813 25.0782ZM176.218 31.8252C176.661 31.1557 177.574 30.9644 178.243 31.4165C178.913 31.8599 179.104 32.7729 178.652 33.4423C178.209 34.1205 177.296 34.3031 176.627 33.851C175.957 33.4076 175.775 32.4946 176.218 31.8252ZM169.725 31.0253C170.168 30.3471 171.081 30.1645 171.75 30.6166C172.42 31.06 172.611 31.973 172.159 32.6424C171.716 33.3206 170.803 33.5032 170.134 33.0511C169.456 32.6077 169.273 31.7034 169.725 31.0253ZM162.685 31.0513C163.128 30.3732 164.04 30.1906 164.71 30.6427C165.388 31.0861 165.57 31.999 165.118 32.6685C164.675 33.3467 163.762 33.5293 163.093 33.0772C162.424 32.6337 162.241 31.7208 162.685 31.0513ZM170.82 36.4419C171.264 35.7725 172.176 35.5812 172.846 36.0333C173.524 36.4767 173.706 37.3896 173.254 38.0591C172.811 38.7286 171.898 38.9199 171.229 38.4677C170.56 38.0243 170.377 37.1114 170.82 36.4419Z" fill="white"/>
<rect x="65.6816" y="114.785" width="55.8992" height="55.8992" rx="20" fill="#EF7D00"/>
<path d="M96.8381 143.069H94.2389V140.469H91.6397V143.069H89.0405V145.669H91.6397V148.277H94.2389V145.669H96.8381V143.069Z" fill="white"/>
<path d="M108.264 132.66H79.1764C77.5158 132.66 76.1621 134.014 76.1621 135.675V153.838C76.1621 155.5 77.5158 156.854 79.1764 156.854H108.264C109.924 156.854 111.278 155.5 111.278 153.838V135.675C111.278 134.014 109.924 132.66 108.264 132.66ZM93.3275 150.616C89.88 150.616 87.0823 147.817 87.0823 144.369C87.0823 140.92 89.88 138.122 93.3275 138.122C96.775 138.122 99.5728 140.92 99.5728 144.369C99.5728 147.817 96.775 150.616 93.3275 150.616Z" fill="white"/>
<path d="M101.721 134.222H100.159V132.741C100.159 131.18 99.5457 130.322 99.3471 130.322H88.1021C87.8945 130.322 87.2898 131.18 87.2898 132.741V134.222H85.7285V132.741C85.7285 130.475 86.7483 128.76 88.1021 128.76H99.3471C100.701 128.76 101.721 130.475 101.721 132.741V134.222V134.222Z" fill="white"/>
<rect x="494.358" y="114.785" width="55.8992" height="55.8992" rx="20" fill="#EF7D00"/>
<path d="M541.611 133.537C541.242 133.23 540.689 133.23 540.321 133.537C540.014 133.844 539.645 134.151 539.215 134.336L530.43 125.797C530.615 125.367 530.922 124.998 531.229 124.691C531.597 124.322 531.536 123.769 531.229 123.401C530.86 123.094 530.307 123.094 529.939 123.401C527.174 126.227 527.666 131.203 528.157 134.95C526.744 134.827 525.27 134.704 523.857 134.766C520.478 134.827 518.205 135.564 516.669 137.162C514.151 139.803 514.335 144.104 514.888 148.711C513.475 148.588 512 148.465 510.526 148.527C507.147 148.527 504.874 149.264 503.339 150.861C503.154 151.045 503.093 151.291 503.093 151.475C503.093 151.66 503.216 151.967 503.339 152.09C503.707 152.397 504.26 152.397 504.629 152.09C504.936 151.783 505.304 151.475 505.734 151.291L514.581 159.83C514.396 160.26 514.089 160.629 513.782 160.936C513.413 161.305 513.475 161.858 513.782 162.226C513.966 162.41 514.212 162.472 514.396 162.472C514.642 162.472 514.888 162.349 515.011 162.226C517.775 159.4 517.284 154.424 516.792 150.677C518.205 150.8 519.68 150.923 521.093 150.861C524.471 150.8 526.744 150.062 528.28 148.465C531.045 145.639 530.553 140.663 530.062 136.916C531.475 137.039 532.949 137.162 534.423 137.1C537.802 137.039 540.075 136.302 541.55 134.704C541.734 134.52 541.795 134.274 541.795 134.09C541.918 133.906 541.795 133.66 541.611 133.537ZM526.621 147.667C525.7 148.342 524.471 148.772 522.813 148.957L516.362 142.691C516.485 141.216 516.792 139.865 517.591 138.882L526.621 147.667ZM521.215 149.08C519.741 149.08 518.205 149.018 516.669 148.834C516.485 147.359 516.301 145.824 516.301 144.288L521.215 149.08ZM518.389 138.022C519.311 137.346 520.54 136.916 522.137 136.732L528.649 142.998C528.526 144.472 528.219 145.824 527.42 146.807L518.389 138.022ZM523.796 136.609C525.27 136.609 526.806 136.67 528.342 136.855C528.526 138.329 528.71 139.865 528.71 141.401L523.796 136.609ZM529.939 135.134C529.754 133.783 529.632 132.37 529.57 130.957L534.116 135.38C532.826 135.38 531.413 135.257 529.939 135.134ZM515.072 150.493C515.256 151.844 515.379 153.257 515.441 154.67L510.895 150.247C512.185 150.308 513.598 150.37 515.072 150.493ZM538.048 134.889C537.372 135.073 536.635 135.196 535.775 135.319L529.632 129.298C529.693 128.5 529.816 127.762 530 127.025L538.048 134.889ZM506.963 150.738C507.639 150.554 508.376 150.431 509.236 150.308L515.379 156.329C515.318 157.127 515.195 157.864 515.011 158.602L506.963 150.738Z" fill="white"/>
<rect x="80.7046" y="245.799" width="55.8992" height="55.8992" rx="20" fill="#EF7D00"/>
<path d="M89.7881 289.331L95.0677 284.745L95.4557 285.25L89.7881 289.331Z" fill="white"/>
<path d="M110.725 278.29L109.299 279.365L104.327 272.774L105.148 272.152L112.936 266.266L117.909 272.856L111.168 277.956L111.98 278.733L119.597 272.982L113.478 264.875L95.753 278.263L94.2549 285.756L101.872 286.37L111.89 278.805C111.583 278.724 111.168 278.561 110.725 278.29Z" fill="white"/>
<path d="M108.262 275.149L105.157 272.152L104.336 272.775L109.309 279.365L110.735 278.29C109.778 277.722 108.704 276.701 108.262 275.149Z" fill="white"/>
<path d="M110.726 278.29C111.168 278.561 111.583 278.723 111.89 278.805L111.98 278.741L111.168 277.965L110.726 278.29Z" fill="white"/>
<path d="M108.144 274.67C107.63 271.881 105.157 272.161 105.157 272.161L108.262 275.158C108.217 274.995 108.172 274.833 108.144 274.67Z" fill="white"/>
<path d="M119.471 273.876L112.585 264.758C112.378 264.478 112.432 264.081 112.712 263.874C112.991 263.666 113.389 263.72 113.605 264L120.491 273.118C120.699 273.398 120.645 273.795 120.365 274.011C120.076 274.21 119.679 274.156 119.471 273.876Z" fill="white"/>
<path d="M126.565 268.514L119.679 259.396C119.471 259.116 119.525 258.719 119.805 258.502C120.085 258.295 120.482 258.349 120.698 258.629L127.584 267.746C127.792 268.026 127.738 268.423 127.458 268.64C127.169 268.857 126.772 268.794 126.565 268.514Z" fill="white"/>
<path d="M124.966 265.366L122.291 261.821L116.211 266.412L118.887 269.957L124.966 265.366Z" fill="white"/>
<rect x="458.024" y="256.979" width="55.8992" height="55.8992" rx="20" fill="#EF7D00"/>
<path d="M496.105 284.928C494.213 284.928 492.466 286.239 492.029 287.985C489.409 288.568 487.371 290.897 487.371 293.663V294.391C487.371 295.555 486.352 296.574 485.188 296.574C484.023 296.574 483.004 295.555 483.004 294.391V289.15C486.498 288.568 489.409 286.093 490.282 282.599L491.593 277.65C491.884 275.903 491.447 274.011 490.282 272.555C489.118 271.245 487.371 270.371 485.624 270.371C484.751 270.371 484.169 270.954 484.169 271.827C484.169 272.7 484.751 273.283 485.624 273.283C486.643 273.283 487.517 273.719 488.099 274.447C488.681 275.175 488.972 276.194 488.827 277.068L487.517 281.871C486.789 284.492 484.314 286.384 481.548 286.384C478.782 286.384 476.308 284.492 475.58 281.871L474.27 277.068C474.124 276.194 474.415 275.175 474.998 274.447C475.58 273.719 476.599 273.283 477.472 273.283C478.346 273.283 478.928 272.7 478.928 271.827C478.928 270.954 478.346 270.371 477.472 270.371C475.725 270.371 473.979 271.245 472.814 272.555C471.649 274.011 471.213 275.757 471.504 277.795L472.814 282.599C473.687 286.093 476.599 288.568 480.093 289.15V294.391C480.093 297.156 482.422 299.486 485.188 299.486C487.953 299.486 490.282 297.156 490.282 294.391V293.663C490.282 292.498 491.01 291.479 492.029 291.042C492.757 292.644 494.213 293.663 496.105 293.663C498.58 293.663 500.472 291.77 500.472 289.296C500.472 286.821 498.434 284.928 496.105 284.928ZM496.105 290.751C495.232 290.751 494.65 290.169 494.65 289.296C494.65 288.422 495.232 287.84 496.105 287.84C496.979 287.84 497.561 288.422 497.561 289.296C497.561 290.169 496.833 290.751 496.105 290.751Z" fill="white"/>
<path opacity="0.11" d="M256.662 355.913H370.146C372.214 355.913 373.904 358.183 373.904 360.993V385.173C373.904 387.969 372.224 390.253 370.146 390.253H290.015L284.772 399L278.607 390.253H256.662C254.593 390.253 252.904 387.983 252.904 385.173V360.993C252.904 358.183 254.583 355.913 256.662 355.913Z" fill="#2A229E"/>
<path d="M256.662 351H370.146C372.214 351 373.904 353.369 373.904 356.302V381.543C373.904 384.461 372.224 386.845 370.146 386.845H290.015L284.772 395.976L278.607 386.845H256.662C254.593 386.845 252.904 384.476 252.904 381.543V356.302C252.904 353.369 254.583 351 256.662 351Z" fill="white"/>
<path d="M361.088 361.583H265.72V358.559H361.088V361.583Z" fill="#C5CEE0"/>
<path d="M361.088 367.63H265.72V364.606H361.088V367.63Z" fill="#C5CEE0"/>
<path d="M361.088 373.677H265.72V370.654H361.088V373.677Z" fill="#C5CEE0"/>
<path d="M299.268 379.724H265.72V376.701H299.268V379.724Z" fill="#C5CEE0"/>
<path opacity="0.11" d="M306.332 297.606H198.476C196.51 297.606 194.904 299.734 194.904 302.368V325.037C194.904 327.658 196.5 329.799 198.476 329.799H274.633L279.616 338L285.475 329.799H306.332C308.298 329.799 309.904 327.671 309.904 325.037V302.368C309.904 299.734 308.308 297.606 306.332 297.606Z" fill="#2A229E"/>
<path d="M306.332 293H198.476C196.51 293 194.904 295.221 194.904 297.971V321.634C194.904 324.37 196.5 326.605 198.476 326.605H274.633L279.616 335.165L285.475 326.605H306.332C308.298 326.605 309.904 324.384 309.904 321.634V297.971C309.904 295.221 308.308 293 306.332 293Z" fill="white"/>
<path d="M207.085 302.921H297.723V300.086H207.085V302.921Z" fill="#C5CEE0"/>
<path d="M207.085 308.591H297.723V305.756H207.085V308.591Z" fill="#C5CEE0"/>
<path d="M207.085 314.26H297.723V311.425H207.085V314.26Z" fill="#C5CEE0"/>
<path d="M265.838 319.929H297.723V317.095H265.838V319.929Z" fill="#C5CEE0"/>
<path opacity="0.11" d="M261.382 252.504H366.425C368.34 252.504 369.904 254.585 369.904 257.16V279.325C369.904 281.888 368.349 283.981 366.425 283.981H292.255L287.401 292L281.695 283.981H261.382C259.468 283.981 257.904 281.901 257.904 279.325V257.16C257.904 254.585 259.458 252.504 261.382 252.504Z" fill="#2A229E"/>
<path d="M261.382 248H366.425C368.34 248 369.904 250.172 369.904 252.86V275.998C369.904 278.673 368.349 280.858 366.425 280.858H292.255L287.401 289.228L281.695 280.858H261.382C259.468 280.858 257.904 278.686 257.904 275.998V252.86C257.904 250.172 259.458 248 261.382 248Z" fill="white"/>
<path d="M358.041 257.701H269.767V254.929H358.041V257.701Z" fill="#C5CEE0"/>
<path d="M358.041 263.244H269.767V260.472H358.041V263.244Z" fill="#C5CEE0"/>
<path d="M358.041 268.787H269.767V266.016H358.041V268.787Z" fill="#C5CEE0"/>
<path d="M300.82 274.331H269.767V271.559H300.82V274.331Z" fill="#C5CEE0"/>
<defs>
<filter id="filter0_dd" x="228.271" y="14.9617" width="208.66" height="262.613" filterUnits="userSpaceOnUse" color-interpolation-filters="sRGB">
<feFlood flood-opacity="0" result="BackgroundImageFix"/>
<feColorMatrix in="SourceAlpha" type="matrix" values="0 0 0 0 0 0 0 0 0 0 0 0 0 0 0 0 0 0 127 0"/>
<feOffset dy="8"/>
<feGaussianBlur stdDeviation="5"/>
<feColorMatrix type="matrix" values="0 0 0 0 0.262745 0 0 0 0 0.352941 0 0 0 0 0.435294 0 0 0 0.301 0"/>
<feBlend mode="normal" in2="BackgroundImageFix" result="effect1_dropShadow"/>
<feColorMatrix in="SourceAlpha" type="matrix" values="0 0 0 0 0 0 0 0 0 0 0 0 0 0 0 0 0 0 127 0"/>
<feOffset/>
<feGaussianBlur stdDeviation="0.5"/>
<feColorMatrix type="matrix" values="0 0 0 0 0.262745 0 0 0 0 0.352941 0 0 0 0 0.435294 0 0 0 0.47 0"/>
<feBlend mode="normal" in2="effect1_dropShadow" result="effect2_dropShadow"/>
<feBlend mode="normal" in="SourceGraphic" in2="effect2_dropShadow" result="shape"/>
</filter>
</defs>
</svg>
